<?xml version="1.0" standalone="no"?>
<!DOCTYPE svg PUBLIC "-//W3C//DTD SVG 20010904//EN"
 "http://www.w3.org/TR/2001/REC-SVG-20010904/DTD/svg10.dtd">
<svg version="1.0" xmlns="http://www.w3.org/2000/svg"
 width="502.000000pt" height="497.000000pt" viewBox="0 0 502.000000 497.000000"
 preserveAspectRatio="xMidYMid meet">

<g transform="translate(0.000000,497.000000) scale(0.100000,-0.100000)"
fill="#000000" stroke="none">
<path d="M2210 4273 c-8 -3 -22 -11 -30 -18 -8 -6 -42 -18 -75 -25 -82 -18
-201 -64 -282 -108 -131 -73 -243 -204 -279 -327 -32 -111 -14 -285 42 -411
31 -70 30 -79 -7 -122 -75 -85 -115 -235 -90 -330 11 -39 14 -42 39 -36 15 4
33 11 40 17 9 7 16 7 24 -1 8 -8 17 -8 30 -1 17 9 18 3 18 -129 0 -130 -2
-142 -26 -188 -14 -27 -33 -57 -41 -66 -15 -17 -14 -18 4 -18 11 0 39 7 62 15
37 13 42 13 48 -1 11 -30 -4 -140 -26 -182 -27 -52 -14 -54 54 -7 27 19 51 32
53 31 1 -2 3 -35 3 -74 0 -51 -6 -85 -20 -118 -12 -26 -19 -49 -17 -52 3 -2
23 10 45 27 l39 31 -5 -77 c-7 -94 -33 -168 -80 -229 -19 -25 -32 -48 -29 -52
3 -3 23 0 45 6 21 7 41 12 44 12 3 0 -1 -20 -10 -45 -8 -25 -19 -45 -24 -45
-20 0 -56 -53 -110 -166 -31 -67 -62 -125 -68 -129 -6 -3 -11 -14 -11 -24 0
-12 -81 -87 -217 -202 -382 -324 -488 -424 -512 -482 -30 -72 -36 -164 -17
-286 9 -58 16 -168 16 -245 0 -78 3 -158 6 -179 l7 -37 894 0 c712 0 894 3
891 13 -3 6 -12 35 -21 62 -149 479 -208 645 -273 779 -40 81 -41 95 -10 163
23 48 96 156 103 150 3 -4 49 -176 73 -277 10 -41 30 -118 44 -170 14 -53 37
-171 51 -263 13 -93 37 -233 52 -313 l28 -144 191 0 191 0 -13 80 c-18 110
-114 496 -173 687 -16 54 -32 118 -36 143 -3 25 -16 80 -27 123 -20 72 -21 79
-5 94 15 16 20 10 62 -83 26 -54 55 -108 64 -119 10 -11 22 -45 25 -75 4 -30
21 -122 37 -205 48 -242 89 -495 89 -549 0 -28 3 -61 6 -73 l6 -23 390 0 389
0 -6 38 c-4 20 -13 73 -21 117 -8 44 -19 170 -25 280 -9 188 -22 338 -36 395
-3 14 -16 46 -29 72 -18 35 -32 49 -57 57 -73 24 -410 271 -401 294 7 19 -11
37 -135 133 -63 48 -145 119 -183 158 -56 58 -68 76 -68 103 0 35 -28 99 -61
142 -22 27 -26 93 -6 86 9 -4 11 8 8 46 l-3 51 24 -16 c24 -16 24 -16 21 11
-3 16 2 37 11 48 l15 20 15 -20 c16 -20 16 -20 43 10 14 17 29 30 32 31 3 0
19 6 34 12 16 7 37 12 47 12 37 0 152 50 217 94 130 87 198 173 286 357 16 32
43 69 67 88 22 17 40 38 40 46 0 9 22 21 58 30 31 9 100 29 152 45 52 15 156
42 230 60 74 18 143 39 153 48 19 17 24 47 5 36 -7 -5 -8 -3 -4 5 5 7 2 25 -4
42 -9 22 -19 29 -39 29 -27 0 -285 -72 -471 -131 l-95 -30 -14 20 c-16 25 -57
28 -87 6 -20 -13 -22 -12 -39 26 -35 77 -143 157 -255 190 -25 7 -47 14 -49
15 -1 2 8 18 22 36 14 18 36 56 51 85 23 47 29 52 63 55 35 3 38 6 38 33 0 22
-6 33 -22 40 -14 6 -23 19 -23 31 0 17 8 23 39 28 66 10 85 66 22 66 -40 0
-61 9 -61 27 0 7 -22 36 -50 64 -27 27 -50 55 -50 62 0 7 -7 23 -16 35 -9 13
-14 32 -11 42 5 18 3 18 -28 3 -36 -17 -83 -10 -55 7 8 6 25 10 37 10 12 0 25
4 28 10 10 15 -15 131 -38 178 -30 63 -152 170 -263 232 -181 101 -311 137
-512 145 -74 2 -131 10 -154 20 -21 8 -39 15 -40 14 -2 0 -10 -3 -18 -6z
m1063 -724 c26 -13 77 -60 77 -70 0 -9 -63 -20 -135 -22 -51 -2 -65 -6 -90
-30 -16 -15 -45 -32 -62 -38 -18 -6 -33 -15 -33 -19 0 -14 77 17 116 46 32 25
39 27 74 17 29 -7 46 -6 72 4 29 12 37 12 66 -1 18 -9 51 -16 72 -16 29 0 40
-4 40 -15 0 -19 -41 -29 -88 -21 -38 7 -51 7 -157 3 -50 -2 -68 -8 -108 -36
-52 -36 -129 -64 -151 -55 -8 3 -25 -2 -38 -10 -19 -13 -54 -16 -174 -15 -279
2 -313 0 -340 -18 -15 -9 -42 -16 -61 -15 -18 2 -54 -6 -80 -18 -52 -23 -74
-25 -91 -8 -31 31 7 59 100 72 29 5 60 18 85 37 37 30 40 31 110 24 49 -4 83
-3 107 6 30 11 46 10 105 -5 38 -10 77 -16 87 -14 14 4 12 7 -11 12 -16 4 -53
13 -81 21 -65 19 -94 19 -122 -1 -19 -13 -31 -14 -67 -5 -24 6 -55 11 -68 11
-31 0 -83 -26 -91 -45 -3 -10 -19 -15 -46 -15 -46 0 -51 16 -24 72 38 78 145
119 260 100 35 -6 103 -28 153 -50 187 -84 238 -79 346 32 46 47 85 78 106 85
47 13 116 13 142 0z m81 -182 c27 -20 17 -50 -18 -54 -16 -2 -37 -8 -47 -14
-27 -14 -29 -12 -29 26 0 50 52 73 94 42z m-1457 -22 c61 -26 65 -33 41 -66
-12 -16 -33 -36 -46 -45 -22 -15 -25 -14 -68 26 -48 44 -80 60 -121 60 -31 0
-23 11 20 27 46 17 132 16 174 -2z m-140 -57 c40 -20 85 -70 136 -151 19 -29
14 -50 -21 -89 -13 -16 -13 -18 2 -24 9 -3 26 -4 37 -1 15 4 19 2 15 -10 -3
-8 -6 -21 -6 -29 0 -20 -16 -17 -41 9 -25 26 -69 119 -69 147 0 10 -12 32 -26
49 -31 37 -79 42 -115 12 -33 -27 -19 -35 24 -15 33 16 38 16 60 1 16 -10 29
-35 40 -74 9 -32 26 -73 37 -91 11 -18 20 -36 20 -41 0 -14 -49 -31 -88 -31
-64 0 -83 42 -35 79 31 25 23 40 -11 21 -33 -17 -51 -62 -37 -88 24 -45 124
-51 175 -11 20 16 26 17 36 5 13 -17 -5 -59 -39 -90 -12 -11 -21 -25 -21 -33
0 -18 50 -17 78 3 12 8 22 11 22 6 0 -14 -53 -57 -93 -75 -43 -19 -92 -23 -82
-6 4 6 9 31 11 56 4 38 2 45 -16 50 -11 3 -20 14 -20 24 0 14 -7 19 -30 19
-20 0 -30 5 -30 15 0 17 -27 20 -50 5 -9 -6 -17 -5 -21 2 -4 7 -14 8 -25 3
-11 -5 -23 -9 -29 -10 -5 0 -15 -4 -22 -8 -17 -11 -27 50 -20 129 6 79 43 159
102 220 49 52 83 57 152 22z m1316 -2 c3 -7 0 -19 -6 -25 -14 -14 -30 -15 -22
-1 4 7 -2 9 -19 4 -35 -8 -34 12 2 24 37 14 39 14 45 -2z m267 9 c0 -3 -16
-11 -35 -19 -19 -9 -39 -25 -45 -38 -8 -22 -9 -22 -9 -2 -1 13 -9 24 -22 27
-26 7 -69 -8 -69 -24 0 -13 -49 -4 -65 12 -7 7 -4 8 8 3 9 -3 23 -1 31 5 8 6
44 14 82 16 37 2 72 9 78 15 10 10 46 14 46 5z m79 -20 c3 -20 3 -20 -17 -2
-12 11 -26 16 -31 12 -6 -3 -11 -1 -11 5 0 21 55 7 59 -15z m-429 -22 c0 -8
-7 -21 -15 -30 -25 -25 -14 -46 25 -51 19 -2 42 -9 50 -16 50 -42 141 -46 217
-9 48 23 47 19 -2 -47 -23 -31 -34 -36 -93 -46 -55 -9 -70 -9 -83 2 -26 23
-93 17 -127 -11 -25 -20 -34 -23 -60 -15 -39 10 -92 -3 -116 -29 -16 -18 -19
-18 -46 -3 l-28 16 34 40 c19 22 34 43 34 48 0 4 8 8 19 8 25 0 52 41 40 62
-5 9 -20 19 -34 22 -18 5 -25 13 -25 30 0 29 17 37 67 29 53 -9 71 -29 33 -37
-17 -3 -30 -9 -30 -14 0 -5 18 -4 40 1 37 10 39 12 23 29 -18 20 -18 20 17 34
30 13 60 7 60 -13z m381 11 c2 2 10 -2 17 -10 11 -12 5 -13 -33 -7 -31 4 -45
2 -45 -6 0 -6 8 -11 17 -11 14 0 12 -4 -7 -25 -56 -59 -161 -82 -236 -50 -29
12 -34 18 -29 36 6 18 5 19 -13 10 -24 -13 -42 -14 -42 -3 0 11 74 41 85 34 6
-4 17 -7 25 -9 8 -1 16 -7 18 -12 6 -18 30 -12 37 8 10 32 65 37 65 6 0 -21
28 -26 35 -5 7 23 76 59 91 48 6 -4 13 -6 15 -4z m-648 -9 c36 -6 38 -8 35
-38 -3 -29 0 -32 24 -32 16 -1 32 -5 37 -10 6 -7 -5 -10 -32 -9 -59 0 -128
-24 -154 -54 -20 -24 -22 -24 -17 -5 5 18 0 22 -33 27 -52 8 -111 0 -131 -17
-22 -18 -54 -10 -50 11 4 20 92 33 173 25 33 -3 45 -1 36 5 -10 8 -11 14 -1
32 6 12 9 32 6 45 -5 19 -1 24 16 28 13 2 30 3 38 1 8 -1 32 -5 53 -9z m-203
-15 c0 -5 -4 -10 -10 -10 -5 0 -10 5 -10 10 0 6 5 10 10 10 6 0 10 -4 10 -10z
m505 0 c-3 -5 -12 -10 -18 -10 -7 0 -6 4 3 10 19 12 23 12 15 0z m-652 -47 c3
-16 5 -29 4 -29 -1 -1 -26 -5 -54 -9 -50 -7 -53 -6 -53 15 0 29 27 49 66 50
27 0 33 -4 37 -27z m-440 -20 c-11 -32 -15 -34 -29 -16 -19 26 -17 33 11 33
19 0 23 -4 18 -17z m321 -8 c3 -9 0 -15 -9 -15 -8 0 -15 7 -15 15 0 8 4 15 9
15 5 0 11 -7 15 -15z m106 -25 c-50 -12 -133 -20 -126 -13 8 9 82 20 126 21
l35 0 -35 -8z m453 -5 c1 -5 -17 -11 -41 -12 -44 -1 -73 -13 -34 -13 30 0 28
-11 -12 -49 -28 -27 -44 -34 -87 -37 -29 -2 -70 -13 -91 -24 -21 -11 -49 -20
-61 -20 -29 0 -126 46 -155 73 l-24 22 29 7 c19 5 9 6 -29 5 -65 -2 -80 14
-17 19 22 2 48 8 58 13 18 10 45 0 39 -14 -1 -5 10 -13 25 -18 23 -7 32 -5 48
12 10 11 25 18 32 15 8 -3 26 0 41 6 29 11 46 2 59 -32 9 -24 36 -23 45 3 5
11 26 29 48 39 41 19 122 22 127 5z m-507 -79 c8 -20 87 -74 120 -81 58 -13
59 -14 32 -43 -14 -15 -37 -44 -51 -65 l-25 -39 -41 37 c-69 62 -115 187 -73
198 29 8 32 7 38 -7z m765 -6 c26 -14 25 -58 -3 -87 -12 -13 -17 -23 -12 -23
18 0 34 17 48 52 15 34 20 37 68 43 63 8 174 -15 227 -47 53 -31 120 -98 143
-142 l20 -39 -84 -84 c-45 -47 -118 -108 -161 -135 -42 -28 -75 -53 -73 -55 2
-3 17 3 33 13 103 63 125 81 257 208 62 59 99 81 123 72 27 -11 13 -35 -27
-46 -30 -8 -56 -29 -110 -89 -58 -63 -88 -87 -158 -123 -110 -58 -197 -86
-292 -96 -71 -8 -73 -9 -37 -16 77 -17 243 39 447 150 24 13 59 24 77 24 18 0
55 9 83 20 60 23 64 14 12 -27 -27 -22 -52 -61 -91 -139 -66 -136 -116 -203
-194 -261 -131 -96 -242 -133 -399 -133 -224 0 -436 108 -544 276 -101 157
-79 395 51 542 42 48 122 92 167 92 44 0 109 -30 118 -56 10 -25 57 -61 67
-50 4 3 -3 13 -15 22 -48 33 -15 91 56 101 34 5 45 1 67 -21 32 -32 37 -33 29
-2 -4 18 1 28 22 45 29 23 55 26 85 11z m1206 -152 c-3 -8 -6 -5 -6 6 -1 11 2
17 5 13 3 -3 4 -12 1 -19z m-513 -178 c4 -8 0 -6 -8 4 -9 11 -15 34 -15 50 1
31 1 31 8 -4 4 -20 11 -42 15 -50z m-54 55 c0 -17 -2 -18 -25 -9 -13 5 -14 8
-3 15 19 13 28 11 28 -6z m-77 -20 c-3 -9 -8 -14 -10 -11 -3 3 -2 9 2 15 9 16
15 13 8 -4z m98 -33 c-6 -2 -11 -10 -11 -18 0 -8 -2 -14 -4 -14 -2 0 -12 -3
-22 -7 -13 -5 -12 -1 5 16 13 13 20 29 17 38 -3 8 -3 20 1 26 4 6 10 0 15 -14
6 -15 5 -25 -1 -27z m-61 -48 c0 -2 -7 -4 -15 -4 -8 0 -15 4 -15 10 0 5 7 7
15 4 8 -4 15 -8 15 -10z m-1781 -907 c18 -15 65 -46 104 -69 70 -40 132 -80
342 -221 55 -37 132 -88 172 -115 l72 -47 -33 -17 c-69 -36 -226 -231 -241
-300 -4 -15 -10 -28 -13 -28 -4 0 -25 33 -47 72 -55 98 -213 342 -261 404 -63
82 -146 179 -156 182 -15 6 -38 73 -38 114 0 21 7 55 15 75 l16 37 18 -30 c10
-16 33 -42 50 -57z m998 -49 c18 -38 21 -68 27 -253 3 -115 11 -250 16 -300 5
-49 12 -119 15 -155 l5 -65 -59 120 c-65 133 -125 210 -171 220 -40 9 -45 20
-22 53 74 104 154 295 156 373 0 31 3 55 6 54 3 -2 15 -23 27 -47z m-207 -429
c0 -3 9 -10 21 -15 17 -8 14 -10 -21 -11 -37 -2 -100 19 -100 32 0 2 22 3 50
2 27 -1 50 -5 50 -8z m-102 -296 c24 -43 52 -87 63 -99 17 -18 19 -36 19 -175
-1 -139 -3 -156 -21 -178 -11 -13 -21 -22 -23 -20 -2 2 -9 38 -15 79 -7 41
-23 109 -36 150 -13 42 -31 111 -39 154 -9 43 -26 104 -36 134 -26 74 -26 77
13 53 20 -12 48 -49 75 -98z m86 -576 c3 -29 5 -86 5 -127 -1 -65 -2 -70 -10
-42 -6 18 -15 77 -22 131 -12 91 -12 98 4 94 11 -3 18 -20 23 -56z"/>
<path d="M2710 3180 c-9 -6 -10 -10 -3 -10 6 0 15 5 18 10 8 12 4 12 -15 0z"/>
<path d="M2675 3171 c-6 -5 -19 -11 -30 -14 -19 -4 -19 -5 1 -6 12 0 27 6 34
14 14 16 10 20 -5 6z"/>
<path d="M3004 3009 c-9 -15 12 -33 30 -26 9 4 16 13 16 22 0 17 -35 21 -46 4z"/>
<path d="M2843 2954 c-3 -8 2 -23 11 -32 14 -15 18 -15 31 -1 9 9 13 23 9 32
-8 21 -43 22 -51 1z"/>
<path d="M2586 861 c-25 -27 -17 -55 17 -59 34 -4 59 37 37 63 -17 20 -33 19
-54 -4z m44 -22 c0 -18 -2 -19 -15 -9 -8 7 -15 16 -15 21 0 5 7 9 15 9 9 0 15
-9 15 -21z"/>
</g>
</svg>
