<?xml version="1.0" standalone="no"?>
<!DOCTYPE svg PUBLIC "-//W3C//DTD SVG 20010904//EN"
 "http://www.w3.org/TR/2001/REC-SVG-20010904/DTD/svg10.dtd">
<svg version="1.0" xmlns="http://www.w3.org/2000/svg"
 width="501.000000pt" height="498.000000pt" viewBox="0 0 501.000000 498.000000"
 preserveAspectRatio="xMidYMid meet">

<g transform="translate(0.000000,498.000000) scale(0.100000,-0.100000)"
fill="#000000" stroke="none">
<path d="M2434 4650 c-12 -5 -28 -18 -36 -29 -8 -12 -69 -45 -134 -75 -237
-106 -284 -134 -360 -210 -53 -55 -77 -88 -100 -141 l-29 -70 0 -312 0 -312
-39 -15 c-82 -32 -232 -123 -285 -172 -74 -69 -68 -83 33 -76 42 2 76 2 76 -1
0 -3 -10 -22 -23 -40 -41 -60 -60 -140 -55 -228 5 -84 17 -111 41 -91 8 7 17
9 20 6 3 -3 12 -2 19 2 7 5 28 9 46 10 l32 1 0 -124 c0 -132 -8 -165 -57 -236
-14 -20 -23 -40 -20 -43 3 -4 27 1 53 10 26 9 51 16 56 16 17 0 8 -138 -12
-185 -11 -26 -20 -49 -20 -51 0 -7 98 45 105 56 27 44 35 -87 9 -155 -33 -86
-29 -94 24 -50 17 14 32 25 34 25 2 0 3 -28 0 -62 -5 -85 -37 -180 -78 -234
-19 -24 -34 -48 -34 -53 0 -11 69 4 83 18 22 22 29 10 22 -36 -7 -50 -38 -111
-77 -153 -39 -42 -68 -82 -68 -94 0 -8 13 -10 36 -8 l36 4 -16 -30 c-8 -16
-26 -32 -38 -36 -13 -3 -43 -24 -68 -47 -25 -22 -82 -63 -126 -90 -93 -56
-108 -71 -101 -99 4 -14 -12 -37 -57 -85 -62 -64 -67 -75 -37 -75 41 -1 42
-17 4 -57 -21 -22 -49 -56 -63 -76 -29 -42 -99 -96 -138 -106 -34 -9 -39 -34
-13 -60 l20 -20 -30 -49 c-22 -36 -34 -72 -44 -138 -16 -107 -23 -126 -75
-206 -54 -83 -52 -95 11 -62 17 8 33 13 36 11 2 -3 -10 -38 -28 -79 -37 -83
-47 -150 -30 -201 l12 -36 202 2 202 2 6 110 c4 78 12 123 26 155 37 83 47
186 27 282 -7 34 -17 35 -52 3 -37 -34 -45 -31 -22 8 11 18 29 63 41 101 11
39 28 80 36 93 13 20 13 23 1 23 -8 0 -25 -11 -38 -25 -13 -14 -30 -25 -39
-25 -9 0 -1 12 21 30 24 20 50 59 76 114 44 93 82 129 157 151 43 14 46 13 70
-11 50 -50 129 -150 182 -230 l53 -82 3 -113 c2 -63 7 -123 11 -134 7 -20 7
-20 -8 -1 -24 30 -30 13 -15 -44 11 -42 11 -63 -1 -123 -20 -111 -23 -154 -11
-189 14 -40 10 -43 -24 -17 l-27 22 7 -44 c9 -55 12 -59 36 -59 57 0 159 88
202 175 104 210 27 569 -177 820 -23 29 -29 40 -14 27 45 -40 166 -218 193
-283 60 -143 78 -275 54 -419 -22 -143 -68 -230 -151 -290 l-41 -30 712 0 713
0 -6 58 c-5 41 -2 78 13 132 10 41 22 102 26 135 3 33 9 75 12 93 5 30 7 32
21 18 10 -10 18 -44 22 -103 3 -48 12 -98 19 -110 11 -21 10 -23 -14 -23 -23
0 -25 -3 -18 -22 4 -13 7 -58 5 -100 -1 -43 2 -78 7 -78 13 0 21 38 21 108 0
55 2 62 19 62 27 0 36 18 18 38 -17 20 -24 51 -33 147 -6 71 -33 123 -57 108
-7 -4 -8 17 -4 63 4 38 7 139 7 224 l1 155 30 -35 c32 -37 79 -125 79 -149 0
-11 -3 -11 -15 -1 -28 23 -27 3 4 -52 37 -65 67 -161 80 -251 5 -37 17 -81 25
-98 20 -39 20 -37 -1 -35 -15 1 -17 -9 -15 -84 1 -47 -2 -111 -6 -143 -6 -40
-5 -56 2 -54 15 5 25 68 25 170 1 86 1 87 26 87 28 0 32 12 11 30 -19 15 -41
86 -56 175 -6 39 -25 101 -41 139 -20 48 -25 72 -18 77 21 13 -26 125 -81 194
-28 36 -49 69 -46 74 3 5 0 22 -8 38 -8 15 -25 60 -36 99 -25 83 -77 148 -152
188 -63 34 -116 68 -161 104 -34 27 -36 32 -20 41 17 9 16 11 -7 27 -68 47
-163 168 -138 176 8 3 6 12 -5 29 -23 36 -54 118 -62 168 -7 41 -6 44 14 38
12 -3 19 -2 16 3 -10 17 -15 90 -6 90 6 0 13 -4 16 -10 10 -16 28 -11 21 6 -7
19 21 77 34 69 6 -4 10 -13 10 -21 0 -23 22 -12 46 24 12 17 24 28 28 25 5 -5
35 26 58 60 3 6 14 11 25 12 10 1 31 7 46 14 16 6 33 11 39 11 6 0 9 3 5 6 -3
3 -32 -2 -64 -12 -32 -9 -106 -19 -165 -22 -202 -9 -396 59 -522 182 -33 34
-69 75 -79 93 -17 31 -17 31 5 26 18 -4 15 0 -10 16 -18 12 -39 21 -47 21 -16
0 -30 18 -20 28 3 4 35 -9 70 -28 61 -33 66 -34 116 -24 47 10 50 10 33 -4
-18 -13 -17 -14 11 -7 38 9 42 10 85 1 33 -7 34 -6 16 9 -11 8 -34 16 -50 16
-30 2 -30 2 -4 6 18 3 52 -8 98 -31 92 -46 122 -46 219 4 84 43 123 49 160 24
21 -15 22 -21 16 -70 -6 -52 -5 -54 33 -96 37 -39 43 -42 104 -46 55 -3 72 0
117 22 59 31 80 63 65 104 -9 25 -14 27 -69 29 -44 1 -62 6 -72 19 -11 16 -8
23 24 56 20 21 57 45 81 55 42 16 47 15 97 -2 91 -30 163 -7 198 64 7 13 21
29 32 35 11 6 23 15 26 20 8 10 29 0 29 -14 0 -4 -16 -17 -35 -28 -22 -14 -44
-41 -64 -79 -67 -132 -197 -253 -346 -324 -44 -21 -77 -38 -72 -38 16 -2 138
59 190 93 72 48 149 126 197 200 76 118 92 138 110 143 39 10 35 57 -6 67 -23
6 -71 -10 -61 -21 3 -2 15 0 26 7 12 6 21 7 21 2 0 -12 -37 -25 -65 -24 -26 1
-75 -17 -97 -36 -10 -8 -18 -12 -18 -9 0 4 -12 2 -27 -4 -42 -16 -134 -29
-159 -23 -29 8 -21 30 14 38 100 24 172 50 172 64 0 11 3 12 14 3 21 -18 62 3
112 56 48 51 62 79 45 96 -9 9 -16 8 -30 0 -17 -10 -23 -7 -47 28 -61 88 -191
187 -287 218 -21 7 -37 16 -35 19 2 4 18 35 36 69 18 35 37 85 43 112 7 35 16
50 30 54 11 3 19 14 19 26 0 12 6 31 13 42 10 17 9 23 -10 38 -12 10 -28 34
-36 53 -8 19 -33 50 -56 70 -22 19 -41 43 -41 52 0 9 -7 19 -16 23 -11 4 -14
13 -9 31 5 20 3 23 -10 18 -15 -5 -16 3 -10 72 5 56 3 100 -9 159 -14 65 -15
90 -6 125 21 84 -14 196 -86 272 -15 15 -63 55 -108 87 -45 32 -108 79 -141
103 -165 119 -262 166 -348 166 -21 0 -46 4 -55 9 -9 5 -27 5 -38 1z m31 -20
c-3 -5 -11 -10 -16 -10 -6 0 -7 5 -4 10 3 6 11 10 16 10 6 0 7 -4 4 -10z m121
-15 c25 -19 1 -19 -41 0 -30 13 -30 13 -4 14 14 1 34 -6 45 -14z m-146 -32
c-1 -5 -10 -24 -20 -43 -38 -69 -56 -112 -65 -154 -3 -15 -16 -41 -28 -58 -20
-27 -22 -40 -19 -135 2 -58 -2 -156 -8 -218 -10 -107 -6 -172 16 -272 6 -29 4
-33 -14 -33 -18 0 -23 12 -38 78 -20 89 -20 90 -6 287 18 236 13 219 139 492
24 54 44 79 43 56z m246 -9 c18 -14 18 -14 -6 -3 -31 14 -36 19 -24 19 6 0 19
-7 30 -16z m-113 -49 c20 -20 37 -40 37 -45 0 -4 23 -25 50 -45 40 -29 58 -53
86 -111 l36 -75 -39 -45 c-64 -76 -73 -95 -73 -151 l0 -52 -74 0 -74 0 -6 37
c-17 101 -23 238 -16 337 5 61 6 132 3 159 -6 45 -5 48 13 38 10 -5 36 -26 57
-47z m53 19 c-3 -8 -1 -14 5 -14 14 0 39 -26 39 -39 0 -6 5 -11 11 -11 12 0
39 -25 39 -37 0 -4 9 -14 21 -21 22 -14 54 -78 63 -124 8 -48 -9 -31 -45 45
-36 77 -46 90 -69 95 -8 2 -20 10 -26 18 -6 7 -15 14 -20 14 -13 0 -45 56 -37
64 3 3 -1 6 -9 6 -9 0 -20 6 -26 13 -9 10 -4 12 24 9 25 -3 34 -8 30 -18z
m-186 -95 c-19 -74 -21 -106 -18 -274 l3 -189 -35 -7 c-19 -4 -45 -10 -57 -14
-20 -7 -21 -5 -13 31 5 21 8 96 8 166 -1 122 0 129 25 166 15 21 27 47 27 58
0 23 73 170 78 156 1 -5 -7 -47 -18 -93z m251 84 c26 -19 30 -22 132 -84 91
-56 142 -119 96 -119 -6 0 -28 -9 -50 -19 l-40 -20 -9 25 c-6 14 -13 37 -16
51 -4 15 -41 62 -82 105 -71 74 -84 99 -31 61z m60 0 c13 -17 13 -17 -6 -3
-11 8 -22 16 -24 17 -2 2 0 3 6 3 6 0 17 -8 24 -17z m-488 -30 c-10 -16 -23
-34 -30 -41 -6 -6 -15 -22 -19 -34 -8 -27 -37 -69 -83 -122 -56 -64 -72 -115
-81 -250 -8 -122 -21 -176 -40 -176 -6 0 -32 -20 -59 -45 -26 -25 -61 -48 -78
-51 l-30 -6 -7 134 c-5 114 -4 142 12 198 38 129 89 205 201 295 57 46 196
123 224 125 4 0 0 -12 -10 -27z m227 -43 c0 -11 -4 -20 -9 -20 -5 0 -7 9 -4
20 3 11 7 20 9 20 2 0 4 -9 4 -20z m532 -109 c26 -19 46 -37 43 -39 -8 -8
-100 42 -122 67 -47 54 -22 45 79 -28z m-548 -81 c-1 -77 2 -140 7 -140 5 0 9
-9 9 -20 0 -11 -4 -20 -10 -20 -5 0 -6 7 -3 17 4 11 3 14 -5 9 -9 -5 -12 15
-14 76 -3 144 2 218 14 218 2 0 2 -63 2 -140z m-260 56 c-3 -9 -10 -16 -15
-16 -5 0 -9 -8 -10 -17 0 -10 -3 -13 -6 -6 -2 7 4 23 14 37 20 27 27 28 17 2z
m827 -30 c30 -13 68 -39 84 -57 22 -25 23 -28 5 -12 -40 35 -131 73 -160 67
-57 -12 -100 -38 -125 -75 -14 -22 -29 -39 -34 -39 -5 0 -19 -16 -32 -36 -21
-35 -22 -41 -15 -206 4 -93 10 -176 13 -185 4 -11 0 -14 -18 -11 -22 3 -25 10
-36 88 -6 47 -12 126 -14 176 -2 90 -1 93 35 153 42 68 104 124 162 145 55 20
74 19 135 -8z m15 -61 c69 -46 83 -85 66 -185 -10 -56 -9 -77 3 -117 22 -71
22 -72 -42 -52 -32 10 -70 20 -84 23 -23 5 -29 14 -43 73 -10 36 -30 94 -46
127 -50 108 -49 124 15 152 48 21 74 16 131 -21z m-856 -226 c-15 -70 -19 -76
-52 -84 -26 -7 -26 -6 -23 32 2 21 6 73 10 116 4 56 14 95 33 134 l27 55 8
-98 c6 -68 5 -117 -3 -155z m-30 237 c0 -3 -4 -8 -10 -11 -5 -3 -10 -1 -10 4
0 6 5 11 10 11 6 0 10 -2 10 -4z m1026 -132 c3 -25 3 -62 -1 -82 -4 -20 -7
-46 -6 -57 11 -264 12 -329 5 -322 -5 5 -9 52 -9 105 -1 54 -8 127 -17 163
-14 59 -14 71 0 129 14 58 14 67 -1 109 -16 45 -16 46 3 23 10 -13 22 -43 26
-68z m-361 -26 c10 -29 21 -57 26 -63 4 -5 10 -31 14 -57 l7 -48 -44 0 -45 0
-7 53 c-8 73 -8 112 4 141 14 38 24 32 45 -26z m-335 -54 c0 -19 -5 -34 -11
-34 -6 0 -9 9 -6 20 3 11 1 20 -3 20 -4 0 -6 9 -3 20 8 30 23 13 23 -26z
m-393 -26 c-2 -13 -4 -3 -4 22 0 25 2 35 4 23 2 -13 2 -33 0 -45z m483 -77 c0
-27 2 -56 5 -63 4 -11 -14 -18 -72 -30 -112 -24 -197 -36 -205 -31 -5 2 -8 32
-8 67 l0 63 63 16 c64 17 103 23 175 25 l42 2 0 -49z m93 -63 c22 -144 22
-138 -12 -138 -33 0 -36 8 -49 163 l-8 87 26 0 c25 0 26 -3 43 -112z m339 6
c31 -7 73 -20 93 -28 l35 -15 0 -70 c0 -39 -4 -71 -9 -71 -4 0 -37 9 -72 21
-35 11 -92 23 -126 26 -58 5 -63 8 -63 30 0 13 7 40 15 60 26 61 3 62 -54 4
l-51 -52 0 61 0 61 88 -6 c48 -4 113 -13 144 -21z m-418 -90 c4 -19 9 -41 12
-48 4 -9 -31 -19 -128 -34 -72 -12 -135 -19 -139 -15 -4 5 -11 25 -14 45 -8
45 -14 42 120 67 145 27 142 27 149 -15z m255 -14 c-12 -52 -13 -180 -1 -229
15 -68 40 -42 43 44 l2 40 7 -40 c5 -22 14 -59 21 -82 11 -34 10 -47 -1 -70
-7 -15 -14 -32 -14 -38 -1 -5 -20 -11 -44 -13 -33 -2 -63 6 -130 37 -153 70
-206 84 -303 79 -89 -4 -126 -20 -171 -73 -19 -22 -58 -117 -58 -141 0 -9 -13
-29 -30 -46 -35 -35 -36 -42 -11 -67 11 -11 17 -22 13 -25 -3 -3 4 -16 15 -29
11 -12 23 -42 26 -67 8 -58 39 -127 83 -186 36 -47 36 -48 19 -76 -9 -16 -19
-56 -22 -89 -5 -49 -9 -59 -24 -59 -31 0 -24 -42 11 -62 17 -10 30 -25 30 -37
0 -11 3 -26 6 -34 4 -12 -2 -15 -28 -14 -27 2 -34 -2 -36 -21 -3 -17 3 -25 26
-33 19 -6 35 -22 43 -41 30 -73 119 -159 224 -218 107 -61 300 -97 440 -83
l60 6 -19 -21 c-10 -12 -22 -19 -27 -17 -4 3 -15 -10 -25 -30 -19 -40 -25 -42
-42 -15 -18 29 -28 25 -48 -21 -17 -36 -20 -39 -31 -23 -7 10 -13 28 -13 41 0
34 -28 28 -43 -9 l-14 -33 -16 32 c-34 64 -73 83 -79 37 l-3 -25 -39 35 c-45
42 -71 48 -60 14 6 -23 6 -23 -22 2 -39 35 -91 70 -102 70 -5 0 -16 -10 -24
-22 -14 -21 -14 -21 -36 14 -13 20 -29 59 -38 87 -15 52 -34 68 -34 29 0 -12
-7 -30 -17 -40 -15 -17 -17 -15 -34 35 -10 28 -18 64 -19 79 0 44 -16 41 -44
-7 -15 -25 -29 -45 -31 -45 -2 0 -1 24 2 54 4 37 0 69 -11 102 -9 26 -16 65
-16 86 0 47 -27 54 -36 8 -4 -16 -13 -35 -22 -42 -14 -11 -15 -10 -8 7 13 34
18 158 8 215 -7 41 -11 50 -16 35 -28 -74 -27 -74 -42 -25 -7 25 -11 52 -8 62
11 35 -17 28 -32 -9 -24 -60 -48 -103 -66 -120 -22 -20 -22 -18 1 48 10 31 22
80 26 110 4 30 13 64 21 76 33 53 8 57 -49 8 -41 -35 -64 -40 -34 -7 26 29 55
103 63 160 7 54 1 64 -23 35 -12 -16 -13 -14 -7 17 3 19 15 49 25 66 10 17 19
39 19 48 0 18 -25 22 -35 6 -3 -5 -11 -10 -16 -10 -6 0 5 19 25 41 19 23 42
62 50 87 18 52 61 112 81 112 15 0 36 19 60 53 14 20 16 20 32 4 16 -16 15
-19 -19 -54 -20 -21 -47 -57 -62 -80 -14 -23 -39 -52 -56 -64 -37 -28 -38 -37
-5 -45 29 -7 27 -26 -11 -113 -13 -29 -24 -55 -24 -57 0 -2 13 -4 28 -4 25 0
31 -6 42 -40 13 -39 55 -89 66 -78 3 3 -4 28 -16 54 -17 37 -21 58 -16 96 4
30 3 48 -4 48 -18 0 -10 40 25 124 7 16 5 18 -13 14 -16 -5 -10 8 29 57 27 35
65 77 84 94 19 17 35 34 35 38 0 16 78 36 158 40 45 3 82 8 82 12 0 5 37 -7
83 -25 85 -35 107 -40 107 -25 0 9 -94 51 -114 51 -7 0 -33 13 -59 30 -39 25
-49 27 -53 15 -5 -13 -11 -12 -40 6 -25 15 -34 17 -34 7 0 -7 -24 -21 -53 -31
-160 -56 -197 -54 -144 8 19 22 42 30 162 55 77 15 172 31 210 35 39 4 78 9
89 12 11 3 16 1 12 -5 -7 -12 20 -122 33 -135 17 -17 33 5 29 39 -4 30 -2 32
12 19 28 -25 38 -17 45 33 9 65 59 201 70 190 2 -2 -1 -24 -6 -48z m-119 -101
c0 -11 -4 -17 -10 -14 -5 3 -10 13 -10 21 0 8 5 14 10 14 6 0 10 -9 10 -21z
m174 6 c-4 -8 -10 -15 -15 -15 -5 0 -9 7 -9 15 0 8 7 15 15 15 9 0 12 -6 9
-15z m138 -11 c33 -10 57 -22 55 -28 -2 -6 -13 -9 -23 -7 -10 2 -25 4 -32 5
-19 2 -68 -112 -54 -126 8 -8 21 -1 47 26 21 20 44 36 53 36 8 0 23 7 32 15
21 19 80 37 80 25 0 -5 9 -12 20 -15 34 -11 22 -22 -29 -29 -57 -7 -131 -53
-182 -110 -17 -21 -46 -44 -63 -53 -31 -16 -31 -15 -13 4 21 24 22 97 2 133
-17 30 -19 66 -4 109 13 36 27 38 111 15z m227 -129 c30 -15 81 -70 81 -86 0
-5 -21 -9 -47 -9 -80 0 -83 -17 -4 -22 49 -2 76 -9 88 -20 15 -16 15 -18 -2
-24 -10 -4 -52 -2 -94 5 -86 14 -106 9 -235 -54 -81 -40 -112 -39 -101 3 5 22
4 24 -9 13 -9 -8 -16 -21 -16 -31 0 -21 -41 -50 -71 -50 -25 0 -59 26 -59 45
0 13 -21 25 -43 25 -6 0 -1 -7 11 -16 45 -31 21 -39 -114 -40 -149 0 -255 -19
-368 -64 -42 -16 -85 -30 -96 -30 -43 0 -9 50 57 84 57 29 179 56 289 66 l109
9 -105 -4 c-102 -4 -215 -22 -274 -45 -16 -6 -31 -8 -34 -5 -13 13 33 118 65
145 84 74 208 66 423 -27 93 -40 110 -45 157 -40 59 6 87 23 180 107 84 76
151 97 212 65z m78 -187 c32 -15 47 -46 17 -33 -11 4 -28 10 -39 12 -19 5 -19
5 -2 -9 18 -13 18 -16 2 -54 -35 -83 -110 -134 -200 -134 -51 0 -58 3 -95 40
-45 45 -49 56 -20 65 11 4 18 11 15 16 -4 5 -14 5 -25 -1 -10 -5 -24 -10 -31
-10 -28 0 20 32 122 81 99 48 107 50 167 45 35 -3 75 -11 89 -18z m-1451 -25
c21 -10 39 -24 42 -31 2 -7 -15 -31 -38 -54 l-41 -41 -44 43 c-27 26 -63 49
-96 60 l-53 18 50 16 c58 19 127 14 180 -11z m-141 -57 c27 -16 60 -52 93 -99
l52 -75 -26 -37 c-30 -45 -20 -66 21 -47 25 12 26 11 19 -10 -14 -47 -19 -50
-43 -27 -24 22 -71 113 -71 137 0 31 -33 81 -61 92 -32 14 -77 2 -100 -26 -18
-22 -2 -29 25 -10 31 20 70 21 85 2 6 -7 20 -39 31 -71 11 -32 29 -74 40 -92
11 -19 20 -36 20 -38 0 -3 -13 -11 -30 -20 -39 -20 -83 -19 -110 3 -25 20 -20
43 16 67 24 15 32 35 15 35 -5 0 -23 -12 -40 -26 -36 -30 -40 -61 -11 -92 27
-29 102 -30 147 -2 30 18 63 18 63 0 0 -11 -50 -83 -67 -97 -37 -29 25 -45 65
-17 32 22 38 11 10 -16 -27 -26 -115 -70 -140 -70 -18 0 -20 23 -5 47 10 15
-2 65 -17 78 -7 6 -15 18 -19 28 -4 10 -17 17 -32 17 -14 0 -25 5 -25 11 0 8
-12 10 -35 6 -19 -3 -37 -1 -41 4 -4 6 -14 5 -27 -3 -40 -24 -60 -17 -71 26
-19 83 30 229 104 307 32 34 43 39 80 39 28 0 58 -9 85 -24z m1197 -3 c-12
-22 -5 -43 14 -43 8 0 14 -6 14 -14 0 -22 56 -73 95 -86 57 -19 132 -6 183 30
41 29 43 29 37 9 -4 -13 -16 -36 -26 -53 -18 -30 -21 -31 -91 -31 -40 -1 -85
-4 -99 -9 -23 -6 -28 -4 -39 24 -31 75 -114 68 -144 -12 -21 -56 -24 -100 -8
-105 8 -3 12 9 12 42 0 83 47 133 99 106 30 -16 46 -85 33 -141 -9 -40 -9 -43
4 -26 8 11 14 35 14 53 0 40 21 48 125 48 84 -1 153 -23 232 -74 60 -39 155
-131 183 -176 14 -25 14 -27 -10 -45 -14 -11 -20 -20 -13 -20 7 0 28 14 47 30
19 17 37 27 40 22 11 -18 -34 -70 -79 -92 -41 -20 -57 -22 -123 -17 -98 7
-125 -3 -207 -76 -122 -109 -168 -112 -317 -19 -32 20 -54 14 -193 -45 -82
-35 -98 -38 -180 -37 -100 0 -162 19 -250 76 -67 43 -38 48 49 8 94 -42 118
-37 27 6 l-74 35 6 58 c12 142 129 257 271 268 59 5 63 4 79 -21 19 -29 97
-89 105 -81 3 3 -15 23 -41 45 -41 37 -87 109 -87 138 0 20 39 52 64 52 27 0
111 -42 144 -73 12 -11 22 -16 22 -10 0 16 -94 83 -115 83 -13 0 -16 5 -11 23
4 12 9 37 13 55 4 23 11 32 25 32 17 0 19 5 16 30 -4 29 5 40 17 20 10 -17 68
-11 100 10 37 25 48 25 37 3z m-179 -18 c32 -13 20 -35 -20 -36 -21 0 -32 -3
-25 -6 14 -6 16 -42 2 -77 -7 -20 -17 -26 -38 -26 -39 0 -62 -20 -66 -55 -3
-26 -9 -32 -47 -43 -53 -16 -146 -9 -195 14 -49 23 -135 103 -111 104 9 0 17
4 17 10 0 6 -18 7 -45 3 -36 -4 -45 -3 -45 9 0 20 139 75 250 99 63 14 113 18
195 15 61 -2 118 -7 128 -11z m-854 -81 c2 -2 0 -14 -6 -26 -10 -22 -10 -22
-27 10 l-17 34 23 -7 c13 -4 25 -9 27 -11z m345 -79 c38 -58 152 -114 238
-116 l33 -1 -30 -10 c-50 -18 -122 -67 -140 -94 l-17 -26 -23 22 c-35 33 -88
148 -93 202 -5 54 7 62 32 23z m376 -105 c0 -4 -9 -6 -21 -3 -15 4 -17 8 -8
14 14 8 29 3 29 -11z m833 -324 c8 -21 -81 -45 -94 -25 -19 30 -10 39 40 39
32 0 51 -5 54 -14z m70 7 c-7 -2 -19 -2 -25 0 -7 3 -2 5 12 5 14 0 19 -2 13
-5z m-193 -32 c0 -25 -5 -30 -36 -35 -19 -4 -43 -10 -52 -12 -9 -3 3 13 28 35
25 23 48 41 53 41 4 0 7 -13 7 -29z m250 -41 c0 -23 -45 -70 -66 -70 -9 0 -14
12 -14 30 0 25 6 34 33 45 43 19 47 18 47 -5z m-672 -16 c33 -23 27 -41 -15
-46 -48 -6 -60 -2 -66 23 -4 14 1 23 16 29 32 13 40 12 65 -6z m560 -37 c4
-19 -32 -23 -58 -7 -12 7 -10 11 10 19 31 12 44 9 48 -12z m19 -9 c-3 -7 -5
-2 -5 12 0 14 2 19 5 13 2 -7 2 -19 0 -25z m-1107 -21 c0 -4 -12 -4 -27 -1
-37 9 -43 13 -43 28 0 11 8 10 35 -3 19 -9 34 -19 35 -24z m420 28 c0 -11 -11
-15 -42 -15 l-43 1 30 14 c40 18 55 18 55 0z m316 -71 c-5 -13 -10 -14 -18 -6
-6 6 -8 18 -4 28 5 13 10 14 18 6 6 -6 8 -18 4 -28z m-41 16 c3 -5 -1 -10 -9
-10 -9 0 -16 5 -16 10 0 6 4 10 9 10 6 0 13 -4 16 -10z m85 -23 c0 -5 -4 -5
-10 -2 -5 3 -10 14 -10 23 0 15 2 15 10 2 5 -8 10 -19 10 -23z m45 13 c-14
-16 -20 -17 -26 -8 -5 8 -2 16 9 20 30 12 35 8 17 -12z m-825 -20 c0 -5 -4
-10 -9 -10 -6 0 -13 5 -16 10 -3 6 1 10 9 10 9 0 16 -4 16 -10z m63 -7 c-7 -2
-19 -2 -25 0 -7 3 -2 5 12 5 14 0 19 -2 13 -5z m677 -18 c0 -8 -7 -15 -15 -15
-8 0 -15 7 -15 15 0 8 7 15 15 15 8 0 15 -7 15 -15z m44 -1 c4 -10 1 -14 -6
-12 -15 5 -23 28 -10 28 5 0 13 -7 16 -16z m-484 -4 c0 -5 -7 -7 -15 -4 -8 4
-15 8 -15 10 0 2 7 4 15 4 8 0 15 -4 15 -10z m80 -11 c0 -16 -5 -20 -27 -17
-17 2 -29 10 -31 21 -3 13 3 17 27 17 25 0 31 -4 31 -21z m360 -33 c0 -8 -4
-18 -10 -21 -5 -3 -10 3 -10 14 0 12 5 21 10 21 6 0 10 -6 10 -14z m53 8 c8
-8 -16 -33 -25 -27 -13 7 -9 33 5 33 8 0 16 -3 20 -6z m42 -14 c3 -5 -1 -10
-9 -10 -9 0 -16 5 -16 10 0 6 4 10 9 10 6 0 13 -4 16 -10z m95 -10 c0 -5 -2
-10 -4 -10 -3 0 -8 5 -11 10 -3 6 -1 10 4 10 6 0 11 -4 11 -10z m-140 -35 c0
-8 -7 -15 -15 -15 -8 0 -15 7 -15 15 0 8 7 15 15 15 8 0 15 -7 15 -15z m50 0
c0 -8 -7 -15 -15 -15 -8 0 -15 7 -15 15 0 8 7 15 15 15 8 0 15 -7 15 -15z m50
0 c0 -8 -7 -15 -15 -15 -8 0 -15 7 -15 15 0 8 7 15 15 15 8 0 15 -7 15 -15z
m50 0 c0 -8 -7 -15 -15 -15 -8 0 -15 7 -15 15 0 8 7 15 15 15 8 0 15 -7 15
-15z m-100 -39 c0 -11 -19 -15 -25 -6 -3 5 1 10 9 10 9 0 16 -2 16 -4z m-1054
-151 c-7 -29 0 -32 25 -9 10 9 35 18 54 19 31 2 38 -2 51 -28 9 -16 32 -46 52
-66 35 -34 37 -35 40 -14 2 14 8 20 17 17 7 -3 16 3 20 15 6 20 8 20 45 -12
22 -17 45 -44 51 -59 13 -32 24 -35 38 -10 7 10 11 12 11 4 0 -8 7 -11 19 -7
12 3 30 -3 49 -20 37 -31 78 -35 62 -6 -19 36 -10 34 30 -8 39 -40 75 -55 64
-27 -3 8 -1 17 5 21 7 4 11 -7 11 -30 0 -25 -4 -34 -11 -29 -13 8 -8 -104 7
-141 7 -20 7 -20 -14 -1 -26 23 -29 8 -6 -35 8 -17 14 -40 12 -52 -3 -19 -6
-18 -26 16 -24 37 -58 64 -69 53 -8 -8 61 -148 81 -165 14 -12 16 -11 16 3 0
9 4 16 9 16 6 0 11 15 13 33 l3 32 23 -43 c13 -24 51 -72 85 -106 53 -54 64
-77 20 -43 -21 16 -15 -18 6 -37 18 -16 18 -20 5 -51 -8 -19 -14 -46 -14 -60
0 -32 -9 -32 -55 5 -42 33 -82 82 -96 118 -5 12 -13 22 -19 22 -40 0 52 -125
134 -180 39 -27 52 -40 39 -40 -26 0 -35 -10 -23 -25 7 -8 7 -29 -1 -65 l-11
-52 -24 23 c-29 27 -39 19 -35 -29 3 -32 1 -34 -13 -23 -21 17 -49 6 -42 -16
3 -10 2 -24 -3 -31 -5 -9 -11 0 -19 26 -9 28 -22 44 -47 57 -40 22 -53 15 -37
-20 7 -14 12 -45 12 -68 l-1 -42 -18 35 c-11 19 -33 46 -51 58 -29 22 -33 22
-44 7 -10 -14 -14 -14 -35 9 -23 25 -51 33 -63 20 -4 -3 5 -30 18 -60 41 -92
31 -105 -36 -49 -30 25 -48 34 -62 29 -25 -8 -55 19 -63 57 -8 33 -24 38 -32
9 -5 -18 -7 -19 -37 -3 -17 9 -43 25 -57 35 l-26 20 35 34 c36 35 62 77 62
100 0 23 -19 16 -26 -10 -3 -13 -16 -34 -29 -46 l-23 -21 -6 35 c-8 42 -15 44
-39 15 -10 -11 -21 -18 -24 -15 -3 3 0 12 7 21 7 8 15 44 18 80 6 83 -13 88
-46 12 -12 -28 -33 -65 -45 -81 l-24 -29 -59 36 c-32 21 -72 47 -87 59 -27 23
-28 24 -14 64 8 22 38 63 67 92 52 52 52 52 48 22 -3 -17 -1 -33 4 -36 23 -14
100 90 113 153 10 47 -11 48 -30 1 l-16 -41 -15 29 c-24 45 -36 46 -67 8 -16
-19 -37 -39 -48 -44 -17 -10 -18 -8 -9 15 6 15 10 62 10 105 0 65 5 89 29 142
16 35 34 88 41 118 20 86 44 132 89 173 48 44 55 45 47 12z m-521 -733 c-7 -8
-45 10 -40 19 4 5 14 3 25 -3 11 -7 17 -14 15 -16z m1357 -106 c-3 -39 -7 -54
-13 -45 -12 19 -11 66 2 91 14 27 16 22 11 -46z m-1251 37 c13 -15 12 -15 -8
-4 -24 12 -29 21 -14 21 5 0 15 -7 22 -17z m1315 -55 c-3 -35 -8 -110 -11
-168 -8 -123 -26 -170 -93 -232 -71 -65 -120 -82 -237 -81 -112 1 -173 17
-310 85 -100 49 -517 327 -493 328 7 0 145 -89 248 -160 254 -173 405 -240
546 -240 105 0 175 28 240 95 69 73 85 124 91 298 3 76 10 137 15 137 6 0 7
-26 4 -62z m-1092 -19 c54 -39 95 -74 92 -76 -6 -6 -125 74 -176 117 -64 56
-12 30 84 -41z m-478 46 c10 -8 15 -14 9 -14 -5 0 -19 6 -29 14 -11 8 -15 15
-10 15 6 0 19 -7 30 -15z m-49 -47 c59 -34 221 -156 275 -206 69 -65 181 -215
222 -299 109 -221 101 -478 -19 -610 -24 -27 -46 -45 -49 -42 -4 3 7 21 23 38
50 53 89 146 99 236 22 197 -33 353 -203 570 -84 109 -194 199 -391 322 -34
21 4 14 43 -9z m133 -4 c0 -2 -9 0 -20 6 -11 6 -20 13 -20 16 0 2 9 0 20 -6
11 -6 20 -13 20 -16z m271 9 c13 -16 12 -17 -3 -4 -17 13 -22 21 -14 21 2 0
10 -8 17 -17z m1145 -105 c-21 -156 -51 -209 -143 -254 -50 -25 -69 -29 -138
-28 -131 1 -247 48 -494 202 -116 71 -143 92 -122 92 7 0 63 -33 124 -74 135
-89 266 -156 365 -186 140 -43 274 -12 334 77 30 43 58 137 58 190 0 18 5 33
11 33 8 0 9 -16 5 -52z m-1234 -38 c40 -38 69 -69 65 -70 -4 0 -41 32 -82 70
-41 39 -70 70 -65 70 4 0 41 -31 82 -70z m1585 -70 c25 -89 25 -527 0 -667
-14 -81 -42 -152 -54 -139 -3 2 3 15 11 28 32 48 49 218 50 473 0 210 -3 249
-20 313 -12 40 -17 69 -13 65 5 -5 16 -37 26 -73z m-42 -77 c16 -94 18 -253 5
-418 -6 -76 -7 -58 -4 80 5 167 -2 256 -31 440 -5 26 -4 27 5 8 5 -13 16 -62
25 -110z m-550 25 c8 -28 20 -57 26 -64 9 -11 8 -14 -2 -14 -8 0 -24 -3 -36
-6 -20 -6 -21 -3 -20 69 1 41 5 73 9 70 4 -2 14 -27 23 -55z m125 -27 c0 -6
-63 -41 -75 -41 -9 0 -5 31 10 65 l14 35 26 -25 c14 -14 25 -29 25 -34z m1 36
c-10 -9 -11 -8 -5 6 3 10 9 15 12 12 3 -3 0 -11 -7 -18z m-238 -24 c39 -63 39
-70 3 -66 -55 7 -76 13 -76 23 0 6 5 9 12 8 7 -2 17 14 22 35 5 20 11 37 13
37 1 0 13 -17 26 -37z m-286 -154 c-4 -22 -4 -22 -6 3 -1 21 -5 26 -18 22 -15
-5 -16 -4 -3 5 20 14 33 -1 27 -30z m-56 -12 c-18 -20 -30 -24 -74 -21 -39 3
-46 1 -27 -5 23 -8 24 -9 3 -10 -27 -1 -40 17 -19 25 9 3 13 10 10 15 -9 15
40 10 63 -6 18 -13 22 -12 38 5 10 11 20 20 23 20 3 0 -4 -11 -17 -23z m47
-57 c3 -41 -5 -49 -26 -28 -9 9 -12 9 -12 -2 0 -17 -29 -50 -44 -50 -6 0 0 7
12 16 27 19 28 41 2 49 -11 3 -20 11 -20 16 0 5 -12 7 -27 4 -16 -3 -21 -2
-13 1 8 4 19 12 23 18 5 7 13 4 24 -11 20 -30 39 -29 59 2 9 14 17 25 18 25 0
0 2 -18 4 -40z m-173 -15 c-26 -12 -27 -13 -8 -14 12 -1 34 4 50 10 17 6 24 6
18 0 -5 -5 -26 -14 -45 -19 l-35 -10 37 -1 c20 -1 48 3 62 9 15 5 26 6 26 0 0
-5 -16 -14 -34 -21 -19 -7 -32 -17 -29 -22 3 -6 1 -7 -6 -3 -6 4 -9 12 -6 17
4 5 -2 9 -11 9 -22 0 -84 22 -84 30 0 7 57 27 80 28 8 1 2 -5 -15 -13z m560
-221 c19 -14 36 -35 38 -47 4 -24 11 -13 21 35 5 24 12 27 60 33 71 9 98 -5
94 -48 -2 -22 -10 -35 -25 -42 -32 -14 -38 -35 -10 -35 30 0 47 -18 47 -49 0
-27 -26 -61 -47 -61 -20 0 -16 -18 7 -25 11 -3 23 -17 26 -30 13 -51 -40 -92
-103 -80 -43 8 -63 46 -64 122 0 48 -2 54 -11 36 -6 -12 -29 -31 -52 -44 -37
-19 -42 -26 -38 -50 3 -20 -3 -35 -21 -53 -50 -50 -96 -25 -99 52 -1 39 -2 41
-5 12 -6 -57 -12 -78 -29 -94 -20 -20 -73 -21 -80 -1 -8 19 -24 9 -24 -14 0
-19 -34 -54 -62 -64 -10 -4 -25 1 -34 10 -25 26 -15 227 16 303 34 87 89 131
141 115 27 -9 40 -38 60 -130 l17 -80 1 93 c1 106 9 128 54 147 48 21 85 18
122 -11z m367 -15 c29 -12 68 -68 68 -95 0 -23 -18 -44 -37 -44 -7 0 -22 10
-34 23 -27 27 -17 9 30 -57 30 -41 36 -60 39 -113 5 -77 -11 -103 -65 -103
-69 0 -133 56 -133 116 0 40 17 47 53 22 34 -24 35 -15 0 26 -52 62 -66 131
-38 186 25 48 68 62 117 39z"/>
<path d="M2178 4453 c-14 -15 -53 -54 -87 -87 -34 -32 -68 -72 -76 -90 -14
-30 -57 -181 -74 -257 -4 -20 -19 -59 -33 -88 -16 -30 -21 -51 -15 -51 7 0 19
17 28 38 9 20 24 54 33 75 10 21 20 50 22 65 16 98 50 204 76 237 11 14 52 56
90 94 39 37 69 73 67 80 -3 8 -14 2 -31 -16z"/>
<path d="M1880 3839 c0 -11 4 -18 10 -14 5 3 7 12 3 20 -7 21 -13 19 -13 -6z"/>
<path d="M2989 2995 c-9 -25 -12 -45 -7 -45 13 0 41 71 31 81 -5 5 -16 -12
-24 -36z"/>
<path d="M2707 3014 c-21 -21 78 -104 125 -104 36 0 37 25 1 35 -15 3 -44 22
-65 41 -38 34 -49 39 -61 28z"/>
<path d="M2835 2616 c-65 -32 -57 -32 30 -1 41 14 60 25 45 25 -14 0 -47 -11
-75 -24z"/>
<path d="M2940 2626 c0 -2 12 -12 28 -21 l27 -18 -19 21 c-17 20 -36 29 -36
18z"/>
<path d="M2194 1947 c-12 -17 -27 -50 -34 -72 -7 -22 -19 -50 -27 -62 -8 -12
-12 -27 -8 -33 9 -14 38 -13 53 2 10 10 15 10 21 -1 8 -12 14 -12 40 -2 48 20
56 36 31 61 -20 20 -23 21 -40 5 -18 -16 -19 -15 -13 42 3 32 10 66 15 76 16
31 -16 19 -38 -16z"/>
<path d="M2614 1619 c4 -30 20 -78 36 -106 15 -29 26 -53 23 -53 -3 0 -23 19
-44 42 -39 43 -60 47 -39 8 8 -14 9 -47 4 -101 -6 -78 -7 -79 -26 -63 -33 30
-55 77 -67 142 -12 61 -45 132 -61 132 -10 0 -2 -138 11 -200 11 -51 66 -123
110 -146 35 -18 43 -18 36 0 -4 10 -1 13 9 9 13 -5 15 1 9 40 -10 68 -2 84 40
79 36 -4 44 5 23 26 -9 9 -6 12 15 12 32 0 34 9 7 43 -28 35 -70 128 -70 154
0 12 -5 25 -11 29 -9 5 -10 -7 -5 -47z"/>
<path d="M2355 760 c-3 -5 -1 -10 4 -10 6 0 11 5 11 10 0 6 -2 10 -4 10 -3 0
-8 -4 -11 -10z"/>
<path d="M2642 520 c-33 -14 -42 -49 -42 -175 0 -131 9 -165 43 -165 33 0 47
18 47 62 0 33 4 40 28 49 66 25 95 87 73 159 -20 67 -82 96 -149 70z m76 -93
c4 -22 -17 -77 -29 -77 -5 0 -9 23 -9 51 0 43 3 50 17 47 10 -2 19 -11 21 -21z"/>
<path d="M2701 414 c0 -11 3 -14 6 -6 3 7 2 16 -1 19 -3 4 -6 -2 -5 -13z"/>
<path d="M2860 521 c-22 -6 -26 -14 -33 -76 -11 -96 -4 -222 14 -240 14 -13
37 -18 71 -16 43 3 70 81 28 81 -30 0 -29 57 1 62 52 7 50 68 -1 68 -29 0 -31
2 -28 32 2 22 9 32 22 34 54 8 42 58 -15 61 -19 1 -45 -2 -59 -6z"/>
<path d="M2432 465 c-43 -36 -72 -127 -79 -250 -5 -86 -3 -102 11 -114 26 -22
63 0 71 43 8 40 40 56 50 25 8 -24 51 -25 64 -1 19 35 21 109 7 196 -21 126
-58 156 -124 101z m44 -190 c-3 -8 -13 -15 -22 -15 -15 0 -16 8 -10 61 3 33 9
66 13 72 10 15 28 -97 19 -118z"/>
<path d="M3065 498 c-65 -29 -63 -138 5 -215 17 -19 30 -38 30 -43 0 -16 -46
-11 -60 5 -18 22 -33 4 -24 -29 10 -42 58 -76 108 -76 53 0 66 13 66 67 0 46
-20 94 -64 152 -14 19 -26 43 -26 53 0 25 31 23 37 -2 6 -24 38 -27 47 -4 5
12 -27 84 -37 84 -1 0 -16 4 -32 9 -17 4 -39 4 -50 -1z"/>
<path d="M1562 443 c2 -5 10 -20 17 -35 11 -22 11 -35 -2 -85 -16 -66 -11
-117 17 -170 l17 -33 -29 0 c-29 0 -54 20 -65 53 -13 36 -27 17 -20 -29 5 -42
4 -46 -13 -42 -10 2 -23 13 -29 26 -15 34 -28 26 -22 -14 6 -37 31 -84 45 -84
4 0 12 10 17 23 6 12 17 20 25 18 8 -2 32 -6 54 -9 35 -4 38 -3 31 17 -5 17
-2 21 14 21 32 0 33 16 5 57 -25 37 -26 41 -19 147 5 94 4 111 -11 127 -17 18
-39 27 -32 12z"/>
</g>
</svg>
