<?xml version="1.0" standalone="no"?>
<!DOCTYPE svg PUBLIC "-//W3C//DTD SVG 20010904//EN"
 "http://www.w3.org/TR/2001/REC-SVG-20010904/DTD/svg10.dtd">
<svg version="1.0" xmlns="http://www.w3.org/2000/svg"
 width="502.000000pt" height="497.000000pt" viewBox="0 0 502.000000 497.000000"
 preserveAspectRatio="xMidYMid meet">

<g transform="translate(0.000000,497.000000) scale(0.100000,-0.100000)"
fill="#000000" stroke="none">
<path d="M2857 3852 c-25 -26 -29 -27 -129 -27 -57 0 -115 4 -130 9 -24 7 -26
6 -21 -13 4 -18 1 -21 -23 -22 -16 -1 -90 -3 -164 -5 -74 -2 -163 -5 -197 -6
-71 -2 -76 -10 -38 -56 l25 -30 -27 -6 c-16 -3 -59 -10 -97 -16 -75 -12 -134
-38 -184 -81 -18 -16 -39 -29 -47 -29 -23 0 -17 -16 11 -28 l25 -12 -21 -30
c-11 -16 -29 -48 -40 -72 -16 -37 -26 -46 -67 -60 -114 -40 -198 -130 -234
-250 -42 -139 -5 -275 95 -348 l48 -35 -4 -55 c-3 -43 -13 -68 -42 -114 l-37
-58 38 6 c94 16 88 20 86 -62 -2 -54 -8 -83 -23 -109 -11 -19 -20 -36 -20 -39
0 -11 26 -1 67 26 24 17 49 30 55 30 18 0 5 -160 -17 -197 -26 -44 -13 -51 30
-18 20 15 38 25 39 24 2 -2 0 -40 -4 -84 -8 -85 -51 -194 -90 -230 -11 -10
-20 -22 -20 -27 0 -13 42 -9 74 7 15 8 31 15 34 15 10 0 -8 -91 -24 -121 -8
-17 -33 -50 -54 -73 -20 -22 -45 -56 -55 -75 l-17 -34 30 6 c16 3 32 3 35 0
10 -9 -21 -61 -43 -73 -11 -6 -43 -31 -70 -55 -44 -39 -48 -45 -32 -54 16 -10
15 -12 -8 -30 -14 -11 -61 -40 -105 -65 -54 -29 -99 -65 -138 -107 -31 -34
-57 -66 -57 -70 0 -3 14 -9 31 -13 l32 -6 -39 -43 c-22 -24 -59 -68 -83 -97
-30 -36 -61 -60 -98 -76 -29 -13 -53 -29 -53 -36 0 -6 10 -22 22 -35 19 -21
20 -24 6 -40 -31 -35 -48 -83 -62 -172 -15 -93 -25 -117 -84 -214 -19 -31 -32
-61 -28 -65 4 -3 25 3 47 15 21 12 39 17 39 11 0 -5 -13 -40 -29 -76 -38 -88
-45 -132 -31 -198 11 -50 14 -54 39 -54 26 0 29 4 34 42 3 23 3 46 1 50 -10
15 -31 8 -42 -15 -9 -19 -11 -16 -11 25 -1 26 3 57 8 70 5 13 10 28 11 33 1 6
10 26 21 46 19 39 28 107 15 127 -5 9 -13 6 -26 -10 -28 -33 -24 -9 4 33 13
19 30 54 37 77 7 23 16 42 20 42 5 0 6 13 3 29 -8 40 13 134 36 159 11 12 20
24 20 28 0 17 33 42 48 37 10 -4 13 -2 8 5 -4 6 -21 15 -37 19 -35 10 -40 23
-13 38 10 5 31 18 46 28 15 10 32 15 38 12 5 -3 10 -1 10 5 0 12 50 82 96 135
17 19 28 26 31 18 3 -7 9 -13 15 -13 7 0 7 5 -1 13 -14 18 19 50 43 41 9 -3
16 -1 16 6 0 6 -5 8 -10 5 -5 -3 -10 3 -10 13 0 18 -5 19 -42 14 l-42 -5 33
41 c38 49 84 83 103 79 7 -2 10 -2 6 0 -14 8 -8 23 7 23 9 0 43 18 77 41 64
42 91 41 66 -2 -7 -13 -17 -27 -21 -30 -5 -3 -8 -9 -8 -13 3 -20 -1 -25 -16
-20 -13 4 -15 3 -5 -4 20 -14 -23 -103 -46 -95 -14 4 -14 3 -3 -5 12 -9 12
-15 0 -44 -17 -42 -78 -104 -99 -100 -11 2 -12 1 -2 -6 10 -7 7 -19 -14 -55
-14 -26 -28 -47 -30 -47 -3 0 -2 5 2 12 4 7 3 8 -5 4 -6 -4 -9 -11 -6 -16 9
-15 -23 -68 -51 -87 -19 -12 -28 -13 -33 -4 -4 6 -7 -4 -7 -22 1 -23 5 -33 14
-30 7 3 18 0 26 -6 7 -6 16 -7 21 -3 4 4 0 -7 -9 -25 -9 -18 -16 -48 -16 -67
0 -25 -8 -43 -31 -66 -18 -17 -38 -29 -45 -26 -23 9 -15 -10 9 -23 13 -7 39
-11 58 -9 33 3 34 2 37 -36 2 -27 0 -36 -8 -31 -9 6 -9 2 -1 -12 6 -11 8 -23
4 -27 -9 -8 -7 -162 2 -177 5 -7 1 -18 -10 -26 -18 -12 -18 -13 -1 -13 15 0
17 -6 13 -37 -11 -74 -19 -103 -33 -114 -8 -6 -14 -15 -14 -19 0 -12 161 -11
176 1 11 9 20 9 39 -1 29 -16 43 -7 25 15 -16 19 -49 19 -88 -1 -18 -8 -42
-14 -54 -12 -41 6 -35 54 20 170 71 148 147 368 191 553 12 50 26 107 32 128
18 68 40 229 46 348 l6 117 34 5 c19 4 51 18 71 33 l35 27 -6 -46 c-6 -43 -5
-47 14 -47 53 0 110 56 108 107 0 26 -2 25 -19 -14 -11 -25 -31 -48 -49 -57
-16 -9 -32 -16 -33 -16 -2 0 -1 27 2 60 6 65 -1 74 -32 35 -19 -24 -86 -65
-107 -65 -16 0 49 109 70 115 10 4 34 1 53 -5 27 -9 42 -8 73 5 30 12 52 14
89 8 44 -8 50 -12 61 -43 18 -54 16 -121 -7 -157 -22 -37 -99 -81 -110 -64 -9
15 -48 -21 -79 -74 -14 -22 -26 -42 -28 -44 -1 -2 -12 4 -23 14 -11 10 -23 15
-27 11 -4 -4 3 -16 16 -25 l24 -19 -21 -45 c-29 -62 -71 -214 -88 -322 -21
-129 -56 -295 -63 -295 -3 0 -14 15 -25 33 -12 20 -20 27 -23 19 -3 -8 0 -19
6 -25 14 -14 14 -65 -1 -121 -11 -43 -2 -100 27 -168 6 -14 2 -18 -17 -18 -32
0 -68 27 -68 50 0 10 -5 22 -11 26 -9 5 -10 -3 -5 -28 3 -19 3 -46 -2 -58 l-9
-23 -20 20 c-11 11 -23 27 -25 34 -3 8 -8 11 -12 8 -12 -11 11 -54 37 -68 29
-16 47 -8 47 21 0 17 3 18 14 8 9 -6 36 -10 62 -9 53 4 71 -12 83 -74 10 -49
37 -43 33 8 -2 22 -8 45 -14 52 -6 7 -8 20 -4 28 3 9 0 15 -8 15 -16 0 -31 17
-40 48 -6 19 -4 22 21 22 16 0 38 6 49 14 18 14 18 16 2 32 -17 17 -19 17 -38
-4 -26 -28 -38 -28 -49 1 -11 29 -3 51 13 37 9 -6 16 -6 24 2 9 9 7 17 -9 34
-17 18 -19 27 -11 55 8 33 10 34 58 34 27 -1 81 -3 121 -5 82 -6 88 -14 71
-93 -5 -23 -12 -68 -15 -99 -4 -48 -9 -58 -27 -61 -20 -4 -20 -4 2 -6 18 -1
22 -7 22 -31 0 -30 -23 -43 -33 -17 -4 7 -6 6 -6 -4 -1 -12 -17 -20 -58 -27
l-58 -11 56 4 c60 5 69 -1 69 -46 0 -11 7 -19 16 -19 12 0 15 6 10 23 -5 21
-3 23 25 19 28 -4 30 -3 27 24 -2 24 1 30 20 32 17 3 22 -2 22 -17 0 -24 10
-27 28 -9 9 9 12 9 12 0 0 -15 -34 -36 -83 -52 -21 -7 -36 -14 -34 -17 3 -2
26 3 51 11 57 20 60 20 52 1 -3 -9 0 -15 9 -15 10 0 15 10 15 30 0 35 19 39
88 15 62 -22 204 -29 297 -15 44 7 117 14 163 17 l82 5 0 -26 c0 -32 17 -35
22 -4 2 19 8 22 28 18 34 -7 199 -4 338 5 l112 8 0 -25 c0 -24 2 -24 68 -24
37 1 72 4 79 9 6 4 14 3 18 -3 9 -15 51 -12 65 5 15 18 19 74 7 82 -4 2 -5 14
-2 26 4 13 3 17 -2 10 -6 -8 -14 -6 -31 7 -24 20 -29 40 -9 40 8 0 7 4 -3 10
-13 8 -13 13 -2 31 8 11 9 18 3 14 -7 -3 -11 2 -11 14 0 12 6 21 14 21 7 0 16
9 19 20 3 11 1 18 -3 15 -10 -6 -35 63 -26 72 3 3 1 13 -4 23 -13 24 -22 190
-11 190 5 0 11 -6 14 -12 3 -9 8 -10 15 -3 12 11 5 65 -8 65 -5 0 -16 35 -26
78 -9 42 -25 88 -35 101 -10 13 -16 27 -13 32 3 5 -11 28 -30 51 -20 23 -36
50 -36 59 0 10 -4 21 -10 24 -5 3 -10 17 -10 31 0 14 -10 38 -21 54 -13 16
-19 36 -15 45 3 9 2 13 -4 10 -12 -7 -53 73 -46 91 3 8 0 14 -7 14 -17 0 -48
75 -41 97 5 14 4 15 -4 4 -8 -11 -12 -10 -22 8 -6 12 -10 31 -8 42 3 19 6 18
40 -11 21 -18 36 -35 34 -39 -2 -3 34 -24 80 -46 46 -22 84 -43 84 -47 0 -24
-93 8 -103 34 -2 8 -8 9 -13 4 -5 -5 -4 -11 3 -13 9 -3 10 -10 3 -24 -9 -15
-7 -19 6 -19 19 0 77 -45 137 -105 60 -61 106 -113 81 -92 -48 40 -46 5 3 -45
20 -21 32 -38 25 -38 -7 0 -12 -5 -12 -11 0 -6 9 -8 22 -4 16 6 20 4 15 -8 -4
-12 -2 -14 10 -10 12 5 14 1 8 -17 -6 -18 -4 -22 8 -17 16 6 57 -45 76 -96 14
-36 14 -37 -4 -31 -22 9 -19 -22 6 -63 12 -18 18 -40 15 -49 -3 -8 -2 -13 3
-10 15 10 58 -125 46 -144 -3 -6 -1 -10 4 -10 6 0 11 -7 11 -15 0 -8 -6 -15
-12 -15 -9 0 -10 -3 -2 -8 18 -12 47 -114 34 -122 -6 -4 -10 -34 -9 -76 4
-123 0 -172 -16 -188 -17 -16 -20 -30 -5 -21 6 3 7 -1 4 -9 -4 -10 -1 -16 9
-16 20 0 26 27 34 158 6 109 7 112 30 112 29 0 29 2 -1 49 -15 24 -31 72 -40
122 -8 46 -26 117 -41 157 -14 40 -23 77 -20 82 7 11 -16 94 -38 137 -9 16
-34 53 -57 82 -22 28 -39 55 -36 60 9 13 -50 89 -131 169 -40 40 -73 75 -73
77 0 3 8 5 19 5 10 0 24 6 30 14 9 10 3 18 -26 38 -21 14 -49 28 -63 31 -26 7
-160 114 -160 128 0 5 7 9 15 9 26 0 16 24 -20 49 -55 37 -137 145 -116 153 5
2 -6 35 -24 73 -39 80 -58 179 -32 170 12 -5 14 2 9 41 -5 44 -4 46 17 39 16
-5 21 -2 21 12 0 26 29 62 36 46 10 -23 25 -14 89 48 47 46 79 68 131 88 142
56 206 94 279 166 71 71 136 176 150 243 4 19 22 47 41 64 33 30 44 61 25 72
-5 4 -5 18 2 36 9 24 8 32 -4 42 -9 7 -22 40 -29 73 -18 88 -55 150 -106 180
-39 23 -123 52 -197 69 l-27 6 24 48 c23 46 38 90 50 143 3 16 15 29 27 32 13
4 19 12 17 25 -2 10 3 26 10 34 10 13 9 21 -11 44 -13 16 -27 38 -31 49 -6 22
-52 75 -76 91 -21 13 -54 80 -46 93 9 14 0 14 -40 -1 -29 -10 -35 -9 -71 20
-41 32 -159 94 -221 117 -20 7 -36 17 -35 22 1 4 5 21 8 36 9 34 -4 34 -38 -1z
m7 -60 c-5 -22 -12 -32 -25 -32 -12 0 -16 5 -13 15 4 8 10 15 14 15 4 0 10 10
13 22 9 33 18 16 11 -20z m-70 2 c4 -9 5 -18 4 -19 -2 -1 -32 1 -67 5 -35 5
-70 6 -78 3 -7 -3 -13 0 -13 5 0 6 26 13 58 15 31 2 64 4 73 5 9 1 20 -5 23
-14z m-304 -23 l25 -7 -28 -7 c-15 -4 -32 -5 -37 -2 -6 4 -10 2 -10 -3 0 -9
-70 -22 -137 -25 -17 -1 -29 -5 -27 -8 2 -4 -7 -9 -20 -11 -19 -4 -22 -1 -18
14 5 21 -8 24 -26 6 -10 -10 -16 -8 -32 7 -19 20 -19 20 23 20 23 -1 58 5 77
12 38 13 169 16 210 4z m499 -23 c54 -25 56 -26 49 -33 -3 -3 -37 1 -75 10
-57 13 -69 19 -70 36 -2 18 2 20 24 14 14 -3 46 -16 72 -27z m-207 -13 c-2
-11 -5 -39 -9 -63 -7 -49 -20 -45 -48 14 -12 26 -20 33 -28 25 -8 -8 -6 -26 6
-64 9 -30 17 -64 17 -76 0 -14 4 -20 11 -15 10 6 8 35 -6 79 -5 15 0 12 19
-10 14 -16 27 -27 29 -25 2 3 9 34 16 70 16 80 17 81 44 71 18 -7 21 -15 19
-45 -4 -44 17 -176 27 -176 4 0 8 20 8 44 1 24 8 57 17 72 l15 29 1 -45 c0
-25 8 -67 17 -93 17 -46 17 -50 0 -79 -19 -33 -16 -48 7 -29 26 22 28 75 6
132 -23 56 -21 100 4 135 13 17 17 18 53 5 21 -8 48 -20 60 -28 l22 -15 -22
-31 c-12 -18 -33 -44 -46 -59 -14 -16 -20 -28 -14 -28 15 0 73 58 73 73 0 7 4
6 10 -3 8 -12 11 -12 28 3 18 16 20 16 35 -1 23 -25 22 -30 -15 -45 -18 -8
-66 -44 -106 -80 -111 -100 -161 -108 -290 -43 -140 69 -181 81 -272 80 -92 0
-143 -19 -187 -66 -29 -30 -63 -106 -63 -140 0 -18 -9 -33 -24 -43 -13 -9 -27
-23 -30 -32 -9 -22 3 -53 19 -53 8 0 11 -7 8 -20 -3 -12 1 -22 11 -26 9 -3 16
-18 16 -33 1 -44 46 -158 85 -211 36 -50 36 -50 25 -103 -7 -29 -11 -76 -9
-105 2 -29 1 -52 -2 -52 -17 0 -17 -32 0 -49 19 -19 37 -121 21 -121 -5 0 -24
13 -42 29 -18 15 -44 32 -58 36 -31 9 -103 47 -111 59 -4 4 -5 16 -3 25 3 9
-2 48 -10 86 -12 62 -15 67 -21 40 -4 -16 -17 -43 -29 -58 l-23 -29 -7 63 c-3
38 -2 67 4 73 12 12 13 26 2 26 -9 0 -22 -24 -42 -78 l-13 -33 -23 22 c-28 26
-29 47 -9 116 19 63 41 85 60 59 34 -45 46 25 19 103 -21 60 -21 149 0 188 9
18 16 45 16 60 0 33 -25 73 -46 73 -17 0 -17 -1 2 46 25 61 54 95 93 112 20 8
31 17 24 19 -15 5 -73 -25 -91 -46 -7 -9 -24 -40 -37 -68 l-25 -53 -37 22
c-21 12 -40 23 -41 24 -7 5 56 88 100 134 103 109 265 190 416 209 37 5 80 14
95 20 44 17 66 13 113 -19 51 -34 59 -24 12 14 l-33 26 95 -2 c89 -3 95 -4 92
-23z m142 -23 c2 -4 -9 -27 -25 -51 l-29 -44 0 45 c0 24 3 48 7 51 9 10 41 9
47 -1z m177 -29 c23 -15 37 -29 31 -31 -11 -3 -81 39 -82 51 0 12 8 8 51 -20z
m-986 -46 c-27 -17 -52 -32 -55 -32 -3 0 -16 -10 -29 -22 -13 -12 -28 -20 -33
-17 -4 3 -8 0 -8 -6 0 -6 -10 -21 -22 -34 -13 -13 -30 -33 -38 -45 -8 -11 -20
-21 -28 -21 -7 0 -11 -4 -8 -9 3 -4 0 -20 -7 -35 -9 -20 -19 -26 -44 -26 -18
0 -33 2 -33 5 0 17 26 55 37 55 8 0 11 5 8 10 -6 10 31 72 47 78 4 2 8 10 8
19 0 10 -6 13 -22 8 -18 -5 -14 2 16 28 41 35 115 63 141 53 9 -3 13 -2 10 3
-5 10 25 17 80 19 29 2 28 0 -20 -31z m1095 -17 c0 -5 7 -10 15 -10 8 0 15 -4
15 -10 0 -17 -41 -11 -67 10 l-26 20 32 0 c17 0 31 -4 31 -10z m95 -78 c21
-16 65 -75 65 -87 0 -3 -27 -5 -61 -5 -76 0 -71 -14 8 -18 76 -4 95 -10 91
-30 -3 -13 -13 -16 -38 -15 -174 11 -180 10 -267 -34 -108 -57 -162 -57 -132
-1 11 21 11 22 -4 9 -10 -7 -17 -22 -17 -31 0 -22 -45 -60 -72 -60 -31 0 -55
18 -62 45 -5 18 -13 25 -29 24 -18 -1 -18 -2 -4 -6 12 -3 17 -12 15 -26 -3
-21 -7 -22 -108 -19 -149 5 -317 -27 -437 -83 -43 -21 -73 -19 -73 3 0 50 142
110 310 131 53 7 58 9 23 10 -46 1 -157 -20 -224 -43 -24 -8 -45 -13 -48 -10
-2 2 3 28 12 57 37 117 124 161 270 136 85 -14 116 -24 218 -73 122 -58 203
-49 288 33 97 93 156 124 220 115 19 -3 44 -13 56 -22z m61 -177 c54 -22 44
-46 -10 -25 -15 5 -26 6 -26 1 0 -5 5 -11 12 -13 20 -7 -7 -78 -43 -117 -88
-93 -226 -92 -279 1 -14 25 -13 28 5 42 17 13 18 15 3 16 -9 0 -20 -4 -23 -10
-9 -15 -25 -12 -25 4 0 12 127 80 210 113 41 15 124 10 176 -12z m-1469 -20
c61 -25 66 -33 43 -65 -11 -15 -31 -35 -46 -44 -25 -17 -26 -17 -61 18 -41 41
-90 66 -129 66 -32 0 -25 10 19 27 46 17 132 16 174 -2z m-150 -51 c44 -21 81
-58 127 -129 l38 -56 -21 -35 c-28 -48 -27 -57 9 -52 24 4 30 1 25 -9 -3 -8
-5 -21 -5 -29 0 -20 -16 -17 -41 9 -25 26 -69 119 -69 147 0 10 -12 32 -26 49
-31 37 -79 42 -115 12 -33 -27 -19 -35 24 -15 33 16 38 16 60 1 16 -10 29 -35
40 -74 9 -32 26 -73 37 -91 11 -18 20 -36 20 -41 0 -14 -49 -31 -88 -31 -64 0
-83 42 -35 79 31 25 23 40 -11 21 -33 -17 -51 -62 -37 -89 24 -44 135 -48 181
-6 15 13 19 14 29 1 14 -17 -3 -59 -38 -90 -12 -11 -21 -25 -21 -33 0 -18 50
-17 78 3 31 22 27 3 -5 -27 -45 -41 -110 -64 -178 -63 -66 0 -103 15 -151 63
-55 54 -69 95 -69 201 0 84 3 102 29 154 16 32 48 78 71 102 47 50 81 56 142
28z m1220 -16 c-4 -14 1 -29 16 -44 12 -12 30 -34 41 -49 23 -34 73 -55 130
-55 56 0 88 12 139 53 l41 32 -30 -55 -29 -55 -60 -6 c-33 -4 -73 -12 -88 -18
-36 -14 -37 -14 -37 3 0 20 -45 46 -80 46 -34 0 -80 -38 -80 -65 0 -12 -14 -5
-47 24 -25 23 -60 45 -77 49 -25 7 -32 14 -34 40 -2 23 1 32 11 32 8 0 20 7
28 16 10 13 10 19 0 36 -12 19 -11 20 6 13 42 -18 83 -17 115 4 41 26 42 26
35 -1z m-179 -17 c33 -18 26 -31 -15 -31 -25 0 -33 -3 -24 -9 19 -12 4 -68
-22 -83 -30 -16 -46 -39 -47 -66 0 -36 -76 -66 -166 -66 -86 1 -147 27 -205
88 -35 36 -37 41 -22 48 10 4 -4 5 -30 2 -44 -6 -49 -5 -45 12 4 24 142 80
257 105 96 21 280 21 319 0z m-853 -40 c-3 -6 -14 -11 -23 -11 -13 0 -13 2 4
14 21 15 30 14 19 -3z m-2 -48 c-11 -32 -15 -34 -29 -16 -19 26 -17 33 11 33
19 0 23 -4 18 -17z m369 -92 c60 -62 136 -94 226 -94 l64 -1 -39 -12 c-66 -20
-132 -54 -167 -85 l-34 -29 -25 30 c-39 46 -77 131 -84 188 -3 29 -2 52 3 52
5 0 30 -22 56 -49z m523 30 c38 -17 72 -49 102 -97 11 -17 12 -17 12 9 2 84
73 125 126 72 20 -19 25 -34 25 -72 0 -28 -7 -58 -16 -71 -8 -12 -11 -22 -5
-22 16 0 25 22 31 75 5 48 6 50 45 61 95 29 230 12 335 -42 77 -39 95 -62 121
-152 23 -83 24 -101 2 -119 -17 -14 -17 -14 0 -9 9 3 24 9 32 12 25 10 17 -13
-12 -35 -44 -35 -128 -54 -208 -48 -76 7 -79 6 -167 -54 -121 -83 -348 -120
-606 -100 -139 11 -292 47 -308 72 -11 19 0 18 56 -6 30 -14 71 -24 90 -24
l35 1 -45 13 c-100 29 -117 41 -124 87 -7 47 6 145 24 177 25 47 130 102 266
141 l62 17 27 -34 c29 -37 81 -73 105 -73 8 0 -1 10 -20 21 -52 31 -80 60 -96
98 -41 98 13 147 111 102z m-899 -50 c-15 -15 -16 -13 -4 19 9 26 13 30 16 16
2 -10 -3 -26 -12 -35z m764 -41 c0 -5 -3 -10 -7 -10 -5 0 -19 -3 -33 -6 l-25
-5 25 15 c30 18 40 20 40 6z m-746 -127 c-39 -38 -64 -52 -64 -39 0 2 13 28
28 58 16 29 32 64 36 78 7 24 8 24 27 -15 l19 -40 -46 -42z m-42 -166 c-4 -37
-40 -119 -50 -113 -4 2 -9 -6 -10 -20 -1 -19 3 -24 23 -24 14 0 25 -5 25 -11
0 -5 5 -7 11 -3 8 5 8 8 0 13 -7 4 7 20 34 39 25 17 45 36 45 41 0 6 7 8 16 4
11 -4 14 -14 10 -32 -3 -14 -3 -20 0 -13 8 17 21 15 54 -10 23 -16 30 -30 30
-54 0 -38 -19 -86 -31 -78 -5 3 -6 -2 -3 -10 8 -20 33 -20 55 0 16 14 18 14
25 -8 4 -13 8 -25 9 -28 0 -3 6 -15 13 -27 11 -20 10 -23 -5 -24 -11 0 -13 -3
-5 -6 15 -6 16 -33 1 -33 -6 0 -9 -7 -6 -15 4 -8 0 -27 -8 -42 -31 -59 -9 -73
51 -32 l42 28 8 -37 c5 -20 9 -46 9 -57 0 -14 8 -21 28 -23 15 -2 27 -9 27
-16 0 -15 -34 -56 -46 -56 -12 0 -12 -63 0 -72 16 -11 16 -40 0 -34 -8 3 -14
1 -14 -4 0 -6 4 -10 10 -10 17 0 38 -63 28 -83 -7 -13 -13 -15 -22 -8 -9 8
-19 5 -35 -10 l-21 -20 6 43 c4 24 13 58 20 77 17 41 13 48 -18 27 -12 -9 -18
-16 -13 -16 6 0 3 -6 -5 -13 -8 -7 -15 -20 -16 -29 0 -10 -1 -36 -2 -58 -2
-28 -6 -40 -17 -40 -8 0 -15 -4 -15 -10 0 -5 3 -9 8 -8 4 0 15 -2 26 -7 11 -5
26 -3 39 4 15 10 21 10 27 1 4 -7 16 -9 28 -6 25 8 35 -6 39 -56 4 -42 3 -43
-132 -53 -72 -5 -119 -14 -167 -34 l-28 -11 0 80 c0 64 3 80 15 80 8 0 15 5
15 11 0 5 -4 7 -10 4 -28 -17 21 63 52 86 4 3 -8 5 -27 5 -19 0 -30 -3 -25 -6
6 -4 2 -14 -10 -25 -11 -10 -20 -24 -20 -32 0 -7 -6 -16 -13 -19 -9 -3 -12
-24 -10 -72 3 -80 -3 -102 -25 -102 -9 0 -36 -9 -59 -19 -27 -13 -43 -16 -45
-9 -2 6 -20 -3 -40 -21 -20 -17 -46 -31 -58 -31 -23 0 -23 0 -5 20 10 12 25
18 32 16 7 -3 13 -1 13 4 0 6 -5 10 -11 10 -6 0 5 18 24 41 23 26 39 59 47 92
19 89 31 131 45 160 13 25 12 27 -5 27 -10 0 -22 -9 -25 -20 -8 -26 -43 -63
-73 -79 l-24 -13 24 34 c12 18 26 34 30 36 4 2 5 9 2 17 -3 7 -1 16 5 20 6 3
11 15 11 26 0 10 5 19 11 19 5 0 8 3 6 8 -4 6 5 109 16 174 2 15 16 41 32 59
26 31 27 32 24 8 -1 -13 2 -33 6 -43 6 -13 4 -21 -4 -24 -8 -3 -7 -8 5 -16 15
-12 15 -13 -1 -29 -9 -9 -12 -17 -6 -17 6 0 11 -9 11 -20 0 -48 97 2 115 60 4
12 12 17 22 13 13 -5 13 -3 2 16 -15 23 -39 28 -39 9 -1 -14 -45 -68 -55 -68
-4 0 -5 10 -4 23 1 12 -4 36 -10 52 -7 17 -13 58 -13 93 0 34 -1 62 -4 62 -2
0 -15 -18 -30 -39 -18 -28 -31 -38 -42 -34 -12 5 -14 2 -9 -11 5 -12 -5 -30
-34 -59 -24 -25 -36 -33 -29 -19 6 12 15 22 20 22 6 0 10 5 10 11 0 5 -4 7
-10 4 -6 -4 -10 5 -10 20 0 15 4 24 10 20 7 -4 7 3 0 20 -7 17 -7 24 0 20 6
-3 10 1 10 10 0 9 -4 13 -10 10 -22 -13 0 108 23 131 11 12 8 24 -6 24 -8 0
-22 -15 -32 -34 -13 -23 -23 -32 -34 -28 -13 5 -14 3 -3 -10 10 -13 7 -20 -23
-42 -19 -15 -35 -22 -35 -17 0 6 4 11 8 11 5 0 9 8 9 18 -1 133 4 171 27 205
26 38 24 52 -4 37 -10 -5 -20 -7 -24 -5 -3 3 -4 2 -1 -2 8 -11 -27 -43 -47
-43 -11 0 -17 -4 -14 -9 3 -5 -1 -12 -10 -15 -23 -9 -28 -1 -9 14 8 7 15 19
15 26 0 8 4 14 9 14 4 0 12 27 15 61 l7 61 69 -4 c37 -2 66 0 63 5 -2 4 4 7
14 7 11 0 28 7 39 15 29 22 50 14 46 -18z m28 -79 c-18 -18 -31 -28 -29 -23 2
6 11 27 19 48 12 33 16 36 29 22 13 -13 11 -18 -19 -47z m90 41 c0 -11 -4 -18
-10 -14 -5 3 -7 12 -3 20 7 21 13 19 13 -6z m1620 -17 c0 -10 -12 -27 -28 -39
-19 -14 -33 -39 -46 -82 -60 -201 -259 -360 -516 -412 -161 -33 -303 -16 -453
55 -63 30 -155 109 -186 160 -20 32 -59 182 -49 191 3 3 23 -1 46 -9 22 -8 86
-22 143 -32 123 -20 355 -14 484 12 85 18 133 20 232 9 72 -8 124 11 183 68
37 37 143 96 173 97 10 0 17 -7 17 -18z m-1540 -34 l0 -42 -21 21 c-21 20 -21
21 -3 41 11 11 20 21 22 21 1 1 2 -18 2 -41z m1284 -4 c8 -20 10 -19 -41 -31
-39 -10 -43 -9 -43 8 0 35 72 54 84 23z m61 -5 c-29 -11 -35 -10 -35 5 0 9 8
12 27 8 25 -5 25 -6 8 -13z m-175 -39 c-24 -15 -36 -11 -14 4 10 8 21 12 24
10 2 -3 -2 -9 -10 -14z m120 -9 c0 -5 -20 -15 -45 -23 -37 -13 -45 -13 -45 -2
0 7 15 18 33 23 43 12 57 13 57 2z m-110 -27 c0 -11 -5 -14 -16 -10 -9 3 -23
6 -32 7 -10 1 -7 4 8 9 37 12 40 11 40 -6z m-1158 -46 c-6 -6 -7 0 -4 19 5 21
7 23 10 9 2 -10 0 -22 -6 -28z m98 -9 c0 -4 -7 -14 -15 -23 -17 -16 -20 -30
-6 -21 5 3 11 -7 13 -22 2 -20 9 -29 26 -31 21 -3 32 -32 12 -32 -5 0 -10 -6
-10 -12 0 -7 -14 -29 -30 -48 -27 -33 -29 -33 -30 -12 0 13 4 21 9 18 5 -4 7
3 4 15 -4 12 0 25 8 30 12 7 12 9 0 9 -9 0 -12 8 -9 25 3 13 2 22 -2 20 -8 -5
-30 62 -30 93 0 18 3 19 30 9 17 -6 30 -15 30 -18z m70 -29 c3 -3 18 -15 33
-26 16 -11 37 -38 47 -61 l19 -42 -37 -4 -37 -4 41 -1 c38 -2 64 -16 64 -34 0
-4 -20 -8 -44 -8 -47 0 -105 35 -77 47 8 3 9 8 3 12 -14 9 -25 51 -13 51 5 0
13 -4 16 -10 3 -5 11 -10 16 -10 25 0 -7 21 -47 31 -38 10 -44 15 -44 38 0 37
18 55 39 38 9 -6 18 -14 21 -17z m26 -188 c23 -15 25 -48 3 -70 -25 -28 -35
-22 -43 23 -10 49 7 69 40 47z m123 -18 c-16 -19 -79 -19 -79 0 0 9 12 16 33
18 46 5 60 -1 46 -18z m71 -46 c0 -4 -12 -19 -27 -33 -15 -14 -24 -25 -20 -25
5 0 0 -13 -9 -29 l-17 -29 -22 27 c-12 14 -25 36 -29 47 -5 17 -2 23 18 28 14
3 33 17 43 30 17 22 19 22 40 7 12 -9 23 -19 23 -23z m-95 12 c-3 -5 -12 -10
-20 -10 -8 0 -17 5 -20 10 -4 6 5 10 20 10 15 0 24 -4 20 -10z m-14 -118 c5
-2 9 -8 9 -13 0 -10 -50 -12 -74 -3 -21 8 -20 24 2 25 16 1 16 2 0 6 -10 2
-18 11 -18 20 0 10 6 13 18 9 15 -5 15 -4 -2 8 -15 12 -16 17 -5 29 12 13 17
9 38 -31 13 -26 28 -48 32 -50z m256 28 c23 -7 40 -17 36 -23 -3 -6 -2 -7 4
-4 6 4 37 2 69 -3 70 -12 223 -15 254 -5 16 5 21 3 18 -6 -3 -8 -16 -15 -31
-17 -18 -2 -24 -8 -20 -18 3 -8 0 -21 -7 -29 -12 -14 -16 -13 -36 6 -21 20
-24 20 -30 5 -3 -9 -13 -16 -21 -16 -10 0 -12 -6 -8 -21 5 -15 3 -20 -6 -17
-7 2 -17 19 -21 36 -5 18 -12 32 -16 32 -14 0 -32 -24 -32 -42 0 -28 -14 -21
-35 18 -30 56 -97 69 -77 15 3 -9 -12 0 -32 21 -46 45 -76 55 -76 26 0 -20 -1
-20 -21 3 -11 13 -27 23 -35 21 -15 -3 -19 33 -8 62 6 15 11 14 48 -7 22 -13
60 -29 83 -37z m-167 20 c0 -5 -2 -10 -4 -10 -3 0 -8 5 -11 10 -3 6 -1 10 4
10 6 0 11 -4 11 -10z m0 -49 c0 -5 -7 -11 -15 -15 -15 -5 -20 5 -8 17 9 10 23
9 23 -2z m60 -59 c0 -27 -13 -39 -47 -47 -18 -3 -36 -11 -39 -17 -4 -6 1 -8
13 -4 17 5 22 1 27 -26 8 -40 -2 -50 -61 -57 -76 -9 -113 -3 -113 19 0 16 6
18 33 13 17 -2 48 0 67 5 32 9 28 10 -37 11 -59 1 -73 4 -73 16 0 12 4 13 19
5 11 -5 28 -9 38 -9 16 1 16 2 1 6 -39 10 -103 51 -106 67 -5 22 15 46 38 46
10 0 38 -9 63 -20 l45 -20 47 25 c51 26 85 21 85 -13z m-120 18 c0 -13 -20
-13 -40 0 -12 8 -9 10 13 10 15 0 27 -4 27 -10z m298 -68 c17 2 34 -6 53 -24
15 -16 35 -28 43 -28 19 0 21 -23 4 -50 -9 -14 -9 -34 -2 -79 9 -57 9 -59 -9
-49 -13 7 -22 7 -26 0 -3 -6 -18 -13 -33 -17 -15 -4 -31 -18 -37 -33 -11 -25
-16 -27 -73 -27 -72 0 -101 21 -111 79 -6 37 -1 41 45 38 13 -1 16 6 14 34 -3
36 -39 84 -63 84 -8 0 -13 12 -13 30 0 28 11 36 43 31 5 -1 6 3 3 8 -8 12 3
41 15 41 5 0 9 -6 9 -14 0 -7 7 -19 15 -26 22 -18 45 8 34 39 -9 22 -7 21 27
-8 25 -22 44 -31 62 -29z m-173 -108 c23 -24 15 -56 -17 -65 -15 -4 -37 -14
-50 -24 l-23 -16 25 6 c25 6 26 4 27 -39 1 -34 -2 -46 -13 -46 -8 0 -14 -4
-14 -9 0 -5 -17 -8 -37 -6 -33 2 -34 2 -8 -4 25 -5 27 -8 12 -14 -27 -10 -85
-9 -92 3 -3 6 2 11 12 11 10 1 5 4 -11 8 -53 11 -33 25 34 23 36 -2 71 1 78 6
8 5 -10 7 -42 4 -62 -5 -106 3 -106 19 0 7 16 9 48 4 32 -4 60 -1 87 9 39 16
39 16 5 9 -48 -11 -121 -6 -134 8 -8 8 -5 9 14 4 24 -7 24 -7 5 9 -11 8 -26
16 -33 16 -14 0 -35 47 -26 61 9 15 52 10 86 -11 18 -11 42 -20 52 -20 23 0
56 27 56 46 0 25 42 31 65 8z m-75 -13 c0 -22 -41 -33 -72 -20 -16 6 -25 15
-20 18 18 11 92 12 92 2z m326 -155 c13 -34 -1 -42 -24 -14 -23 28 -23 28 -2
28 11 0 23 -6 26 -14z m-246 -35 c0 -11 -15 -28 -32 -40 -18 -11 -28 -21 -21
-21 20 0 10 -54 -11 -58 -12 -3 -17 1 -14 9 2 8 -7 25 -20 39 l-25 25 7 -27 6
-28 -61 0 c-49 0 -60 3 -56 14 3 9 -4 21 -19 30 -28 19 -33 56 -6 56 9 0 26
-7 36 -15 31 -24 105 -19 151 10 48 30 65 31 65 6z m196 -12 c-3 -17 -6 -42
-6 -55 0 -15 -6 -24 -15 -24 -18 0 -20 45 -5 84 14 38 34 33 26 -5z m-486 -11
c0 -6 8 -20 18 -31 16 -20 16 -20 -8 -14 -14 4 -44 7 -67 7 -36 0 -43 3 -43
19 0 23 13 29 63 30 22 1 37 -4 37 -11z m347 -3 c8 -22 1 -26 -49 -32 l-43 -6
25 26 c28 30 58 35 67 12z m89 2 c3 -2 2 -11 -2 -20 -4 -12 -13 -15 -33 -11
-36 9 -41 13 -41 31 0 12 7 14 36 10 20 -3 38 -8 40 -10z m-558 -14 c-4 -23
-68 -32 -68 -10 0 20 10 27 42 27 23 0 29 -4 26 -17z m652 -25 c0 -19 -15 -24
-24 -10 -3 5 -2 19 1 31 4 17 8 19 14 9 5 -7 9 -21 9 -30z m-752 6 c-16 -16
-38 -12 -38 6 0 8 41 19 49 13 3 -2 -2 -11 -11 -19z m846 -37 c14 -21 26 -42
26 -47 0 -6 5 -10 11 -10 5 0 7 -4 4 -10 -3 -5 -1 -10 4 -10 10 0 51 -35 51
-44 0 -6 -84 38 -88 45 -1 3 -15 4 -30 2 -24 -3 -25 -2 -6 6 32 14 38 41 14
66 -11 12 -20 27 -20 35 0 16 2 14 34 -33z m-969 23 c-11 -4 -36 -14 -55 -21
-19 -8 -45 -24 -57 -38 -13 -13 -23 -19 -23 -13 0 11 65 65 90 75 8 3 26 5 40
6 23 0 23 -1 5 -9z m80 -11 c12 -19 -5 -23 -22 -6 -16 16 -16 17 -1 17 9 0 20
-5 23 -11z m261 2 c30 -1 32 -3 32 -41 1 -31 -4 -43 -21 -51 -16 -9 -22 -9
-25 0 -2 6 -7 9 -12 6 -4 -3 -32 6 -61 20 -30 13 -48 24 -41 24 7 1 11 5 7 10
-9 15 31 37 62 35 15 -1 42 -2 59 -3z m358 -15 c6 -25 0 -32 -36 -41 -23 -6
-29 -3 -40 20 -14 31 -1 44 43 43 19 -1 29 -7 33 -22z m74 7 c2 -8 -6 -13 -22
-13 -17 0 -26 5 -26 16 0 19 41 16 48 -3z m-578 3 c0 -3 -4 -8 -10 -11 -5 -3
-10 -1 -10 4 0 6 5 11 10 11 6 0 10 -2 10 -4z m-190 -14 c0 -19 -27 -41 -59
-47 -40 -9 -35 7 13 36 34 21 46 24 46 11z m948 -29 c3 -21 0 -23 -50 -23 -29
-1 -71 -7 -93 -15 -36 -13 -41 -13 -52 2 -21 28 -15 42 25 52 51 15 80 17 127
11 32 -4 41 -10 43 -27z m-408 2 c0 -10 -16 -15 -62 -18 l-63 -3 68 -2 c49 -1
67 -6 65 -14 -6 -16 -42 -26 -100 -27 l-48 -1 0 40 0 40 70 0 c55 0 70 -3 70
-15z m-416 -11 c9 -3 16 -13 16 -22 0 -13 2 -13 18 2 21 18 45 13 118 -25 26
-13 49 -17 74 -13 29 5 41 2 56 -14 28 -29 77 -37 116 -18 17 9 32 15 33 14 1
-2 9 -24 19 -50 9 -26 32 -60 50 -76 49 -43 50 -48 17 -96 -51 -74 -139 -104
-215 -72 -44 18 -49 28 -32 66 7 18 15 29 18 24 3 -5 3 -3 1 4 -1 8 -3 21 -3
30 -1 9 -12 -3 -25 -28 l-23 -45 -11 28 c-6 16 -11 32 -11 37 0 4 -19 6 -41 3
-40 -6 -41 -5 -34 18 10 30 22 39 59 39 24 0 27 2 16 15 -18 22 -150 83 -217
100 -39 10 -95 14 -165 13 -97 -3 -131 3 -116 18 10 9 130 32 147 27 9 -2 32
3 51 11 38 17 60 19 84 10z m466 -4 c0 -5 -4 -10 -10 -10 -5 0 -10 5 -10 10 0
6 5 10 10 10 6 0 10 -4 10 -10z m138 -25 c14 -31 15 -35 3 -35 -5 0 -19 14
-31 30 -20 29 -21 30 -2 30 10 0 24 -11 30 -25z m-56 -15 c4 -12 4 -49 -2 -84
-5 -33 -10 -65 -10 -70 0 -17 -48 35 -64 69 -19 39 -21 86 -4 103 19 19 70 8
80 -18z m284 -10 c46 -7 64 -16 81 -37 30 -37 14 -49 -28 -24 -19 12 -44 21
-55 21 -12 0 -25 7 -28 16 -3 8 -10 13 -15 9 -6 -3 -1 -20 10 -40 12 -19 19
-40 17 -46 -2 -6 -10 2 -18 18 -8 15 -21 38 -29 51 -13 21 -14 21 -27 5 -13
-17 -13 -17 -14 -1 0 12 -7 17 -21 15 -12 -1 -24 3 -26 10 -3 8 7 11 28 11 18
-1 35 4 37 11 3 9 8 9 17 1 7 -6 39 -15 71 -20z m-430 -15 c-22 -16 -96 -21
-96 -6 0 9 30 15 95 19 20 1 20 1 1 -13z m223 -34 c10 -6 6 -11 -15 -20 -23
-9 -24 -10 -4 -5 59 14 65 11 68 -28 3 -36 1 -38 -25 -38 -62 0 -73 9 -73 56
0 45 15 56 49 35z m90 -55 c1 -39 -17 -21 -19 19 -1 17 -1 35 0 40 3 18 19
-29 19 -59z m54 14 c21 -50 21 -50 -3 -50 -22 0 -25 5 -34 58 -8 46 15 41 37
-8z m108 23 c36 -21 37 -40 4 -55 -31 -14 -42 -5 -51 40 -8 37 3 41 47 15z
m-844 -40 c-3 -10 -5 -2 -5 17 0 19 2 27 5 18 2 -10 2 -26 0 -35z m81 4 c20
-16 14 -24 -18 -24 -25 0 -30 4 -30 23 0 24 18 24 48 1z m828 -5 c-4 -11 -18
-32 -31 -46 -21 -22 -28 -25 -45 -16 -23 13 -26 30 -5 30 8 0 29 13 47 29 36
32 43 33 34 3z m-1356 8 c0 -5 -5 -10 -11 -10 -5 0 -7 5 -4 10 3 6 8 10 11 10
2 0 4 -4 4 -10z m609 -27 c2 -2 -5 -3 -17 -3 -14 0 -22 6 -22 16 0 14 3 15 18
3 9 -7 19 -15 21 -16z m-623 -40 c-5 -12 -10 -13 -17 -6 -8 8 -7 16 2 26 16
17 24 5 15 -20z m550 0 c-3 -8 -6 -19 -6 -24 0 -10 -53 -12 -87 -3 -16 5 -21
12 -19 28 3 11 5 21 5 21 1 0 26 -2 57 -3 44 -3 54 -7 50 -19z m590 14 c96 -1
117 -4 131 -19 14 -16 14 -18 -9 -27 -26 -10 -82 -13 -180 -12 -45 1 -61 6
-78 23 -27 29 -27 51 0 43 12 -4 72 -7 136 -8z m214 -37 c0 -13 -5 -18 -15
-14 -16 7 -19 17 -8 27 12 13 23 7 23 -13z m56 -48 c-2 -1 -11 0 -20 4 -10 4
-16 17 -16 38 l1 31 19 -35 c10 -19 17 -36 16 -38z m-1401 -76 l-7 -115 -50
-11 c-28 -6 -53 -8 -55 -6 -3 3 8 33 25 68 16 35 42 91 57 126 15 34 30 60 33
58 2 -3 1 -57 -3 -120z m1315 99 c31 -16 39 -39 18 -49 -10 -5 -10 -7 0 -12 6
-3 12 -17 12 -30 0 -14 6 -24 15 -24 9 0 12 6 9 15 -4 9 0 15 9 15 24 0 66
-39 87 -81 19 -36 18 -43 -2 -40 -12 2 -10 -17 2 -24 6 -3 10 -17 10 -31 0
-13 -4 -24 -10 -24 -5 0 -10 9 -10 21 0 11 -4 18 -9 15 -10 -7 -55 83 -47 92
4 3 18 -5 33 -19 l28 -24 -20 24 c-47 56 -93 35 -80 -37 l7 -37 -37 35 c-21
20 -34 42 -32 51 3 12 -2 17 -19 17 -14 0 -24 -6 -24 -15 0 -14 -57 -43 -86
-43 -9 0 -28 9 -42 21 l-27 21 -3 -21 c-4 -26 -37 -28 -107 -6 -54 16 -74 14
-26 -3 27 -9 31 -16 31 -46 0 -44 -5 -45 -26 -4 -16 31 -51 67 -67 68 -10 0 1
-43 24 -87 21 -41 25 -73 9 -73 -5 0 -10 -5 -10 -11 0 -5 5 -7 10 -4 6 3 10
-1 10 -10 0 -9 -4 -13 -10 -10 -6 3 -10 -5 -10 -19 0 -14 5 -28 10 -31 6 -3
10 -17 10 -31 0 -13 -4 -24 -10 -24 -5 0 -10 12 -10 28 -1 48 -74 182 -100
182 -5 0 -10 -24 -12 -52 l-3 -53 -29 50 c-17 28 -31 69 -34 96 -4 44 -6 47
-23 36 -11 -7 -19 -17 -19 -24 0 -7 -9 -27 -20 -45 -17 -27 -20 -29 -20 -12 0
29 -20 84 -30 84 -5 0 -10 -12 -12 -27 -2 -19 -10 -29 -28 -34 -16 -4 -19 -7
-7 -8 18 -1 23 -16 8 -25 -15 -9 -51 -85 -51 -106 0 -11 -4 -20 -9 -20 -13 0
-29 57 -30 109 -1 54 -9 63 -28 34 -25 -37 -43 -30 -31 13 14 52 1 55 -20 5
l-17 -43 -62 6 c-35 4 -73 10 -85 15 l-23 9 25 10 c14 5 41 8 60 6 l35 -4 -35
11 c-19 6 -39 17 -43 25 -5 8 -17 12 -30 9 -12 -3 -29 -1 -37 5 -13 8 -13 11
1 25 14 14 23 15 58 5 28 -7 47 -8 54 -1 8 6 36 5 82 -5 39 -8 79 -13 90 -12
35 6 -158 41 -212 39 -33 -1 -53 2 -53 9 0 18 31 24 52 11 11 -7 17 -8 14 -2
-13 20 25 28 77 14 28 -7 65 -12 82 -12 24 1 21 3 -13 9 -24 3 -47 12 -52 20
-5 8 -15 10 -26 6 -12 -5 -6 6 15 28 33 34 34 34 53 16 12 -11 27 -16 37 -12
14 5 14 4 -1 -12 -10 -9 -18 -22 -18 -27 0 -14 58 -11 90 6 30 15 30 15 30
-11 0 -23 3 -26 28 -20 15 4 34 15 42 25 14 16 16 16 33 1 20 -19 82 -40 119
-40 14 0 45 10 70 23 39 20 49 21 64 10 10 -7 23 -13 28 -12 6 0 5 3 -1 6 -21
8 -15 31 12 49 31 20 115 12 115 -12 0 -31 34 -7 35 25 0 27 25 24 25 -3 0
-14 5 -26 10 -26 6 0 10 14 10 30 0 24 4 30 21 30 18 0 20 -4 14 -30 -4 -19
-3 -30 4 -30 6 0 11 14 11 30 0 35 19 47 50 30 15 -8 19 -17 15 -31 -5 -14 -3
-17 9 -13 10 4 16 1 16 -7 0 -7 3 -9 6 -6 4 4 -5 22 -19 40 -14 19 -23 37 -20
41 9 8 10 8 43 -9z m-850 -27 c0 -5 -4 -8 -10 -8 -5 0 -10 10 -10 23 0 18 2
19 10 7 5 -8 10 -18 10 -22z m173 -2 c8 -24 6 -32 -9 -43 -15 -11 -19 -11 -27
2 -4 9 -5 24 -2 35 7 24 -7 26 -25 5 -17 -21 -30 -19 -30 4 0 12 8 21 23 24
43 9 60 2 70 -27z m411 19 c25 -4 46 -12 46 -17 0 -11 -79 -1 -96 13 -6 5 -14
6 -17 2 -4 -3 -7 -1 -7 6 0 7 6 11 14 8 7 -3 34 -9 60 -12z m-544 -5 c0 -5 -4
-10 -10 -10 -5 0 -10 5 -10 10 0 6 5 10 10 10 6 0 10 -4 10 -10z m915 -51 c11
-16 2 -17 -25 -2 -24 12 -24 13 -3 13 12 0 25 -5 28 -11z m-155 -149 c0 -11
-4 -20 -9 -20 -13 0 -32 26 -24 33 13 14 33 6 33 -13z m-230 -10 c0 -5 -2 -10
-4 -10 -3 0 -8 5 -11 10 -3 6 -1 10 4 10 6 0 11 -4 11 -10z m170 -12 c0 -24
-16 -56 -23 -48 -3 3 -8 20 -12 38 -6 28 -4 32 14 32 15 0 21 -6 21 -22z
m-990 -4 c0 -2 -9 -4 -21 -4 -11 0 -18 4 -14 10 5 8 35 3 35 -6z m865 6 c3 -5
12 -7 20 -3 11 4 15 -2 15 -20 0 -31 -9 -57 -20 -57 -13 0 -52 69 -45 80 8 13
22 13 30 0z m265 -115 c30 -32 40 -31 40 3 0 15 5 45 11 67 l11 40 25 -48 c13
-27 27 -71 30 -98 3 -27 9 -49 12 -49 14 0 31 24 31 43 0 32 21 14 61 -53 62
-102 82 -164 87 -265 3 -81 1 -93 -20 -125 -35 -53 -94 -76 -207 -83 -53 -3
-145 -17 -205 -31 -61 -14 -112 -24 -114 -21 -2 2 -6 32 -9 67 -4 47 0 80 16
132 11 37 21 88 21 112 0 45 -17 94 -32 94 -5 0 -4 -9 2 -19 16 -32 12 -112
-11 -176 -16 -47 -20 -78 -17 -140 l3 -80 -60 -8 c-33 -4 -133 -8 -221 -9
-125 -2 -165 1 -178 11 -11 10 -20 11 -27 4 -14 -14 -114 3 -165 28 -22 12
-46 30 -53 41 -21 33 -24 131 -7 190 10 36 14 89 13 168 -2 110 -1 117 27 167
16 29 39 62 52 74 l24 22 0 -29 c1 -16 9 -54 20 -84 11 -30 19 -71 20 -90 0
-58 19 -21 29 58 6 46 17 82 31 102 13 18 31 48 41 68 l18 37 1 -43 c0 -41 23
-92 41 -92 4 0 5 16 2 35 -4 24 0 43 13 64 l19 30 40 -85 c22 -46 43 -84 47
-84 8 0 28 58 28 82 0 63 67 -74 76 -157 4 -30 11 -55 16 -55 19 0 39 73 41
149 1 44 5 74 8 69 11 -18 26 0 34 39 l7 36 33 -59 c19 -33 43 -68 54 -78 21
-19 21 -19 22 35 1 30 4 68 8 84 7 30 7 29 25 -22 9 -28 24 -57 32 -63 12 -11
14 -7 14 23 0 20 5 39 10 42 6 3 10 16 10 28 0 20 2 20 24 -8 l23 -29 8 33 7
34 18 -52 c9 -28 28 -63 40 -76z m-1383 52 c-41 -54 -97 -165 -123 -246 -38
-116 -74 -309 -74 -397 0 -80 -22 -152 -51 -169 -10 -7 -11 26 -6 159 6 172 5
169 52 232 5 7 6 17 2 21 -5 4 -13 1 -18 -7 -30 -44 32 210 86 350 29 77 53
99 113 110 47 7 53 -9 19 -53z m1403 -14 c0 -27 0 -27 -14 -7 -8 11 -18 33
-22 49 l-7 28 22 -22 c11 -11 21 -33 21 -48z m129 0 c0 -41 -2 -45 -11 -26
-10 20 -4 73 7 73 3 0 5 -21 4 -47z m-1233 -29 c9 -24 15 -47 12 -50 -6 -5
-108 33 -121 46 -15 14 2 48 22 43 9 -2 23 3 31 11 17 22 34 7 56 -50z m127
39 c5 -3 4 -10 -2 -16 -17 -17 -13 -29 9 -22 26 8 25 1 -2 -35 -21 -29 -51
-38 -75 -22 -10 6 -42 90 -43 110 0 5 103 -9 113 -15z m1152 -39 c21 -50 19
-62 -5 -31 -18 22 -28 67 -15 67 3 0 12 -16 20 -36z m-435 1 c0 -8 -2 -15 -4
-15 -2 0 -6 7 -10 15 -3 8 -1 15 4 15 6 0 10 -7 10 -15z m-1329 -86 c-12 -24
-21 -51 -21 -60 0 -24 -27 -49 -53 -49 -22 1 -22 1 2 20 13 11 21 20 18 20 -3
0 10 26 29 57 19 31 34 62 35 67 0 7 3 6 5 -1 3 -6 -4 -31 -15 -54z m189 53
c0 -11 -22 -32 -32 -32 -5 0 -4 9 2 20 11 20 30 28 30 12z m247 -14 l73 -23 0
-37 c0 -24 -5 -38 -13 -38 -15 0 -143 36 -155 44 -9 5 8 76 18 76 3 0 38 -10
77 -22z m-272 -60 c-4 -18 -12 -37 -17 -43 -7 -7 -9 -1 -4 18 8 35 -1 35 -15
1 -7 -21 -6 -31 6 -44 20 -22 9 -81 -17 -87 -18 -5 -26 -33 -9 -33 16 0 -5
-55 -22 -58 -20 -4 -24 34 -4 41 6 2 9 8 5 12 -4 4 -14 2 -22 -4 -13 -11 -14
-8 -6 19 5 18 14 38 19 44 6 7 8 15 5 19 -8 8 18 77 29 77 4 0 6 4 3 9 -6 8
37 61 49 61 4 0 4 -15 0 -32z m425 15 c0 -38 -13 -63 -31 -63 -15 0 -19 7 -19
40 0 36 3 40 25 40 17 0 25 -5 25 -17z m-165 -54 c77 -19 86 -24 91 -48 3 -14
10 -37 15 -50 9 -21 8 -23 -15 -17 -13 3 -26 1 -28 -4 -3 -10 -149 3 -169 15
-5 4 -9 16 -9 28 0 26 19 97 26 97 3 0 43 -10 89 -21z m158 -35 c3 -3 1 -19
-5 -36 -12 -32 -22 -28 -32 15 -5 22 -3 27 12 27 10 0 21 -3 25 -6z m1295 -35
c-3 -8 -7 -3 -11 10 -4 17 -3 21 5 13 5 -5 8 -16 6 -23z m-1955 -54 c-3 -9 -8
-14 -10 -11 -3 3 -2 9 2 15 9 16 15 13 8 -4z m677 5 c0 -5 -4 -10 -9 -10 -6 0
-13 5 -16 10 -3 6 1 10 9 10 9 0 16 -4 16 -10z m-157 -16 c54 -6 57 -8 57 -35
0 -15 -3 -30 -7 -32 -14 -8 -185 11 -196 22 -5 5 -7 22 -3 36 6 25 10 27 49
21 23 -3 68 -8 100 -12z m143 -60 c-3 -8 -19 -14 -36 -14 -27 0 -30 3 -30 29
0 26 4 30 33 33 33 3 46 -15 33 -48z m-660 -52 c-12 -12 -18 8 -10 35 l8 28 4
-28 c2 -16 1 -31 -2 -35z m164 -11 c0 -32 -16 -44 -39 -32 -21 12 -27 43 -15
76 6 14 9 13 30 -6 13 -12 24 -30 24 -38z m332 43 l67 -6 6 -42 c4 -22 12 -49
17 -59 13 -25 4 -32 -16 -11 -22 22 -29 13 -16 -21 l11 -28 -113 7 c-62 4
-115 9 -119 12 -10 6 11 67 25 76 8 5 7 8 -2 8 -8 0 -10 9 -6 28 11 53 13 54
47 49 17 -3 62 -9 99 -13z m142 -41 c-4 -21 -7 -51 -6 -67 2 -36 -8 -27 -25
22 -21 60 -17 82 13 82 25 0 26 -2 18 -37z m-504 -80 c0 -7 -6 -16 -14 -19 -8
-3 -12 -13 -9 -22 4 -15 3 -15 -6 -2 -6 8 -11 26 -11 39 0 17 4 22 16 17 15
-6 15 -4 3 11 -13 16 -12 17 4 4 9 -7 17 -20 17 -28z m1828 -178 c0 -52 -4
-95 -8 -95 -4 0 -17 21 -28 48 -23 55 -20 145 6 175 16 18 17 17 23 -7 4 -14
7 -68 7 -121z m-1858 94 c0 -5 -4 -9 -10 -9 -5 0 -10 7 -10 16 0 8 5 12 10 9
6 -3 10 -10 10 -16z m549 -10 c23 -30 23 -32 8 -65 -10 -21 -26 -36 -42 -40
-14 -3 -27 -5 -28 -3 -2 2 -1 34 1 72 4 78 20 87 61 36z m1249 -27 c2 -12 -4
-32 -12 -44 -15 -21 -16 -20 -14 25 2 47 20 60 26 19z m-65 -130 c0 -74 -3
-136 -6 -138 -2 -3 -47 -6 -98 -8 -52 -2 -134 -7 -184 -11 -59 -5 -109 -4
-145 4 l-55 11 0 105 c0 92 2 105 17 105 9 0 20 4 23 10 3 6 23 10 43 10 20 0
62 7 92 16 80 22 155 32 240 30 l75 -1 -2 -133z m-1756 106 c-3 -8 -6 -5 -6 6
-1 11 2 17 5 13 3 -3 4 -12 1 -19z m639 -7 c14 -14 133 -39 199 -42 93 -5 284
-4 350 0 l60 5 0 -100 0 -99 -95 -7 c-52 -3 -124 -11 -160 -17 -137 -22 -293
-5 -365 39 -18 11 -35 16 -40 12 -9 -8 1 160 11 196 7 23 23 28 40 13z m1179
-81 c17 -32 10 -38 -19 -17 -11 8 -15 19 -10 30 8 23 11 22 29 -13z m-1257
-12 c-2 -24 -9 -34 -28 -40 -24 -7 -24 -8 3 -4 24 3 27 0 27 -25 0 -31 -3 -33
-41 -43 -23 -5 -28 -2 -34 21 -4 18 -2 29 5 31 9 3 9 6 0 12 -17 11 -3 68 18
73 45 12 53 8 50 -25z m1272 -38 c22 -11 40 -27 40 -35 0 -12 -7 -12 -45 2
-32 11 -45 20 -45 34 0 24 2 24 50 -1z m37 -63 c1 -2 5 -21 9 -44 5 -35 3 -42
-12 -45 -11 -3 -29 -1 -42 4 -16 5 -31 3 -47 -8 -33 -22 -33 -1 0 32 14 14 25
33 24 42 0 14 -2 13 -9 -3 -8 -20 -8 -20 -16 -1 -5 13 -3 21 4 24 7 2 12 10
12 18 0 12 5 12 37 -1 20 -9 38 -17 40 -18z m83 -48 c0 -27 -21 -54 -33 -42
-4 3 -7 18 -7 32 0 14 -4 32 -9 40 -5 8 -7 20 -4 28 9 23 53 -25 53 -58z"/>
<path d="M2483 3590 c5 -18 0 -20 -49 -20 -30 0 -81 -9 -114 -21 -33 -11 -69
-18 -80 -14 -23 7 -29 -19 -6 -28 10 -4 0 -21 -37 -60 -102 -108 -136 -150
-131 -159 4 -6 14 -8 24 -5 16 4 17 1 9 -20 -5 -13 -9 -35 -9 -48 0 -13 -12
-38 -27 -56 l-27 -32 27 5 c25 5 27 3 27 -30 0 -38 35 -122 51 -122 12 0 12 1
-12 55 -16 36 -20 59 -15 92 3 26 2 43 -5 43 -12 0 -2 64 17 102 18 34 17 38
-1 38 -20 0 41 87 109 154 64 64 101 79 201 82 44 2 79 7 78 12 -1 5 35 -6 80
-24 89 -36 126 -44 93 -19 -10 8 -47 24 -82 35 -35 12 -74 30 -88 41 -31 24
-40 24 -33 -1z"/>
<path d="M2653 3343 c9 -2 23 -2 30 0 6 3 -1 5 -18 5 -16 0 -22 -2 -12 -5z"/>
<path d="M3021 3031 c-16 -29 -14 -71 4 -71 31 0 47 78 18 87 -6 2 -16 -5 -22
-16z m15 -37 c-4 -9 -9 -15 -11 -12 -3 3 -3 13 1 22 4 9 9 15 11 12 3 -3 3
-13 -1 -22z"/>
<path d="M2760 3002 c0 -30 63 -52 104 -36 12 5 10 11 -13 30 -36 30 -91 33
-91 6z m48 -9 c6 -19 -25 -16 -32 3 -4 11 -1 14 11 12 9 -2 18 -9 21 -15z"/>
<path d="M3242 2664 c-44 -43 -48 -50 -19 -29 20 15 37 30 37 34 0 4 14 15 31
25 28 17 38 17 110 6 95 -15 118 -7 26 9 -113 20 -122 17 -185 -45z"/>
<path d="M1840 2709 c0 -5 5 -7 10 -4 6 3 10 8 10 11 0 2 -4 4 -10 4 -5 0 -10
-5 -10 -11z"/>
<path d="M1795 2660 c-3 -5 -1 -10 4 -10 6 0 11 5 11 10 0 6 -2 10 -4 10 -3 0
-8 -4 -11 -10z"/>
<path d="M1795 2610 c3 -5 8 -10 11 -10 2 0 4 5 4 10 0 6 -5 10 -11 10 -5 0
-7 -4 -4 -10z"/>
<path d="M1896 2463 c-6 -14 -5 -15 5 -6 7 7 10 15 7 18 -3 3 -9 -2 -12 -12z"/>
<path d="M1990 2464 c0 -8 5 -12 10 -9 6 4 8 11 5 16 -9 14 -15 11 -15 -7z"/>
<path d="M1890 2420 c0 -5 5 -10 11 -10 5 0 7 5 4 10 -3 6 -8 10 -11 10 -2 0
-4 -4 -4 -10z"/>
<path d="M1990 2414 c0 -8 5 -12 10 -9 6 4 8 11 5 16 -9 14 -15 11 -15 -7z"/>
<path d="M1840 2409 c0 -5 5 -7 10 -4 6 3 10 8 10 11 0 2 -4 4 -10 4 -5 0 -10
-5 -10 -11z"/>
<path d="M1990 2269 c0 -5 5 -7 10 -4 6 3 10 8 10 11 0 2 -4 4 -10 4 -5 0 -10
-5 -10 -11z"/>
<path d="M2040 2270 c0 -5 5 -10 11 -10 5 0 7 5 4 10 -3 6 -8 10 -11 10 -2 0
-4 -4 -4 -10z"/>
<path d="M2090 2270 c0 -5 5 -10 11 -10 5 0 7 5 4 10 -3 6 -8 10 -11 10 -2 0
-4 -4 -4 -10z"/>
<path d="M1945 2220 c-3 -5 -1 -10 4 -10 6 0 11 5 11 10 0 6 -2 10 -4 10 -3 0
-8 -4 -11 -10z"/>
<path d="M2045 2220 c-3 -5 -1 -10 4 -10 6 0 11 5 11 10 0 6 -2 10 -4 10 -3 0
-8 -4 -11 -10z"/>
<path d="M2090 2220 c0 -5 5 -10 11 -10 5 0 7 5 4 10 -3 6 -8 10 -11 10 -2 0
-4 -4 -4 -10z"/>
<path d="M2190 2220 c0 -5 5 -10 11 -10 5 0 7 5 4 10 -3 6 -8 10 -11 10 -2 0
-4 -4 -4 -10z"/>
<path d="M2090 2170 c0 -5 5 -10 10 -10 6 0 10 5 10 10 0 6 -4 10 -10 10 -5 0
-10 -4 -10 -10z"/>
<path d="M2090 2120 c0 -5 5 -10 11 -10 5 0 7 5 4 10 -3 6 -8 10 -11 10 -2 0
-4 -4 -4 -10z"/>
<path d="M2140 2120 c0 -5 5 -10 11 -10 5 0 7 5 4 10 -3 6 -8 10 -11 10 -2 0
-4 -4 -4 -10z"/>
<path d="M1840 2069 c0 -5 5 -7 10 -4 6 3 10 8 10 11 0 2 -4 4 -10 4 -5 0 -10
-5 -10 -11z"/>
<path d="M2045 2070 c-3 -5 -1 -10 4 -10 6 0 11 5 11 10 0 6 -2 10 -4 10 -3 0
-8 -4 -11 -10z"/>
<path d="M2190 2069 c0 -5 5 -7 10 -4 6 3 10 8 10 11 0 2 -4 4 -10 4 -5 0 -10
-5 -10 -11z"/>
<path d="M1840 2020 c0 -5 5 -10 11 -10 5 0 7 5 4 10 -3 6 -8 10 -11 10 -2 0
-4 -4 -4 -10z"/>
<path d="M1895 2020 c3 -5 8 -10 11 -10 2 0 4 5 4 10 0 6 -5 10 -11 10 -5 0
-7 -4 -4 -10z"/>
<path d="M1995 2020 c3 -5 8 -10 11 -10 2 0 4 5 4 10 0 6 -5 10 -11 10 -5 0
-7 -4 -4 -10z"/>
<path d="M2045 2020 c-3 -5 -1 -10 4 -10 6 0 11 5 11 10 0 6 -2 10 -4 10 -3 0
-8 -4 -11 -10z"/>
<path d="M2190 2020 c0 -5 5 -10 10 -10 6 0 10 5 10 10 0 6 -4 10 -10 10 -5 0
-10 -4 -10 -10z"/>
<path d="M1890 1969 c0 -5 5 -7 10 -4 6 3 10 8 10 11 0 2 -4 4 -10 4 -5 0 -10
-5 -10 -11z"/>
<path d="M1940 1970 c0 -5 5 -10 10 -10 6 0 10 5 10 10 0 6 -4 10 -10 10 -5 0
-10 -4 -10 -10z"/>
<path d="M1990 1970 c0 -5 5 -10 10 -10 6 0 10 5 10 10 0 6 -4 10 -10 10 -5 0
-10 -4 -10 -10z"/>
<path d="M2040 1970 c0 -5 5 -10 11 -10 5 0 7 5 4 10 -3 6 -8 10 -11 10 -2 0
-4 -4 -4 -10z"/>
<path d="M2090 1970 c0 -5 5 -10 11 -10 5 0 7 5 4 10 -3 6 -8 10 -11 10 -2 0
-4 -4 -4 -10z"/>
<path d="M1890 1920 c0 -5 5 -10 11 -10 5 0 7 5 4 10 -3 6 -8 10 -11 10 -2 0
-4 -4 -4 -10z"/>
<path d="M1940 1920 c0 -5 5 -10 10 -10 6 0 10 5 10 10 0 6 -4 10 -10 10 -5 0
-10 -4 -10 -10z"/>
<path d="M2090 1920 c0 -5 5 -10 11 -10 5 0 7 5 4 10 -3 6 -8 10 -11 10 -2 0
-4 -4 -4 -10z"/>
<path d="M1940 1870 c0 -5 5 -10 11 -10 5 0 7 5 4 10 -3 6 -8 10 -11 10 -2 0
-4 -4 -4 -10z"/>
<path d="M2045 1870 c-3 -5 -1 -10 4 -10 6 0 11 5 11 10 0 6 -2 10 -4 10 -3 0
-8 -4 -11 -10z"/>
<path d="M2090 1870 c0 -5 5 -10 11 -10 5 0 7 5 4 10 -3 6 -8 10 -11 10 -2 0
-4 -4 -4 -10z"/>
<path d="M2145 1870 c-3 -5 -1 -10 4 -10 6 0 11 5 11 10 0 6 -2 10 -4 10 -3 0
-8 -4 -11 -10z"/>
<path d="M1840 1819 c0 -5 5 -7 10 -4 6 3 10 8 10 11 0 2 -4 4 -10 4 -5 0 -10
-5 -10 -11z"/>
<path d="M1895 1820 c3 -5 8 -10 11 -10 2 0 4 5 4 10 0 6 -5 10 -11 10 -5 0
-7 -4 -4 -10z"/>
<path d="M1840 1770 c0 -5 5 -10 11 -10 5 0 7 5 4 10 -3 6 -8 10 -11 10 -2 0
-4 -4 -4 -10z"/>
<path d="M2045 1770 c-3 -5 -1 -10 4 -10 6 0 11 5 11 10 0 6 -2 10 -4 10 -3 0
-8 -4 -11 -10z"/>
<path d="M2240 1770 c0 -5 5 -10 11 -10 5 0 7 5 4 10 -3 6 -8 10 -11 10 -2 0
-4 -4 -4 -10z"/>
<path d="M2040 1720 c0 -5 5 -10 10 -10 6 0 10 5 10 10 0 6 -4 10 -10 10 -5 0
-10 -4 -10 -10z"/>
<path d="M2090 1720 c0 -5 5 -10 11 -10 5 0 7 5 4 10 -3 6 -8 10 -11 10 -2 0
-4 -4 -4 -10z"/>
<path d="M2140 1719 c0 -5 5 -7 10 -4 6 3 10 8 10 11 0 2 -4 4 -10 4 -5 0 -10
-5 -10 -11z"/>
<path d="M1840 1669 c0 -5 5 -7 10 -4 6 3 10 8 10 11 0 2 -4 4 -10 4 -5 0 -10
-5 -10 -11z"/>
<path d="M3445 2544 c-11 -9 -38 -25 -60 -35 -22 -10 -33 -19 -24 -19 15 0
109 55 109 65 0 7 -3 6 -25 -11z"/>
<path d="M2885 2070 c3 -5 8 -10 11 -10 2 0 4 5 4 10 0 6 -5 10 -11 10 -5 0
-7 -4 -4 -10z"/>
<path d="M2540 1970 c0 -5 5 -10 10 -10 6 0 10 5 10 10 0 6 -4 10 -10 10 -5 0
-10 -4 -10 -10z"/>
<path d="M2635 1970 c-3 -5 -1 -10 4 -10 6 0 11 5 11 10 0 6 -2 10 -4 10 -3 0
-8 -4 -11 -10z"/>
<path d="M2680 1870 c0 -5 4 -10 9 -10 6 0 13 5 16 10 3 6 -1 10 -9 10 -9 0
-16 -4 -16 -10z"/>
<path d="M2635 1820 c3 -5 8 -10 11 -10 2 0 4 5 4 10 0 6 -5 10 -11 10 -5 0
-7 -4 -4 -10z"/>
<path d="M2685 1820 c4 -6 11 -8 16 -5 14 9 11 15 -7 15 -8 0 -12 -5 -9 -10z"/>
<path d="M2635 1770 c-3 -5 -1 -10 4 -10 6 0 11 5 11 10 0 6 -2 10 -4 10 -3 0
-8 -4 -11 -10z"/>
<path d="M2740 1770 c0 -5 5 -10 11 -10 5 0 7 5 4 10 -3 6 -8 10 -11 10 -2 0
-4 -4 -4 -10z"/>
<path d="M2690 1719 c0 -5 5 -7 10 -4 6 3 10 8 10 11 0 2 -4 4 -10 4 -5 0 -10
-5 -10 -11z"/>
<path d="M2190 1569 c0 -5 5 -7 10 -4 6 3 10 8 10 11 0 2 -4 4 -10 4 -5 0 -10
-5 -10 -11z"/>
<path d="M2240 1569 c0 -5 5 -7 10 -4 6 3 10 8 10 11 0 2 -4 4 -10 4 -5 0 -10
-5 -10 -11z"/>
<path d="M2878 1244 c-5 -4 -8 -16 -8 -28 0 -14 3 -17 11 -9 6 6 9 19 7 28 -1
9 -6 13 -10 9z"/>
<path d="M2826 1158 c-18 -21 -42 -24 -50 -5 -5 10 -7 10 -12 0 -7 -15 -31
-17 -36 -4 -2 6 -18 6 -38 2 l-35 -8 28 -8 c46 -12 175 -2 193 16 14 15 14 17
-9 21 -17 3 -31 -1 -41 -14z"/>
<path d="M2295 1130 c-11 -5 -41 -9 -67 -9 -26 -1 -50 -5 -53 -11 -8 -13 19
-13 86 1 30 6 60 11 67 12 6 0 12 4 12 9 0 10 -19 9 -45 -2z"/>
<path d="M2008 1033 c7 -3 16 -2 19 1 4 3 -2 6 -13 5 -11 0 -14 -3 -6 -6z"/>
<path d="M2970 457 c-61 -16 -61 -41 0 -45 61 -5 132 16 128 37 -4 20 -66 24
-128 8z m113 -14 c-7 -2 -21 -2 -30 0 -10 3 -4 5 12 5 17 0 24 -2 18 -5z
m-108 -13 c3 -5 2 -10 -4 -10 -5 0 -13 5 -16 10 -3 6 -2 10 4 10 5 0 13 -4 16
-10z"/>
<path d="M2315 406 c-5 -2 -22 -7 -37 -10 -35 -8 -36 -33 -2 -46 28 -11 166
-13 202 -4 12 4 22 14 22 24 0 10 -10 20 -22 24 -30 8 -150 17 -163 12z m163
-31 c13 -13 -26 -25 -78 -23 l-55 2 48 3 c47 4 63 18 30 26 -10 2 -3 3 16 1
18 -2 36 -6 39 -9z"/>
<path d="M3085 1270 c3 -5 8 -10 11 -10 2 0 4 5 4 10 0 6 -5 10 -11 10 -5 0
-7 -4 -4 -10z"/>
<path d="M1495 1220 c3 -5 8 -10 11 -10 2 0 4 5 4 10 0 6 -5 10 -11 10 -5 0
-7 -4 -4 -10z"/>
<path d="M1445 1180 c-3 -5 -1 -10 4 -10 6 0 11 5 11 10 0 6 -2 10 -4 10 -3 0
-8 -4 -11 -10z"/>
<path d="M1490 1180 c0 -5 5 -10 11 -10 5 0 7 5 4 10 -3 6 -8 10 -11 10 -2 0
-4 -4 -4 -10z"/>
<path d="M1445 1080 c-3 -5 -1 -10 4 -10 6 0 11 5 11 10 0 6 -2 10 -4 10 -3 0
-8 -4 -11 -10z"/>
<path d="M3180 1080 c0 -5 5 -10 10 -10 6 0 10 5 10 10 0 6 -4 10 -10 10 -5 0
-10 -4 -10 -10z"/>
<path d="M1390 1030 c0 -5 5 -10 10 -10 6 0 10 5 10 10 0 6 -4 10 -10 10 -5 0
-10 -4 -10 -10z"/>
<path d="M3285 1020 c3 -5 8 -10 11 -10 2 0 4 5 4 10 0 6 -5 10 -11 10 -5 0
-7 -4 -4 -10z"/>
<path d="M1295 981 c-3 -5 -1 -12 5 -16 5 -3 10 1 10 9 0 18 -6 21 -15 7z"/>
<path d="M3230 974 c0 -8 5 -12 10 -9 6 4 8 11 5 16 -9 14 -15 11 -15 -7z"/>
<path d="M3330 980 c0 -5 5 -10 11 -10 5 0 7 5 4 10 -3 6 -8 10 -11 10 -2 0
-4 -4 -4 -10z"/>
<path d="M1250 930 c0 -5 5 -10 11 -10 5 0 7 5 4 10 -3 6 -8 10 -11 10 -2 0
-4 -4 -4 -10z"/>
<path d="M3235 930 c-3 -5 -1 -10 4 -10 6 0 11 5 11 10 0 6 -2 10 -4 10 -3 0
-8 -4 -11 -10z"/>
<path d="M1250 880 c0 -5 5 -10 11 -10 5 0 7 5 4 10 -3 6 -8 10 -11 10 -2 0
-4 -4 -4 -10z"/>
<path d="M3330 880 c0 -5 5 -10 11 -10 5 0 7 5 4 10 -3 6 -8 10 -11 10 -2 0
-4 -4 -4 -10z"/>
<path d="M3380 879 c0 -5 5 -7 10 -4 6 3 10 8 10 11 0 2 -4 4 -10 4 -5 0 -10
-5 -10 -11z"/>
<path d="M1150 829 c0 -5 5 -7 10 -4 6 3 10 8 10 11 0 2 -4 4 -10 4 -5 0 -10
-5 -10 -11z"/>
<path d="M1200 830 c0 -5 5 -10 11 -10 5 0 7 5 4 10 -3 6 -8 10 -11 10 -2 0
-4 -4 -4 -10z"/>
<path d="M1250 830 c0 -5 5 -10 11 -10 5 0 7 5 4 10 -3 6 -8 10 -11 10 -2 0
-4 -4 -4 -10z"/>
<path d="M3285 830 c-3 -5 -1 -10 4 -10 6 0 11 5 11 10 0 6 -2 10 -4 10 -3 0
-8 -4 -11 -10z"/>
<path d="M3330 830 c0 -5 5 -10 11 -10 5 0 7 5 4 10 -3 6 -8 10 -11 10 -2 0
-4 -4 -4 -10z"/>
<path d="M3430 830 c0 -5 5 -10 10 -10 6 0 10 5 10 10 0 6 -4 10 -10 10 -5 0
-10 -4 -10 -10z"/>
<path d="M1195 780 c-3 -5 -1 -10 4 -10 6 0 11 5 11 10 0 6 -2 10 -4 10 -3 0
-8 -4 -11 -10z"/>
<path d="M3330 780 c0 -5 5 -10 11 -10 5 0 7 5 4 10 -3 6 -8 10 -11 10 -2 0
-4 -4 -4 -10z"/>
<path d="M3435 780 c-3 -5 -1 -10 4 -10 6 0 11 5 11 10 0 6 -2 10 -4 10 -3 0
-8 -4 -11 -10z"/>
<path d="M1195 730 c-3 -5 1 -10 10 -10 9 0 13 5 10 10 -3 6 -8 10 -10 10 -2
0 -7 -4 -10 -10z"/>
<path d="M3380 730 c0 -5 5 -10 11 -10 5 0 7 5 4 10 -3 6 -8 10 -11 10 -2 0
-4 -4 -4 -10z"/>
<path d="M1090 680 c0 -5 5 -10 10 -10 6 0 10 5 10 10 0 6 -4 10 -10 10 -5 0
-10 -4 -10 -10z"/>
<path d="M1195 680 c3 -5 11 -10 16 -10 6 0 7 5 4 10 -3 6 -11 10 -16 10 -6 0
-7 -4 -4 -10z"/>
<path d="M3330 679 c0 -5 5 -7 10 -4 6 3 10 8 10 11 0 2 -4 4 -10 4 -5 0 -10
-5 -10 -11z"/>
<path d="M3380 680 c0 -5 5 -10 11 -10 5 0 7 5 4 10 -3 6 -8 10 -11 10 -2 0
-4 -4 -4 -10z"/>
<path d="M1145 630 c3 -5 8 -10 11 -10 2 0 4 5 4 10 0 6 -5 10 -11 10 -5 0 -7
-4 -4 -10z"/>
<path d="M1200 630 c0 -5 5 -10 11 -10 5 0 7 5 4 10 -3 6 -8 10 -11 10 -2 0
-4 -4 -4 -10z"/>
<path d="M3480 630 c0 -5 5 -10 10 -10 6 0 10 5 10 10 0 6 -4 10 -10 10 -5 0
-10 -4 -10 -10z"/>
<path d="M3430 579 c0 -5 5 -7 10 -4 6 3 10 8 10 11 0 2 -4 4 -10 4 -5 0 -10
-5 -10 -11z"/>
<path d="M3480 580 c0 -5 5 -10 10 -10 6 0 10 5 10 10 0 6 -4 10 -10 10 -5 0
-10 -4 -10 -10z"/>
<path d="M1090 529 c0 -5 5 -7 10 -4 6 3 10 8 10 11 0 2 -4 4 -10 4 -5 0 -10
-5 -10 -11z"/>
<path d="M3330 530 c0 -5 5 -10 11 -10 5 0 7 5 4 10 -3 6 -8 10 -11 10 -2 0
-4 -4 -4 -10z"/>
<path d="M3385 530 c3 -5 8 -10 11 -10 2 0 4 5 4 10 0 6 -5 10 -11 10 -5 0 -7
-4 -4 -10z"/>
<path d="M3435 530 c-3 -5 -1 -10 4 -10 6 0 11 5 11 10 0 6 -2 10 -4 10 -3 0
-8 -4 -11 -10z"/>
<path d="M3480 530 c0 -5 5 -10 11 -10 5 0 7 5 4 10 -3 6 -8 10 -11 10 -2 0
-4 -4 -4 -10z"/>
<path d="M3530 529 c0 -5 5 -7 10 -4 6 3 10 8 10 11 0 2 -4 4 -10 4 -5 0 -10
-5 -10 -11z"/>
<path d="M1195 480 c3 -5 11 -10 16 -10 6 0 7 5 4 10 -3 6 -11 10 -16 10 -6 0
-7 -4 -4 -10z"/>
<path d="M1295 480 c-3 -5 -1 -10 4 -10 6 0 11 5 11 10 0 6 -2 10 -4 10 -3 0
-8 -4 -11 -10z"/>
<path d="M3380 480 c0 -5 5 -10 11 -10 5 0 7 5 4 10 -3 6 -8 10 -11 10 -2 0
-4 -4 -4 -10z"/>
<path d="M3480 480 c0 -5 5 -10 10 -10 6 0 10 5 10 10 0 6 -4 10 -10 10 -5 0
-10 -4 -10 -10z"/>
<path d="M3530 480 c0 -5 5 -10 10 -10 6 0 10 5 10 10 0 6 -4 10 -10 10 -5 0
-10 -4 -10 -10z"/>
<path d="M3420 465 c0 -8 5 -15 11 -15 5 0 7 -4 4 -10 -3 -5 -2 -10 3 -10 5 0
12 -40 15 -89 4 -48 9 -96 13 -105 4 -12 0 -16 -15 -16 -24 0 -27 -20 -8 -50
10 -17 9 -22 -3 -30 -10 -6 -11 -10 -2 -10 6 0 12 -9 12 -21 0 -12 -4 -17 -11
-14 -9 6 -6 -44 6 -82 9 -27 25 -11 25 22 0 22 6 38 15 41 8 4 15 10 15 16 0
5 -4 6 -10 3 -5 -3 -10 3 -10 14 0 10 6 22 13 24 10 4 10 6 0 6 -7 1 -13 10
-13 22 0 18 5 21 35 17 19 -2 35 0 35 4 0 4 -4 8 -10 8 -5 0 -10 7 -10 15 0 8
-4 15 -9 15 -14 0 -34 68 -28 96 2 13 0 24 -4 24 -5 0 -9 7 -9 15 0 8 5 15 12
15 9 0 9 3 0 12 -16 16 -15 45 1 51 8 4 7 6 -3 6 -8 1 -21 10 -28 21 -14 23
-42 27 -42 5z"/>
<path d="M1150 429 c0 -5 5 -7 10 -4 6 3 10 8 10 11 0 2 -4 4 -10 4 -5 0 -10
-5 -10 -11z"/>
<path d="M3330 429 c0 -5 5 -7 10 -4 6 3 10 8 10 11 0 2 -4 4 -10 4 -5 0 -10
-5 -10 -11z"/>
<path d="M3530 429 c0 -5 5 -7 10 -4 6 3 10 8 10 11 0 2 -4 4 -10 4 -5 0 -10
-5 -10 -11z"/>
<path d="M1050 379 c0 -5 5 -7 10 -4 6 3 10 8 10 11 0 2 -4 4 -10 4 -5 0 -10
-5 -10 -11z"/>
<path d="M1145 380 c4 -6 11 -8 16 -5 14 9 11 15 -7 15 -8 0 -12 -5 -9 -10z"/>
<path d="M3380 379 c0 -5 5 -7 10 -4 6 3 10 8 10 11 0 2 -4 4 -10 4 -5 0 -10
-5 -10 -11z"/>
<path d="M3580 380 c0 -5 5 -10 10 -10 6 0 10 5 10 10 0 6 -4 10 -10 10 -5 0
-10 -4 -10 -10z"/>
<path d="M1150 329 c0 -5 5 -7 10 -4 6 3 10 8 10 11 0 2 -4 4 -10 4 -5 0 -10
-5 -10 -11z"/>
<path d="M3380 329 c0 -5 5 -7 10 -4 6 3 10 8 10 11 0 2 -4 4 -10 4 -5 0 -10
-5 -10 -11z"/>
<path d="M1045 290 c-3 -5 -1 -10 4 -10 6 0 11 5 11 10 0 6 -2 10 -4 10 -3 0
-8 -4 -11 -10z"/>
<path d="M1090 279 c0 -5 5 -7 10 -4 6 3 10 8 10 11 0 2 -4 4 -10 4 -5 0 -10
-5 -10 -11z"/>
<path d="M1200 279 c0 -5 5 -7 10 -4 6 3 10 8 10 11 0 2 -4 4 -10 4 -5 0 -10
-5 -10 -11z"/>
<path d="M3535 280 c3 -5 8 -10 11 -10 2 0 4 5 4 10 0 6 -5 10 -11 10 -5 0 -7
-4 -4 -10z"/>
<path d="M3580 279 c0 -5 5 -7 10 -4 6 3 10 8 10 11 0 2 -4 4 -10 4 -5 0 -10
-5 -10 -11z"/>
<path d="M1000 230 c0 -5 5 -10 11 -10 5 0 7 5 4 10 -3 6 -8 10 -11 10 -2 0
-4 -4 -4 -10z"/>
<path d="M1095 230 c-3 -5 -1 -10 4 -10 6 0 11 5 11 10 0 6 -2 10 -4 10 -3 0
-8 -4 -11 -10z"/>
<path d="M1145 230 c3 -5 8 -10 11 -10 2 0 4 5 4 10 0 6 -5 10 -11 10 -5 0 -7
-4 -4 -10z"/>
<path d="M1200 230 c0 -5 5 -10 10 -10 6 0 10 5 10 10 0 6 -4 10 -10 10 -5 0
-10 -4 -10 -10z"/>
<path d="M1800 230 c-34 -7 -34 -7 -5 -8 17 0 41 4 55 8 33 11 0 11 -50 0z"/>
<path d="M3380 230 c0 -5 5 -10 10 -10 6 0 10 5 10 10 0 6 -4 10 -10 10 -5 0
-10 -4 -10 -10z"/>
<path d="M3580 230 c0 -5 5 -10 11 -10 5 0 7 5 4 10 -3 6 -8 10 -11 10 -2 0
-4 -4 -4 -10z"/>
<path d="M1000 179 c0 -5 5 -7 10 -4 6 3 10 8 10 11 0 2 -4 4 -10 4 -5 0 -10
-5 -10 -11z"/>
<path d="M1098 183 c7 -3 16 -2 19 1 4 3 -2 6 -13 5 -11 0 -14 -3 -6 -6z"/>
<path d="M1145 180 c3 -5 8 -10 11 -10 2 0 4 5 4 10 0 6 -5 10 -11 10 -5 0 -7
-4 -4 -10z"/>
<path d="M3580 179 c0 -5 5 -7 10 -4 6 3 10 8 10 11 0 2 -4 4 -10 4 -5 0 -10
-5 -10 -11z"/>
<path d="M1773 143 c9 -2 25 -2 35 0 9 3 1 5 -18 5 -19 0 -27 -2 -17 -5z"/>
<path d="M1095 130 c3 -5 10 -10 16 -10 5 0 9 5 9 10 0 6 -7 10 -16 10 -8 0
-12 -4 -9 -10z"/>
<path d="M1295 130 c3 -5 8 -10 11 -10 2 0 4 5 4 10 0 6 -5 10 -11 10 -5 0 -7
-4 -4 -10z"/>
<path d="M1720 120 c0 -11 2 -20 4 -20 2 0 6 9 9 20 3 11 1 20 -4 20 -5 0 -9
-9 -9 -20z"/>
<path d="M3535 130 c3 -5 8 -10 11 -10 2 0 4 5 4 10 0 6 -5 10 -11 10 -5 0 -7
-4 -4 -10z"/>
<path d="M1196 91 c-4 -5 -2 -12 3 -15 5 -4 12 -2 15 3 4 5 2 12 -3 15 -5 4
-12 2 -15 -3z"/>
<path d="M1201 34 c0 -11 3 -14 6 -6 3 7 2 16 -1 19 -3 4 -6 -2 -5 -13z"/>
<path d="M1145 30 c3 -5 8 -10 11 -10 2 0 4 5 4 10 0 6 -5 10 -11 10 -5 0 -7
-4 -4 -10z"/>
<path d="M3480 30 c0 -5 5 -10 10 -10 6 0 10 5 10 10 0 6 -4 10 -10 10 -5 0
-10 -4 -10 -10z"/>
<path d="M3530 30 c0 -5 5 -10 10 -10 6 0 10 5 10 10 0 6 -4 10 -10 10 -5 0
-10 -4 -10 -10z"/>
</g>
</svg>
