<?xml version="1.0" standalone="no"?>
<!DOCTYPE svg PUBLIC "-//W3C//DTD SVG 20010904//EN"
 "http://www.w3.org/TR/2001/REC-SVG-20010904/DTD/svg10.dtd">
<svg version="1.0" xmlns="http://www.w3.org/2000/svg"
 width="502.000000pt" height="497.000000pt" viewBox="0 0 502.000000 497.000000"
 preserveAspectRatio="xMidYMid meet">

<g transform="translate(0.000000,497.000000) scale(0.100000,-0.100000)"
fill="#000000" stroke="none">
<path d="M2216 4494 c-65 -20 -55 -26 14 -8 64 16 159 18 215 4 62 -17 115
-42 115 -55 0 -7 8 -19 17 -26 15 -12 16 -12 10 3 -9 25 20 12 69 -31 22 -20
57 -48 77 -64 25 -19 49 -54 78 -115 59 -121 91 -247 59 -227 -4 3 -6 -4 -3
-15 3 -11 10 -21 17 -21 6 -1 -54 -9 -134 -18 l-145 -16 -12 27 c-7 16 -15 28
-18 28 -3 0 -1 -9 5 -19 14 -27 13 -41 -4 -41 -8 0 -20 16 -26 35 -6 19 -15
35 -20 35 -5 0 -2 -16 6 -35 13 -32 13 -35 -3 -35 -10 0 -35 -3 -55 -6 -33 -6
-39 -4 -48 17 l-10 24 3 -24 c1 -19 -4 -26 -26 -32 -21 -6 -30 -4 -34 8 -6 14
-7 14 -13 -3 -6 -17 -9 -16 -23 11 l-16 30 5 -31 c4 -18 1 -34 -5 -38 -6 -4
-11 -1 -11 6 0 9 -3 10 -8 2 -8 -14 -112 -45 -124 -38 -4 3 -9 13 -9 22 -1 9
-5 4 -9 -13 l-7 -30 -12 25 -11 25 5 -27 c7 -34 -7 -37 -24 -5 -11 21 -11 20
-6 -6 4 -19 2 -26 -5 -22 -5 3 -10 13 -10 21 0 8 -4 14 -9 14 -6 0 -9 -11 -8
-25 2 -23 -7 -30 -76 -60 -71 -32 -121 -47 -90 -27 12 8 6 62 -7 62 -13 0 -21
-36 -15 -62 5 -19 1 -27 -20 -36 -20 -9 -26 -9 -29 1 -12 40 -17 49 -22 44 -4
-3 -2 -20 4 -36 6 -17 7 -31 2 -31 -5 0 -12 14 -15 31 -5 20 -10 27 -15 19 -5
-8 -9 -4 -13 12 -10 33 -8 40 5 32 8 -5 9 0 5 17 -4 13 -7 37 -7 53 0 21 -4
27 -15 22 -11 -4 -15 2 -15 22 0 15 -4 41 -9 58 -12 42 9 135 51 219 36 75
173 226 216 239 12 4 22 11 22 15 0 5 19 14 43 20 46 12 112 51 86 51 -8 0
-24 -7 -35 -15 -10 -8 -37 -20 -58 -26 -85 -23 -226 -162 -285 -279 -36 -71
-68 -190 -57 -209 3 -5 11 -44 16 -87 14 -104 28 -169 51 -228 32 -81 28 -92
-33 -99 -29 -3 -80 -17 -114 -31 -33 -13 -102 -36 -154 -51 -51 -14 -109 -34
-129 -44 -20 -10 -84 -37 -143 -61 -137 -53 -181 -99 -123 -130 22 -12 33 -9
112 27 77 36 332 109 446 129 49 8 48 -9 -3 -41 -47 -30 -92 -88 -128 -165
-22 -47 -26 -69 -26 -152 -1 -80 2 -100 17 -115 10 -11 17 -13 17 -5 0 7 8 12
18 12 10 0 22 3 26 7 4 4 23 8 42 8 l34 0 0 -130 c0 -115 -3 -136 -24 -180
-12 -27 -30 -56 -39 -64 -39 -32 -7 -41 62 -16 40 14 41 14 47 -11 10 -38 -5
-127 -27 -169 -11 -20 -18 -39 -15 -42 3 -3 30 9 60 26 31 17 58 31 61 31 15
0 3 -139 -15 -179 -11 -24 -20 -45 -20 -47 0 -11 30 -2 53 16 14 11 27 20 29
20 2 0 1 -37 -3 -83 -7 -85 -33 -154 -85 -224 -13 -17 -24 -34 -24 -37 0 -11
35 -6 64 9 45 23 49 20 42 -32 -6 -47 -35 -97 -111 -191 -42 -52 -44 -66 -10
-58 39 10 30 -7 -35 -67 -33 -31 -60 -59 -60 -63 0 -4 -7 -16 -16 -26 -16 -16
-15 -18 0 -24 25 -10 6 -27 -93 -83 -85 -49 -113 -72 -179 -145 -36 -39 -35
-56 4 -56 29 0 30 -5 3 -33 -12 -12 -40 -47 -64 -78 -51 -65 -96 -101 -148
-118 -42 -14 -50 -43 -17 -63 25 -16 25 -30 0 -53 -24 -22 -47 -91 -56 -170
-7 -69 -30 -127 -79 -201 -19 -29 -35 -55 -35 -58 0 -11 31 -6 60 9 17 9 30
11 30 6 0 -5 -13 -40 -29 -77 -38 -91 -44 -134 -31 -200 l11 -54 1334 0 1333
0 6 23 c3 12 9 73 12 135 6 98 9 112 25 112 30 0 31 17 5 57 -16 24 -31 68
-40 120 -8 44 -26 114 -40 156 -14 41 -24 81 -21 89 13 34 -42 150 -107 226
-16 18 -26 38 -22 43 8 13 -59 98 -140 178 l-66 65 32 13 c30 13 31 15 15 31
-10 9 -41 28 -70 42 -34 16 -51 30 -48 40 13 55 11 87 -7 116 -27 43 -138 114
-179 114 -25 0 -36 7 -54 37 -16 26 -19 38 -11 41 9 3 7 13 -7 35 -23 38 -61
148 -61 177 0 11 6 20 14 20 10 0 12 13 8 53 -4 43 -2 50 9 40 19 -19 29 -16
29 10 0 13 6 32 14 43 15 19 15 19 30 -1 16 -20 17 -19 44 12 22 25 43 35 111
52 129 32 231 91 332 191 76 75 92 99 144 203 43 87 68 126 96 148 22 17 39
37 39 45 0 8 9 23 20 34 11 11 17 26 14 33 -4 10 7 16 37 20 26 3 49 14 58 25
11 14 32 22 66 25 53 4 135 32 177 59 14 10 38 20 52 24 32 8 33 17 3 37 -21
13 -26 13 -62 -7 -22 -11 -51 -23 -65 -24 -14 -2 -30 -10 -36 -17 -5 -8 -23
-17 -40 -20 l-29 -6 30 26 c28 25 48 42 135 115 64 54 10 50 -70 -5 -19 -14
-66 -54 -103 -90 -58 -56 -113 -90 -211 -134 -4 -2 -5 10 -2 25 11 51 -28 75
-78 49 -37 -19 -33 -21 -50 20 -31 74 -167 173 -263 191 -18 3 -33 9 -33 13 0
3 16 30 35 60 32 50 55 107 69 172 3 16 15 29 27 32 13 4 19 12 18 24 -2 10 3
28 9 41 11 19 10 25 -11 45 -13 12 -27 32 -31 43 -7 24 -72 94 -86 94 -6 0
-10 8 -10 19 0 10 -7 24 -16 32 -10 8 -13 21 -9 36 7 28 6 28 -40 6 -35 -17
-36 -17 -62 9 l-26 26 34 15 c19 8 40 21 47 30 8 9 37 21 66 27 30 6 62 18 72
26 18 14 18 15 -3 9 -15 -4 -23 -1 -26 12 -4 14 -5 13 -6 -4 -1 -25 -16 -31
-24 -10 -3 7 -6 5 -6 -5 -1 -21 -12 -23 -30 -5 -12 10 -13 9 -7 -7 5 -15 2
-17 -14 -13 -13 3 -20 0 -20 -9 0 -16 -83 -58 -102 -52 -7 3 -20 -4 -31 -15
-10 -10 -25 -16 -32 -13 -7 2 -16 -2 -19 -10 -3 -8 -15 -14 -26 -14 -11 0 -20
-5 -20 -11 0 -6 -6 -9 -14 -6 -8 3 -17 1 -19 -6 -2 -7 -7 -10 -10 -7 -3 3 1
22 8 43 16 46 -1 51 -30 7 -11 -16 -37 -37 -59 -47 -22 -10 -56 -29 -76 -42
-19 -13 -48 -26 -65 -28 -16 -1 -35 -10 -41 -18 -14 -18 -89 -31 -78 -14 4 8
0 8 -15 0 -11 -7 -21 -14 -21 -17 0 -3 4 -3 9 1 13 8 62 -16 58 -28 -5 -16
-159 -66 -189 -62 -16 2 -28 -1 -28 -6 0 -16 -18 -10 -23 9 -4 13 -5 11 -6 -5
-1 -22 -21 -34 -21 -13 0 17 -18 11 -23 -7 -4 -17 -5 -17 -6 0 0 9 -5 17 -11
17 -5 0 -10 -8 -10 -17 -1 -16 -2 -16 -15 1 -12 16 -15 17 -15 4 0 -29 -125
-38 -146 -10 -13 16 -13 16 -14 -3 -1 -20 -1 -20 -15 -1 -13 17 -15 18 -15 3
0 -20 -16 -23 -23 -4 -4 8 -8 9 -14 1 -12 -17 -262 -27 -269 -11 -2 7 -22 12
-49 12 -45 -1 -58 8 -29 19 9 3 49 6 90 6 43 0 74 4 74 10 0 6 -15 11 -32 11
l-33 2 35 7 c50 10 13 24 -46 17 -48 -5 -71 9 -27 17 16 2 1 3 -31 2 -34 -2
-62 -8 -64 -14 -2 -7 -20 -12 -40 -12 -37 1 -37 1 -12 14 53 29 131 49 143 37
14 -14 71 -15 62 -1 -4 7 64 10 197 10 195 0 205 1 263 26 33 14 116 45 184
70 102 36 121 41 106 24 -23 -25 -12 -26 23 -1 29 20 87 38 78 23 -6 -10 90
-9 100 1 4 4 1 7 -7 7 -12 0 -11 2 1 11 12 8 10 9 -9 4 -16 -5 -21 -4 -17 4 5
8 0 8 -18 1 -14 -5 -28 -6 -30 -1 -7 10 161 86 191 86 12 1 30 8 40 18 11 9
34 17 52 19 17 1 37 8 43 15 6 7 18 13 27 13 13 -1 13 -3 -3 -15 -11 -8 -16
-15 -10 -15 18 1 46 28 33 32 -7 2 12 9 42 16 30 6 72 16 94 21 37 9 36 10
-15 4 -30 -3 -95 -18 -144 -34 -57 -19 -93 -26 -99 -20 -12 12 -46 112 -51
149 -8 60 -28 126 -58 195 -32 73 -85 157 -99 157 -4 0 -34 22 -67 49 -64 53
-139 95 -211 117 -59 18 -183 17 -245 -2z m707 -658 c3 -8 -1 -17 -10 -20 -20
-8 -25 -3 -17 18 8 20 20 21 27 2z m-240 -153 c3 -5 -6 -9 -20 -10 -19 -1 -22
1 -12 8 17 11 26 11 32 2z m42 -13 c-3 -5 -12 -10 -18 -10 -7 0 -6 4 3 10 19
12 23 12 15 0z m149 -64 c-6 -15 -123 -76 -146 -76 -5 0 -27 -9 -48 -19 -22
-11 -42 -15 -46 -10 -5 9 36 29 59 29 7 0 28 10 47 22 58 36 134 77 137 74 2
-2 1 -11 -3 -20z m433 -66 c27 -21 63 -68 63 -82 0 -5 -28 -9 -62 -9 l-63 -2
65 -7 c78 -9 100 -17 100 -37 0 -13 -11 -14 -72 -8 -110 12 -144 8 -217 -30
-97 -50 -119 -57 -142 -45 -16 9 -17 14 -8 32 9 16 8 19 -2 16 -7 -2 -17 -18
-21 -34 -14 -57 -100 -74 -124 -25 -17 34 -54 55 -54 31 0 -5 7 -10 16 -10 10
0 14 -7 12 -22 -3 -21 -7 -21 -163 -24 -136 -1 -173 -5 -245 -26 -47 -14 -98
-32 -115 -40 -47 -25 -95 -27 -95 -4 0 18 62 60 126 84 72 29 256 55 334 49
39 -3 55 -2 40 3 -66 21 -342 -10 -411 -46 -16 -8 -29 -11 -29 -7 1 19 18 32
56 42 23 6 44 17 47 24 3 7 38 21 78 31 41 9 103 29 138 43 58 22 69 24 105
13 23 -6 56 -20 73 -30 18 -11 55 -26 82 -34 80 -24 141 -2 232 84 100 96 191
121 256 70z m-1577 -94 c-6 -8 -30 -16 -53 -18 -22 -2 -42 -8 -44 -14 -2 -7 6
-10 24 -6 26 5 27 4 14 -12 -10 -12 -26 -16 -51 -15 -19 2 -41 0 -48 -5 -7 -4
-12 -3 -12 2 0 6 8 13 17 16 15 6 15 8 3 16 -12 8 -10 10 8 10 12 0 22 5 22
10 0 6 11 10 24 10 14 0 28 5 31 10 3 6 22 10 42 10 30 0 34 -2 23 -14z m-131
-12 c2 -2 -12 -4 -32 -4 -20 0 -37 -5 -37 -11 0 -5 -8 -9 -17 -8 -10 1 -29 0
-43 -1 -22 -1 -23 -2 -6 -9 19 -7 18 -8 -4 -14 -14 -3 -34 -4 -46 -1 -13 3
-31 1 -41 -5 -14 -8 -14 -10 -3 -11 9 0 5 -6 -10 -14 -14 -7 -29 -9 -34 -5
-11 10 -57 -11 -50 -22 3 -5 -1 -9 -8 -9 -29 0 -98 -45 -98 -64 0 -11 -3 -16
-7 -13 -3 4 -12 -1 -19 -11 -10 -13 -15 -14 -25 -5 -10 10 -9 14 4 19 27 10
20 27 -8 20 -14 -4 -25 -4 -25 -1 0 6 54 31 150 70 36 15 93 40 128 56 98 46
204 66 231 43z m-59 -60 c0 -11 -7 -14 -31 -10 -20 3 -32 0 -35 -9 -6 -14 -30
-22 -89 -29 -16 -3 -39 -7 -50 -11 -20 -7 -20 -6 0 9 10 9 44 23 75 32 30 9
62 20 70 24 26 15 60 11 60 -6z m1789 1 c30 -8 59 -19 64 -24 18 -18 -1 -25
-29 -12 -28 12 -48 6 -25 -8 22 -14 2 -70 -41 -118 -76 -81 -204 -92 -263 -21
-30 35 -31 46 -7 65 15 12 13 13 -17 7 -54 -10 -29 12 72 63 137 69 156 72
246 48z m-1414 -36 c22 -12 42 -23 44 -25 5 -4 -48 -66 -71 -82 -17 -12 -23
-9 -60 27 -23 23 -62 49 -89 58 -46 17 -48 18 -26 30 38 21 156 16 202 -8z
m-615 -36 c-8 -3 -39 -16 -67 -29 -29 -13 -53 -19 -53 -15 0 11 90 50 115 50
14 0 16 -2 5 -6z m472 -23 c32 -20 62 -52 93 -100 48 -74 49 -84 8 -132 -18
-20 -2 -32 33 -24 23 6 24 4 18 -21 -10 -41 -13 -41 -48 -3 -19 22 -41 63 -55
107 -25 78 -56 116 -95 116 -28 0 -76 -28 -76 -43 0 -14 12 -12 34 5 48 36 85
11 110 -75 9 -30 28 -72 41 -93 l26 -38 -35 -14 c-91 -38 -168 10 -101 63 36
29 32 47 -6 25 -66 -38 -53 -108 24 -127 30 -8 44 -5 86 16 64 31 84 23 57
-24 -10 -18 -28 -43 -38 -55 -36 -39 -3 -56 52 -28 17 9 30 11 30 6 0 -12 -53
-52 -97 -75 -35 -17 -88 -22 -78 -7 3 6 8 30 10 55 4 35 1 48 -13 58 -10 7
-21 21 -25 31 -4 10 -17 17 -32 17 -14 0 -25 5 -25 11 0 7 -12 9 -34 5 -21 -4
-37 -2 -41 4 -5 8 -12 7 -23 -3 -10 -7 -27 -14 -39 -15 -30 -1 -37 28 -31 118
6 82 42 163 101 227 34 37 45 43 81 43 28 0 56 -10 88 -30z m1191 -9 c-3 -13
2 -23 16 -30 12 -7 21 -18 21 -25 0 -23 67 -74 110 -86 54 -14 136 8 184 51
l35 30 -21 -43 c-37 -76 -67 -108 -102 -108 -17 0 -47 -4 -65 -10 -28 -8 -38
-6 -54 7 -29 27 -91 23 -124 -9 -23 -22 -32 -24 -53 -16 -35 13 -89 3 -116
-23 l-23 -21 -46 22 -45 22 26 21 c30 23 63 90 64 127 0 16 8 29 23 35 16 7
21 18 20 38 -2 24 1 26 17 17 26 -14 71 -12 100 5 34 19 39 18 33 -4z m-167
-12 c21 -17 7 -29 -34 -30 -20 -1 -29 -3 -19 -6 14 -4 16 -11 11 -41 -13 -76
-65 -134 -134 -153 -126 -33 -211 -18 -292 52 -50 42 -59 59 -33 59 8 0 15 5
15 11 0 7 -11 8 -32 3 -50 -11 -60 -10 -65 4 -3 7 11 18 34 27 21 9 45 20 54
25 19 10 189 57 234 64 52 8 247 -3 261 -15z m-1696 -29 c0 -5 -2 -10 -4 -10
-3 0 -8 5 -11 10 -3 6 -1 10 4 10 6 0 11 -4 11 -10z m833 -57 c-11 -32 -15
-34 -29 -16 -19 26 -17 33 11 33 19 0 23 -4 18 -17z m442 -151 c22 -11 62 -23
88 -27 l48 -7 -48 -52 c-27 -28 -56 -62 -65 -76 l-18 -25 -36 40 c-61 68 -116
200 -100 241 5 13 14 8 49 -29 23 -24 60 -54 82 -65z m696 28 c27 -15 25 -64
-3 -84 -12 -9 -18 -19 -14 -23 11 -11 56 44 56 67 0 24 67 36 148 26 112 -13
251 -108 288 -195 l15 -35 -78 -79 c-43 -43 -115 -103 -160 -134 -91 -60 -110
-80 -35 -37 75 43 122 80 201 157 93 91 129 117 158 117 18 0 23 -6 23 -24 0
-40 -11 -56 -51 -76 -51 -26 -57 -25 -29 5 13 14 29 25 37 25 7 0 13 5 13 10
0 29 -43 1 -120 -77 -73 -74 -102 -96 -181 -135 -103 -51 -179 -75 -279 -87
l-65 -8 71 -2 c71 -1 184 25 229 53 11 7 34 18 52 24 17 6 58 27 89 47 44 28
74 39 122 45 36 5 71 15 79 23 13 13 9 14 -33 10 -36 -3 -45 -2 -34 6 8 6 39
11 68 11 64 0 67 -14 13 -58 -29 -23 -54 -62 -100 -155 -53 -109 -70 -133
-134 -193 -79 -76 -148 -119 -247 -154 -95 -34 -293 -35 -398 -2 -207 65 -360
208 -398 371 -39 164 12 341 127 445 82 74 187 86 243 28 14 -15 36 -37 47
-49 12 -13 26 -20 31 -17 5 3 0 15 -11 25 -31 29 -27 65 9 84 43 22 87 19 115
-10 25 -24 29 -24 26 6 -2 21 45 59 71 59 11 0 28 -5 39 -10z m1009 -170 c0
-5 -7 -7 -15 -4 -8 4 -15 8 -15 10 0 2 7 4 15 4 8 0 15 -4 15 -10z m-177 -57
c-7 -2 -19 -2 -25 0 -7 3 -2 5 12 5 14 0 19 -2 13 -5z m-199 -109 c8 -22 7
-23 -33 -16 l-34 5 24 13 c31 17 36 17 43 -2z m-573 -1387 c-10 -9 -11 -8 -5
6 3 10 9 15 12 12 3 -3 0 -11 -7 -18z m-336 -324 c22 -61 45 -81 45 -40 0 14
6 39 13 57 l14 32 20 -28 20 -27 7 34 8 34 20 -57 c10 -31 31 -68 45 -83 l27
-26 -13 -82 c-6 -45 -12 -94 -13 -109 l-1 -28 -113 0 c-90 0 -114 3 -114 14 0
7 -7 19 -15 26 -17 14 -19 7 -5 -20 9 -17 4 -19 -63 -24 -39 -3 -146 -8 -237
-11 -91 -3 -174 -7 -185 -8 -15 -1 -19 3 -18 18 2 11 -1 29 -6 40 -28 67 -43
130 -38 164 2 21 23 69 46 107 l41 68 0 -38 c0 -36 26 -96 42 -96 3 0 4 15 1
34 -4 23 1 44 13 65 l18 31 42 -85 c45 -92 59 -96 71 -21 5 34 7 36 23 21 22
-20 60 -134 60 -181 0 -24 4 -34 13 -32 20 7 38 77 40 155 1 39 5 66 9 60 10
-16 21 -2 34 41 l10 37 31 -61 c30 -57 58 -92 68 -83 2 3 5 41 7 86 2 44 5 79
8 76 3 -2 14 -30 25 -60z m388 -65 c21 -11 21 -10 3 -53 -8 -19 -14 -63 -14
-99 1 -36 -1 -69 -4 -72 -4 -3 -30 -2 -60 3 -51 8 -53 9 -56 42 -3 24 3 40 19
57 19 21 21 30 15 85 l-7 61 43 -7 c24 -4 51 -11 61 -17z m-1048 -17 c4 -18 1
-38 -7 -50 -16 -26 -1 -54 31 -59 40 -6 19 -34 -39 -53 -30 -10 -59 -19 -63
-19 -5 0 -6 18 -2 40 5 29 2 47 -9 65 -11 16 -12 26 -5 31 6 3 8 15 6 26 -4
15 2 23 26 33 46 20 55 18 62 -14z m1131 -215 c29 -84 32 -191 8 -242 -23 -47
-68 -77 -118 -78 l-41 -1 -6 50 c-10 79 6 148 51 223 12 19 23 60 26 95 3 34
8 68 10 76 7 22 42 -41 70 -123z m-90 -370 c3 -7 4 -40 2 -72 l-3 -59 -17 31
c-10 18 -20 50 -24 73 -6 37 -5 41 15 41 12 0 24 -6 27 -14z m-168 -64 c2 -13
-3 -25 -13 -28 -23 -9 -38 10 -30 36 9 27 39 22 43 -8z m-663 -32 c0 -16 -6
-26 -18 -28 -19 -4 -32 20 -23 44 9 25 41 13 41 -16z"/>
<path d="M3011 3016 c-8 -10 -8 -16 2 -24 17 -14 42 2 34 22 -8 20 -21 20 -36
2z"/>
<path d="M2847 2964 c-4 -4 -7 -16 -7 -26 0 -15 6 -19 28 -16 19 2 27 9 27 23
0 20 -33 33 -48 19z"/>
<path d="M2512 4415 c26 -30 30 -31 21 -7 -6 15 -5 15 10 3 9 -7 17 -9 17 -3
0 5 -7 15 -15 22 -12 10 -15 10 -15 -1 0 -10 -3 -10 -12 -1 -23 23 -28 12 -6
-13z"/>
<path d="M2401 4396 c7 -15 15 -23 17 -16 3 7 -3 19 -13 28 -15 16 -16 15 -4
-12z"/>
<path d="M2439 4396 c14 -15 26 -26 28 -26 9 0 -24 40 -37 45 -8 4 -4 -5 9
-19z"/>
<path d="M2470 4402 c6 -13 14 -21 18 -18 3 4 -2 14 -12 24 -18 16 -18 16 -6
-6z"/>
<path d="M2621 4336 c7 -15 15 -23 17 -16 3 7 -3 19 -13 28 -15 16 -16 15 -4
-12z"/>
<path d="M2508 4316 c6 -19 7 -19 10 -3 4 18 4 18 25 0 22 -18 22 -18 4 3 -9
11 -23 21 -31 21 -9 0 -11 -7 -8 -21z"/>
<path d="M2660 4322 c6 -13 14 -21 18 -18 3 4 -2 14 -12 24 -18 16 -18 16 -6
-6z"/>
<path d="M1975 4296 c-3 -9 -7 -23 -10 -31 -2 -8 -1 -15 4 -15 10 0 25 50 17
58 -3 2 -8 -3 -11 -12z"/>
<path d="M2013 4303 c-7 -2 -13 -11 -13 -19 0 -12 4 -12 20 -4 32 17 26 37 -7
23z"/>
<path d="M2479 4283 c12 -24 31 -39 31 -25 0 5 -10 17 -21 28 -22 19 -22 19
-10 -3z"/>
<path d="M1947 4284 c-4 -4 -7 -17 -7 -28 1 -19 1 -20 11 -3 11 19 8 43 -4 31z"/>
<path d="M2426 4277 c3 -10 9 -15 12 -12 3 3 0 11 -7 18 -10 9 -11 8 -5 -6z"/>
<path d="M2450 4284 c0 -5 7 -19 15 -30 8 -10 15 -14 15 -8 0 5 -7 19 -15 30
-8 10 -15 14 -15 8z"/>
<path d="M2658 4211 c9 -22 19 -38 20 -36 6 6 -21 75 -29 75 -4 0 0 -18 9 -39z"/>
<path d="M2681 4210 c6 -16 15 -32 20 -35 4 -3 3 8 -2 25 -6 16 -15 32 -20 35
-4 3 -3 -8 2 -25z"/>
<path d="M2751 4230 c0 -8 4 -22 9 -30 12 -18 12 -2 0 25 -6 13 -9 15 -9 5z"/>
<path d="M2721 4210 c14 -31 19 -36 19 -24 0 6 -7 19 -16 30 -14 18 -14 18 -3
-6z"/>
<path d="M2621 4210 c0 -8 4 -24 9 -35 5 -13 9 -14 9 -5 0 8 -4 24 -9 35 -5
13 -9 14 -9 5z"/>
<path d="M2780 4213 c0 -4 5 -15 10 -23 8 -13 10 -13 10 2 0 9 -4 20 -10 23
-5 3 -10 3 -10 -2z"/>
<path d="M2570 4198 c0 -9 5 -20 10 -23 13 -8 13 5 0 25 -8 13 -10 13 -10 -2z"/>
<path d="M2541 4195 c0 -5 6 -21 14 -35 8 -14 14 -20 14 -15 0 6 -6 21 -14 35
-8 14 -14 21 -14 15z"/>
<path d="M2004 4172 c-6 -4 -14 -14 -17 -22 -4 -12 -6 -11 -6 3 -1 10 -5 15
-11 12 -5 -3 -9 -21 -9 -38 1 -18 3 -24 6 -15 2 10 10 15 19 11 9 -3 14 1 14
12 0 9 5 13 10 10 6 -3 10 3 10 14 0 23 0 24 -16 13z"/>
<path d="M2510 4175 c0 -5 5 -17 10 -25 5 -8 10 -10 10 -5 0 6 -5 17 -10 25
-5 8 -10 11 -10 5z"/>
<path d="M1926 4158 c-13 -41 -17 -72 -8 -63 12 12 26 75 17 75 -3 0 -7 -6 -9
-12z"/>
<path d="M1891 4104 c0 -11 3 -14 6 -6 3 7 2 16 -1 19 -3 4 -6 -2 -5 -13z"/>
<path d="M2267 4090 c3 -11 9 -22 13 -25 5 -3 6 4 3 15 -3 11 -9 22 -13 25 -5
3 -6 -4 -3 -15z"/>
<path d="M2701 4070 c15 -45 24 -54 15 -15 -4 17 -12 34 -17 40 -5 5 -4 -6 2
-25z"/>
<path d="M2721 4095 c0 -18 28 -61 29 -44 0 8 -7 24 -15 35 -8 10 -14 15 -14
9z"/>
<path d="M2771 4073 c11 -34 19 -42 19 -20 0 7 -7 22 -15 33 -13 17 -14 16 -4
-13z"/>
<path d="M2820 4093 c0 -4 5 -15 10 -23 8 -13 10 -13 10 2 0 9 -4 20 -10 23
-5 3 -10 3 -10 -2z"/>
<path d="M2151 4074 c0 -11 3 -14 6 -6 3 7 2 16 -1 19 -3 4 -6 -2 -5 -13z"/>
<path d="M2630 4080 c1 -8 7 -24 15 -34 19 -25 19 -16 0 20 -8 16 -15 22 -15
14z"/>
<path d="M2660 4081 c0 -6 4 -13 10 -16 6 -3 7 1 4 9 -7 18 -14 21 -14 7z"/>
<path d="M2801 4080 c0 -8 4 -22 9 -30 12 -18 12 -2 0 25 -6 13 -9 15 -9 5z"/>
<path d="M2122 4050 c0 -14 2 -19 5 -12 2 6 2 18 0 25 -3 6 -5 1 -5 -13z"/>
<path d="M2561 4065 c0 -18 28 -61 29 -44 0 8 -7 24 -15 35 -8 10 -14 15 -14
9z"/>
<path d="M2600 4065 c0 -5 5 -17 10 -25 5 -8 10 -10 10 -5 0 6 -5 17 -10 25
-5 8 -10 11 -10 5z"/>
<path d="M1978 4049 c-12 -7 -18 -22 -18 -47 l0 -36 21 20 c27 27 24 78 -3 63z"/>
<path d="M1922 4010 c0 -19 2 -27 5 -17 2 9 2 25 0 35 -3 9 -5 1 -5 -18z"/>
<path d="M1897 4023 c-11 -10 -8 -53 3 -53 6 0 10 14 10 30 0 31 -2 35 -13 23z"/>
<path d="M1798 3997 c-5 -10 -8 -31 -8 -45 1 -24 2 -25 11 -9 6 10 9 30 7 45
-2 23 -4 24 -10 9z"/>
<path d="M1824 3984 c-4 -14 -2 -30 5 -37 8 -8 11 -1 11 26 0 43 -7 48 -16 11z"/>
<path d="M1851 3973 c1 -34 2 -35 9 -13 11 36 11 50 0 50 -5 0 -10 -17 -9 -37z"/>
<path d="M2770 3984 c0 -5 7 -19 15 -30 8 -10 15 -14 15 -8 0 5 -7 19 -15 30
-8 10 -15 14 -15 8z"/>
<path d="M2841 3974 c0 -11 3 -14 6 -6 3 7 2 16 -1 19 -3 4 -6 -2 -5 -13z"/>
<path d="M2710 3968 c0 -9 5 -20 10 -23 13 -8 13 5 0 25 -8 13 -10 13 -10 -2z"/>
<path d="M2810 3968 c0 -9 5 -20 10 -23 13 -8 13 5 0 25 -8 13 -10 13 -10 -2z"/>
<path d="M1768 3952 c-3 -9 -1 -26 3 -37 6 -15 8 -11 8 18 1 40 -4 48 -11 19z"/>
<path d="M2750 3956 c0 -8 4 -17 9 -20 5 -4 7 3 4 14 -6 23 -13 26 -13 6z"/>
<path d="M3565 3961 c3 -5 -4 -13 -16 -16 -11 -4 -18 -9 -16 -12 3 -2 22 5 44
16 37 20 37 20 10 21 -16 0 -26 -4 -22 -9z"/>
<path d="M2616 3947 c3 -10 9 -15 12 -12 3 3 0 11 -7 18 -10 9 -11 8 -5 -6z"/>
<path d="M3501 3946 c-21 -12 -21 -14 -6 -20 10 -3 20 -4 23 -1 3 3 -1 5 -9 5
-8 1 -3 7 11 15 14 8 21 14 15 14 -5 0 -21 -6 -34 -13z"/>
<path d="M3620 3939 c0 -6 -7 -9 -15 -5 -8 3 -15 1 -15 -5 0 -6 -4 -7 -10 -4
-5 3 -10 1 -10 -5 0 -6 -4 -8 -10 -5 -5 3 -10 2 -10 -4 0 -5 -16 -19 -36 -32
-30 -18 -38 -19 -45 -8 -7 11 -9 10 -9 -3 0 -25 11 -23 88 16 66 33 107 66 83
66 -6 0 -11 -5 -11 -11z"/>
<path d="M2020 3932 c0 -5 7 -17 16 -28 14 -17 15 -17 10 -1 -3 10 -6 23 -6
28 0 5 -4 9 -10 9 -5 0 -10 -4 -10 -8z"/>
<path d="M1900 3901 c0 -16 3 -36 6 -45 12 -30 19 -16 16 29 -4 50 -22 62 -22
16z"/>
<path d="M2001 3908 c-1 -16 4 -28 9 -28 12 0 12 8 0 35 -8 18 -9 17 -9 -7z"/>
<path d="M3405 3919 c-16 -4 -52 -12 -80 -18 -48 -9 -48 -9 15 -4 36 3 79 11
95 18 34 15 16 17 -30 4z"/>
<path d="M1930 3889 c0 -16 4 -28 9 -25 8 5 3 56 -5 56 -2 0 -4 -14 -4 -31z"/>
<path d="M1967 3913 c-2 -5 0 -21 4 -38 7 -29 7 -29 8 8 1 35 -3 46 -12 30z"/>
<path d="M3450 3905 c-14 -8 -20 -14 -15 -14 6 0 21 6 35 14 14 8 21 14 15 14
-5 0 -21 -6 -35 -14z"/>
<path d="M1860 3860 c4 -23 11 -44 15 -48 4 -4 5 8 1 27 -3 18 -6 40 -6 47 0
8 -4 14 -9 14 -4 0 -5 -18 -1 -40z"/>
<path d="M3370 3880 c-18 -12 -2 -12 25 0 13 6 15 9 5 9 -8 0 -22 -4 -30 -9z"/>
<path d="M1831 3855 c0 -16 4 -39 9 -50 7 -16 9 -14 9 15 0 19 -4 42 -9 50 -7
11 -10 8 -9 -15z"/>
<path d="M1801 3851 c-18 -12 -7 -78 14 -78 16 0 17 13 6 59 -4 20 -10 25 -20
19z"/>
<path d="M3420 3849 c0 -5 -4 -8 -9 -5 -4 3 -16 -3 -26 -14 -18 -20 -17 -20
23 -2 22 9 38 20 35 24 -6 12 -23 10 -23 -3z"/>
<path d="M3210 3840 c-8 -5 -10 -10 -5 -10 6 0 17 5 25 10 8 5 11 10 5 10 -5
0 -17 -5 -25 -10z"/>
<path d="M3308 3843 c7 -3 16 -2 19 1 4 3 -2 6 -13 5 -11 0 -14 -3 -6 -6z"/>
<path d="M3104 3824 c-18 -14 -18 -15 4 -4 12 6 22 13 22 15 0 8 -5 6 -26 -11z"/>
<path d="M3144 3825 c-10 -8 -14 -15 -8 -15 5 0 19 7 30 15 10 8 14 15 8 15
-5 0 -19 -7 -30 -15z"/>
<path d="M3248 3824 c-39 -21 -35 -28 5 -8 37 19 44 24 31 24 -5 -1 -21 -8
-36 -16z"/>
<path d="M1960 3819 c0 -25 12 -59 20 -59 5 0 5 14 0 31 -11 36 -20 49 -20 28z"/>
<path d="M2020 3818 c0 -7 5 -20 10 -28 8 -12 10 -11 10 7 0 12 -4 25 -10 28
-5 3 -10 0 -10 -7z"/>
<path d="M1990 3808 c0 -7 5 -20 10 -28 8 -12 10 -11 10 7 0 12 -4 25 -10 28
-5 3 -10 0 -10 -7z"/>
<path d="M1920 3786 c0 -20 11 -46 19 -46 4 0 6 14 3 30 -4 30 -22 43 -22 16z"/>
<path d="M2975 3766 c-12 -8 -14 -15 -7 -20 6 -3 13 -2 17 4 3 5 11 10 16 10
6 0 7 -5 3 -11 -5 -8 -1 -8 14 0 29 16 37 14 21 -6 -13 -14 -11 -14 19 1 19
10 36 15 39 12 4 -3 -19 -17 -50 -31 -32 -13 -57 -27 -57 -29 0 -7 101 34 124
50 20 14 20 14 1 16 -11 0 -31 0 -45 -1 -20 -1 -22 1 -10 9 20 13 4 13 -21 -1
-14 -7 -24 -7 -33 0 -9 8 -18 7 -31 -3z"/>
<path d="M2855 3760 c-3 -6 1 -7 9 -4 18 7 21 14 7 14 -6 0 -13 -4 -16 -10z"/>
<path d="M1821 3745 c0 -11 4 -29 9 -40 8 -18 9 -18 9 5 0 14 -4 32 -9 40 -8
12 -10 12 -9 -5z"/>
<path d="M2540 3580 c-13 -8 -13 -10 -1 -10 11 0 9 -4 -5 -15 -17 -14 -17 -14
10 -3 15 7 23 14 17 16 -6 2 -9 8 -5 13 7 11 3 11 -16 -1z"/>
<path d="M2368 3562 c-50 -18 -80 -40 -38 -27 35 10 107 43 95 43 -5 0 -31 -7
-57 -16z"/>
<path d="M2398 3544 c-38 -20 -36 -28 2 -9 17 9 30 18 30 20 0 7 -1 6 -32 -11z"/>
<path d="M2425 3520 c-3 -6 1 -7 9 -4 18 7 21 14 7 14 -6 0 -13 -4 -16 -10z"/>
<path d="M1952 3480 c-11 -19 -10 -20 30 -20 23 0 38 3 35 7 -4 3 -2 12 4 20
9 10 5 13 -22 13 -23 0 -38 -6 -47 -20z"/>
<path d="M1860 3480 c36 -11 52 -11 45 0 -3 6 -21 10 -38 9 -31 -1 -31 -1 -7
-9z"/>
<path d="M2435 3474 c-33 -8 -98 -18 -145 -23 l-85 -8 65 -1 c59 -2 245 29
258 42 9 9 -28 5 -93 -10z"/>
<path d="M1928 3443 c-10 -2 -18 -9 -18 -14 0 -12 66 -12 107 0 18 5 33 5 35
1 2 -5 30 -6 63 -2 l60 7 -60 6 c-69 8 -162 9 -187 2z"/>
</g>
</svg>
