<?xml version="1.0" standalone="no"?>
<!DOCTYPE svg PUBLIC "-//W3C//DTD SVG 20010904//EN"
 "http://www.w3.org/TR/2001/REC-SVG-20010904/DTD/svg10.dtd">
<svg version="1.0" xmlns="http://www.w3.org/2000/svg"
 width="502.000000pt" height="497.000000pt" viewBox="0 0 502.000000 497.000000"
 preserveAspectRatio="xMidYMid meet">

<g transform="translate(0.000000,497.000000) scale(0.100000,-0.100000)"
fill="#000000" stroke="none">
<path d="M2195 4570 c-261 -59 -479 -214 -635 -452 -93 -140 -165 -340 -177
-488 -4 -59 -12 -85 -34 -121 -37 -58 -37 -103 -3 -264 38 -179 38 -181 20
-207 -9 -12 -16 -39 -16 -60 0 -51 33 -73 95 -65 45 7 45 6 66 -36 25 -50 64
-94 102 -113 24 -13 27 -20 27 -63 0 -47 -31 -123 -68 -164 -24 -27 -8 -31 49
-13 43 14 54 15 61 4 15 -21 1 -134 -22 -179 -12 -22 -19 -43 -17 -45 6 -7 83
34 98 52 25 30 31 14 27 -68 -3 -50 -11 -96 -21 -115 -10 -19 -17 -55 -17 -91
0 -72 -13 -113 -55 -173 -36 -51 -54 -109 -35 -109 8 0 11 -10 7 -29 -4 -21 0
-37 14 -54 l19 -26 -56 -40 c-30 -22 -95 -61 -142 -86 -48 -25 -102 -56 -121
-68 -28 -17 -36 -18 -39 -7 -11 31 -51 60 -85 60 -27 0 -40 -7 -59 -32 -38
-51 -41 -67 -18 -105 11 -19 20 -40 20 -47 0 -8 -27 -40 -59 -72 -80 -79 -101
-134 -107 -279 -3 -60 -11 -128 -19 -150 -42 -121 -91 -403 -99 -570 -4 -66
-9 -159 -12 -208 -4 -60 -3 -87 5 -87 6 0 11 11 11 24 0 19 4 23 19 19 13 -3
17 -11 14 -24 -5 -18 1 -19 118 -19 l124 1 -35 29 c-20 17 -47 30 -63 30 -16
0 -40 9 -54 20 -30 24 -51 27 -29 4 19 -18 21 -28 4 -18 -19 12 -51 13 -71 2
-17 -9 -18 -1 -11 149 4 87 11 169 15 183 5 16 8 19 8 8 1 -10 7 -18 15 -18 7
0 21 -12 30 -26 10 -14 23 -23 29 -21 12 4 95 -77 125 -123 36 -54 135 -186
153 -203 11 -10 26 -17 34 -15 10 2 -7 29 -53 85 -130 158 -212 263 -204 263
4 0 15 -8 23 -17 9 -10 76 -76 149 -148 72 -72 136 -138 141 -147 5 -10 19
-18 29 -18 11 0 20 -4 20 -9 0 -5 61 -9 135 -10 l134 -1 -15 36 c-20 47 -37
64 -66 65 -19 1 -17 3 10 12 18 5 43 20 57 33 l25 23 0 -26 c0 -15 10 -37 21
-49 12 -13 24 -38 28 -56 l7 -33 1004 -3 1004 -2 -27 28 c-21 22 -27 38 -27
74 0 44 1 46 40 62 68 27 72 25 64 -47 -4 -34 -11 -70 -15 -79 -17 -33 -10
-39 39 -36 43 3 47 5 50 30 3 28 -28 55 -49 42 -12 -7 -5 39 13 85 l8 24 20
-23 c11 -12 17 -28 13 -34 -4 -8 -2 -8 6 0 10 9 10 17 2 32 -6 11 -11 39 -11
62 0 30 -3 39 -12 34 -10 -6 -10 -5 -1 7 14 17 39 114 48 187 9 70 23 55 34
-38 6 -41 16 -100 24 -130 8 -30 18 -106 22 -167 4 -62 11 -113 16 -113 14 0
10 149 -7 225 -8 39 -21 107 -29 153 -7 46 -23 102 -34 125 -15 30 -22 72 -27
147 -5 78 -12 113 -26 138 -11 17 -24 30 -28 27 -5 -3 -12 0 -16 6 -4 8 -3 9
4 5 7 -4 12 -1 12 8 0 8 9 18 20 21 11 3 23 18 26 31 10 39 -1 181 -16 198
-18 23 -67 20 -82 -4 -7 -11 -16 -20 -20 -20 -3 0 -29 43 -57 95 -69 130 -102
177 -117 171 -7 -3 -16 0 -20 6 -5 7 -2 8 6 3 9 -6 11 -4 5 4 -4 7 -26 21 -49
31 -22 10 -54 32 -70 49 -21 22 -72 48 -185 92 -117 46 -164 70 -186 94 -17
18 -53 46 -81 64 l-51 31 -5 116 c-5 113 -6 116 -37 148 -36 37 -39 46 -12 39
12 -3 26 5 41 24 12 15 24 27 27 25 2 -2 18 14 35 35 30 39 56 59 64 50 3 -3
60 22 127 56 103 51 133 71 192 131 71 71 135 176 149 242 4 18 23 46 42 63
37 34 39 42 24 71 -7 13 -7 21 0 25 14 9 12 36 -3 54 -8 9 -19 43 -26 76 -17
79 -54 145 -96 173 -39 25 -172 72 -205 72 -12 0 -20 3 -18 8 60 117 63 125
64 232 2 130 8 149 41 147 20 -2 30 6 46 37 33 62 34 136 5 198 -57 119 -71
167 -59 196 9 22 8 43 -4 97 -21 88 -54 155 -119 241 -43 57 -62 74 -119 102
-38 19 -97 39 -130 45 -38 7 -86 26 -122 49 -199 122 -485 169 -710 118z m452
-30 c82 -24 154 -53 233 -94 l55 -29 -36 -12 c-99 -35 -149 -76 -149 -122 0
-13 -4 -23 -10 -23 -5 0 -10 7 -10 15 0 24 -65 81 -125 110 -50 25 -62 27
-157 23 -124 -4 -164 -21 -304 -133 -100 -80 -161 -154 -170 -206 -3 -19 -18
-44 -32 -56 -24 -20 -27 -21 -64 -6 -49 20 -69 7 -48 -32 7 -14 11 -27 9 -29
-2 -2 -49 -38 -104 -79 -55 -42 -111 -86 -125 -99 -14 -13 -43 -38 -64 -57
l-40 -34 -10 38 c-13 45 -41 68 -57 45 -7 -11 -8 -7 -3 15 15 75 25 95 48 95
14 0 28 10 36 26 13 23 18 24 54 18 23 -3 42 -10 44 -15 5 -13 19 -11 36 7 9
8 32 16 51 17 19 1 35 7 36 12 9 98 8 116 -6 121 -20 8 -19 19 3 44 9 11 16
24 15 28 0 4 19 31 44 60 24 28 42 52 39 52 -3 0 3 16 14 35 l20 36 -21 28
c-25 34 -22 42 26 70 32 19 35 19 44 3 8 -14 10 -12 17 12 5 23 20 34 78 61
144 67 242 85 431 80 94 -3 150 -9 202 -25z m-45 -216 c34 -10 59 -23 62 -33
28 -98 29 -161 5 -238 l-11 -33 -161 0 c-89 0 -167 4 -174 8 -11 7 -44 131
-56 214 -7 47 3 53 122 78 109 23 141 24 213 4z m444 0 c37 -8 79 -21 94 -29
64 -33 125 -142 138 -244 5 -43 4 -44 -19 -37 -13 3 -80 9 -148 13 -119 6
-125 7 -165 37 -99 76 -159 258 -87 269 59 9 123 6 187 -9z m-1354 -256 c-6
-6 -15 -8 -19 -4 -4 4 -1 11 7 16 19 12 27 3 12 -12z m1008 -118 c0 -5 -5 -10
-11 -10 -5 0 -7 5 -4 10 3 6 8 10 11 10 2 0 4 -4 4 -10z m45 -10 c18 -20 18
-20 -6 -17 -13 2 -25 11 -27 20 -5 23 11 21 33 -3z m-685 -45 c17 -9 30 -17
30 -19 0 -2 -24 -18 -53 -34 -56 -32 -122 -39 -122 -13 0 14 89 81 107 81 5 0
22 -7 38 -15z m1192 -1 c5 -3 8 -9 8 -14 0 -9 -75 11 -87 24 -8 8 64 -1 79
-10z m-772 -21 c-14 -10 -31 -19 -40 -20 -21 -3 -60 -25 -60 -35 0 -4 -18 -8
-40 -8 -52 0 -102 -25 -98 -49 4 -22 -19 -51 -40 -51 -8 0 -24 -8 -34 -17 -16
-14 -23 -15 -38 -5 -27 17 -30 15 -30 -12 0 -13 -7 -26 -15 -30 -8 -3 -15 -11
-15 -19 0 -7 -13 -23 -30 -35 -16 -13 -30 -29 -30 -37 0 -8 -9 -15 -20 -15
-11 0 -20 4 -20 9 0 5 -14 9 -31 8 -33 -2 -33 -2 -42 -92 -3 -24 -15 -45 -27
-45 -15 0 -17 34 -3 67 16 41 17 40 -7 46 -31 8 -24 34 17 62 39 26 66 34 45
13 -17 -17 -15 -33 3 -18 8 7 25 10 40 6 14 -4 25 -2 25 3 0 18 -12 41 -22 41
-5 0 -6 -4 -3 -10 3 -6 -1 -7 -10 -4 -27 11 -1 26 50 30 53 3 85 26 82 58 -1
13 4 21 13 21 8 0 14 -6 13 -12 -2 -7 2 -13 7 -13 6 0 10 11 10 24 0 33 119
102 220 126 101 25 112 27 135 29 17 1 17 -1 -5 -16z m682 -9 c178 -40 298
-134 298 -231 0 -36 -16 -94 -33 -117 -12 -16 -15 -15 -48 11 -20 15 -34 33
-32 38 5 18 -11 32 -77 68 -106 59 -216 80 -410 81 -141 0 -177 -3 -250 -23
-180 -48 -315 -125 -643 -364 -29 -20 -70 -50 -92 -65 -22 -16 -113 -88 -202
-161 -202 -164 -265 -195 -292 -142 -16 31 8 78 62 124 72 60 337 241 619 423
35 22 133 87 218 145 184 123 232 150 325 177 210 61 394 73 557 36z m234 -29
c7 -19 14 -37 14 -39 0 -3 -24 9 -54 27 -53 31 -54 32 -28 38 48 12 53 10 68
-26z m-1520 -65 c13 0 24 -3 24 -7 -1 -12 -111 -86 -117 -79 -4 3 -1 6 5 6 7
0 12 15 12 34 0 25 7 39 22 51 14 9 24 11 26 5 2 -5 15 -10 28 -10z m-161 -97
c-4 -10 -10 -26 -12 -35 -3 -10 -9 -18 -14 -18 -13 0 -11 44 3 58 18 18 31 15
23 -5z m-115 -111 c-29 -5 -36 4 -19 24 12 14 14 14 27 -3 11 -16 11 -18 -8
-21z m1663 4 c18 -7 43 -24 56 -36 l23 -23 -23 -19 c-13 -10 -55 -34 -94 -53
-38 -19 -67 -35 -63 -35 17 0 108 41 143 64 43 29 65 33 65 11 0 -21 -67 -63
-147 -92 -104 -39 -128 -43 -273 -53 -74 -5 -157 -14 -185 -19 -27 -5 -111
-10 -185 -10 -116 -1 -145 -5 -208 -26 -104 -35 -159 -31 -150 10 5 28 168 58
275 51 46 -4 122 -3 171 1 86 8 85 8 -73 13 -88 3 -185 1 -215 -3 -30 -4 -68
-7 -85 -5 l-30 3 45 46 c58 57 129 92 201 97 49 4 71 -2 185 -48 105 -43 140
-53 189 -53 81 -1 143 31 209 107 47 54 91 85 124 86 7 0 27 -6 45 -14z
m-1695 -32 c12 -4 22 -11 22 -18 0 -14 -38 -38 -49 -31 -5 2 -16 -6 -25 -20
-20 -30 -36 -32 -36 -6 0 19 45 81 58 81 4 0 17 -3 30 -6z m196 -84 c12 -12
-2 -30 -22 -30 -10 0 -27 -7 -39 -15 -20 -14 -53 -11 -53 5 0 4 14 19 32 34
31 25 58 27 82 6z m1594 -95 c6 -53 -20 -150 -53 -205 -20 -32 -27 -35 -96
-46 -41 -6 -83 -15 -95 -19 -15 -5 -23 -1 -31 18 -11 24 -11 25 16 17 81 -23
200 43 233 129 11 30 13 120 3 153 -6 18 -5 20 5 11 7 -6 15 -32 18 -58z m-34
29 c11 -28 6 -94 -8 -127 -18 -40 -41 -65 -86 -97 -93 -66 -240 3 -240 113 0
37 2 39 68 52 30 6 32 5 32 -23 0 -33 22 -57 61 -67 19 -5 34 0 57 20 33 28
41 60 22 95 -8 15 -4 20 28 33 48 20 59 21 66 1z m-108 -48 c9 -38 1 -59 -28
-76 -33 -18 -54 -8 -78 34 -13 24 -13 28 0 36 23 15 25 13 25 -22 0 -23 5 -34
18 -36 27 -5 47 17 47 52 0 23 -3 27 -10 16 -5 -8 -12 -11 -17 -7 -7 8 14 27
29 27 4 0 10 -11 14 -24z m-1477 -2 c-7 -8 -25 -22 -40 -29 -26 -14 -27 -14
-15 10 6 14 22 26 36 28 14 2 27 5 29 6 2 0 -2 -6 -10 -15z m1231 -59 c0 -41
23 -91 54 -117 21 -17 21 -17 -12 -18 -34 0 -82 -39 -82 -67 0 -9 -19 1 -47
25 -27 22 -64 45 -83 52 l-35 12 0 67 c0 65 0 66 30 72 17 4 63 7 103 8 l72 1
0 -35z m-220 -46 c0 -54 -3 -63 -29 -87 -17 -15 -34 -39 -40 -54 -16 -44 -82
-72 -167 -72 -62 1 -80 5 -135 35 -51 28 -69 44 -86 79 -13 24 -23 56 -23 70
0 22 8 27 58 44 98 32 95 31 88 9 -8 -25 9 -72 32 -89 29 -23 80 -17 109 12
21 21 25 32 20 64 l-5 39 62 4 c33 2 73 4 89 5 27 2 27 1 27 -59z m-1231 30
c-22 -14 -33 -10 -19 6 7 8 17 12 22 9 6 -4 5 -10 -3 -15z m1016 2 c0 -8 -6
-16 -12 -18 -7 -3 -13 2 -13 11 0 20 -27 10 -41 -16 -7 -14 -7 -23 2 -34 21
-26 45 -16 65 27 16 36 19 39 27 22 12 -27 -8 -72 -38 -83 -37 -14 -43 -13
-70 15 -29 28 -33 70 -7 84 25 15 87 9 87 -8z m-982 -35 c5 -13 -11 -31 -55
-65 -15 -11 -18 -11 -18 1 0 8 16 22 36 31 30 15 34 20 24 32 -7 9 -8 15 -2
15 5 0 12 -6 15 -14z m707 -40 c0 -147 239 -243 388 -155 40 23 42 23 42 4 0
-8 -12 -17 -27 -21 -62 -13 -161 -48 -213 -75 -64 -33 -83 -47 -97 -73 -9 -17
-13 -14 -41 26 -67 98 -108 224 -96 299 5 29 11 39 25 39 16 0 19 -8 19 -44z
m-820 -66 c-14 -10 -29 -15 -34 -10 -14 14 3 30 32 30 l27 0 -25 -20z m1408
-13 c18 -12 45 -40 60 -61 l27 -39 8 40 c16 80 71 106 120 55 22 -23 27 -37
27 -79 0 -33 -5 -55 -15 -63 -8 -7 -15 -18 -15 -24 1 -6 10 0 20 13 13 15 20
38 20 66 0 36 4 44 28 55 46 22 171 25 238 5 93 -26 170 -64 192 -94 22 -31
62 -150 62 -187 0 -12 -8 -28 -17 -33 -14 -8 -10 -9 16 -4 31 6 33 5 22 -15
-19 -37 -110 -62 -220 -62 -97 0 -99 -1 -144 -35 -59 -45 -145 -82 -232 -102
-112 -24 -359 -29 -493 -9 -110 16 -222 54 -222 75 0 5 20 1 44 -10 51 -22
136 -40 136 -29 0 4 -17 11 -37 15 -21 3 -56 15 -79 25 -36 15 -42 23 -47 56
-10 63 8 161 37 198 29 39 106 77 229 116 86 27 88 27 98 8 6 -11 19 -28 30
-39 24 -24 98 -63 105 -56 3 3 -12 15 -33 26 -132 67 -154 237 -28 215 17 -3
45 -16 63 -27z m-938 13 c0 -13 -31 -62 -44 -72 -15 -10 20 -21 45 -15 18 5
20 2 15 -16 -3 -12 -6 -25 -6 -29 0 -18 -28 -6 -46 20 -47 63 -49 72 -18 98
31 25 54 31 54 14z m-76 -95 c23 -43 15 -54 -42 -62 -50 -7 -92 3 -92 20 0 14
86 76 105 77 6 0 19 -16 29 -35z m-219 -62 c3 -10 10 -10 29 -2 20 10 29 8 54
-10 38 -27 84 -27 140 0 71 35 79 2 16 -74 -13 -16 -24 -32 -24 -37 0 -17 32
-19 60 -5 38 19 43 19 31 -3 -5 -10 -34 -31 -63 -48 -46 -25 -64 -29 -129 -29
-66 0 -81 3 -116 28 -46 32 -81 77 -93 118 -8 27 -5 32 38 64 29 21 48 29 50
22 2 -7 5 -18 7 -24z m2025 -288 c0 -7 -13 -23 -29 -34 -18 -13 -32 -34 -36
-54 -4 -17 -23 -66 -43 -107 -149 -306 -629 -447 -942 -277 -126 69 -189 144
-214 255 -24 107 -28 103 67 73 77 -24 95 -25 307 -26 205 0 233 2 318 24 79
20 100 22 132 12 94 -28 175 -9 249 59 32 29 80 60 115 74 63 25 76 25 76 1z
m-257 -35 c4 -16 -2 -22 -31 -30 -49 -13 -52 -13 -52 8 0 36 74 56 83 22z m62
-1 c-29 -11 -35 -10 -35 5 0 9 8 12 27 8 25 -5 25 -6 8 -13z m-170 -39 c-3 -5
-11 -10 -16 -10 -6 0 -7 5 -4 10 3 6 11 10 16 10 6 0 7 -4 4 -10z m105 -19 c0
-12 -29 -23 -41 -15 -5 3 -9 0 -9 -5 0 -6 -7 -11 -15 -11 -18 0 -20 26 -2 33
21 9 67 7 67 -2z m-100 -16 c0 -17 -45 -21 -55 -6 -4 8 4 12 48 20 4 0 7 -6 7
-14z m-1510 -467 c0 17 16 1 44 -43 11 -16 40 -55 66 -86 25 -30 57 -73 70
-95 91 -152 191 -282 305 -394 l76 -75 -2 -52 c-2 -33 -7 -54 -16 -57 -7 -3
-13 -11 -13 -18 0 -7 -9 -23 -18 -36 l-18 -24 -17 39 c-62 146 -80 185 -110
243 -19 36 -38 80 -41 98 -4 17 -11 32 -16 32 -4 0 -11 11 -14 25 -4 14 -12
25 -19 25 -6 0 -41 30 -77 66 -51 51 -62 67 -50 74 8 5 18 6 22 4 4 -3 5 2 2
10 -4 11 -14 13 -35 9 -18 -3 -29 -1 -29 6 0 6 -5 11 -12 11 -9 0 -9 -3 0 -12
7 -7 12 -27 12 -45 0 -31 -1 -32 -25 -21 -13 6 -22 14 -20 18 2 4 -8 5 -23 2
-26 -4 -25 -3 14 34 38 35 69 84 44 69 -6 -3 -11 6 -11 22 -1 17 -3 21 -6 11
-2 -10 -8 -18 -11 -18 -13 1 -57 29 -45 30 6 0 16 13 21 29 8 24 7 32 -7 45
-13 12 -20 13 -29 4 -17 -17 -15 -28 3 -22 11 5 14 2 9 -12 -4 -11 -11 -25
-17 -31 -5 -7 -6 -13 -2 -13 5 0 0 -9 -9 -19 -10 -11 -26 -19 -36 -18 -15 1
-16 5 -7 27 7 14 14 27 17 30 5 5 6 9 8 93 2 38 5 48 12 37 7 -11 10 -12 10
-2z m1210 -268 c11 -92 10 -120 -5 -215 -9 -61 -23 -137 -31 -170 -7 -33 -14
-88 -14 -122 0 -69 -11 -80 -30 -33 -13 30 -42 55 -53 44 -3 -3 1 -23 8 -44 7
-21 19 -73 26 -115 13 -74 12 -78 -7 -94 -24 -19 -101 -47 -109 -39 -5 4 23
108 46 173 6 17 12 53 14 80 2 28 13 84 24 125 12 41 26 99 33 128 12 56 30
54 22 -3 l-4 -30 10 30 c5 17 13 62 16 100 6 65 5 69 -10 50 -15 -19 -15 -17
-17 35 -2 108 -6 136 -22 167 -20 39 -24 84 -5 65 19 -19 38 -14 38 9 0 20 2
20 29 -7 26 -26 30 -40 41 -134z m-1300 5 c0 -8 -4 -15 -10 -15 -5 0 -10 7
-10 15 0 8 5 15 10 15 6 0 10 -7 10 -15z m128 -66 c27 -9 30 -13 18 -25 -8 -8
-19 -14 -25 -14 -14 0 -14 -17 -1 -25 14 -9 1 -27 -13 -19 -9 5 -9 4 0 -6 9
-10 17 -9 42 6 30 18 31 18 45 -1 8 -11 17 -32 20 -47 3 -15 14 -35 25 -45 15
-13 18 -20 9 -30 -15 -19 -42 -16 -63 7 -10 11 -29 20 -42 20 -13 0 -23 6 -23
14 0 10 -15 17 -44 21 -34 5 -48 3 -64 -11 -12 -10 -19 -21 -16 -26 3 -4 0
-16 -6 -27 -7 -13 -7 -22 0 -26 6 -4 8 -11 4 -16 -3 -6 4 -17 16 -26 16 -11
20 -22 16 -39 -6 -21 -2 -25 23 -30 17 -4 33 -14 36 -23 3 -11 15 -17 33 -16
21 0 28 -5 30 -25 2 -14 9 -31 15 -38 9 -11 12 -11 18 5 3 10 4 23 1 28 -4 6
-8 19 -9 30 -2 10 -9 23 -16 27 -6 4 -8 8 -3 8 5 0 -3 9 -18 21 -15 12 -25 26
-23 32 2 6 -5 19 -15 29 -10 10 -18 30 -18 44 0 22 4 25 27 22 23 -3 30 -13
65 -107 21 -57 38 -115 38 -127 0 -13 14 -70 31 -126 40 -133 46 -158 62 -248
l12 -75 56 -3 c82 -4 85 2 59 140 -25 132 -57 260 -75 305 -13 30 -15 31 -52
22 -57 -13 -83 -11 -83 6 0 11 13 15 53 16 28 1 56 1 61 0 10 -2 0 58 -20 114
-28 81 -6 103 39 38 28 -41 121 -348 112 -371 -3 -7 1 -25 9 -40 8 -15 17 -52
21 -82 7 -62 -10 -116 -66 -196 l-30 -45 -62 49 c-34 27 -74 52 -88 55 -42 10
-116 73 -122 104 -10 46 -20 55 -49 44 -20 -7 -32 -4 -66 19 -35 23 -39 29
-22 33 10 3 21 0 23 -6 6 -18 74 -18 81 -1 5 13 -22 100 -73 239 -6 17 -24 71
-41 120 -33 101 -47 112 -91 69 -35 -34 -70 -37 -92 -8 -16 22 -16 23 17 43
18 12 37 21 42 22 23 1 164 112 199 157 22 28 40 51 41 51 1 1 15 -4 32 -10z
m1240 -116 c20 -14 55 -45 77 -68 28 -30 52 -44 80 -49 41 -8 232 -87 271
-113 23 -14 104 -168 104 -196 0 -21 22 -36 56 -40 17 -2 35 -7 42 -11 19 -11
14 14 -13 72 -49 105 3 34 74 -102 35 -68 37 -74 16 -58 -14 9 -25 22 -25 29
0 7 -19 17 -42 23 -24 7 -53 18 -65 26 -28 18 -35 6 -23 -37 6 -19 17 -74 25
-123 8 -49 16 -90 17 -91 6 -5 73 -39 78 -40 3 0 21 -10 41 -23 20 -12 43 -22
52 -22 24 0 42 -67 41 -150 -2 -101 -20 -151 -58 -161 -35 -10 -106 6 -156 35
-48 27 -138 103 -151 128 -9 18 -8 19 11 13 12 -4 27 -1 35 5 23 19 0 48 -61
75 -43 19 -54 29 -54 47 0 13 -16 48 -36 78 -47 71 -71 133 -84 216 -14 89
-63 255 -87 296 -14 24 -27 34 -50 36 -26 3 -32 8 -35 30 -2 19 -10 28 -25 30
-15 2 -32 24 -60 80 -21 42 -39 80 -41 84 -6 15 9 8 46 -19z m-1193 -84 c11
-17 2 -18 -19 -3 -17 12 -17 14 -4 14 9 0 20 -5 23 -11z m1129 -111 c-12 -50
-15 -89 -10 -138 7 -81 -8 -161 -34 -185 -18 -16 -19 -15 -29 22 -5 21 -13 52
-17 68 -6 29 -6 29 9 10 14 -18 17 -19 32 -4 11 11 18 47 25 125 10 119 33
236 38 195 2 -12 -4 -55 -14 -93z m-1050 18 c19 -63 19 -66 7 -66 -5 0 -11 12
-14 28 -8 39 -27 86 -32 80 -3 -2 2 -26 11 -52 9 -26 14 -50 10 -53 -3 -3 -11
16 -18 42 -7 26 -18 50 -25 52 -24 9 -13 23 16 23 27 0 31 -5 45 -54z m-698
-27 c16 -18 16 -20 -1 -39 -24 -27 -39 -25 -53 5 -16 35 -15 51 5 82 l17 26 7
-28 c5 -15 16 -36 25 -46z m25 51 c21 -12 26 -50 6 -50 -19 0 -37 21 -37 42 0
21 4 22 31 8z m159 -5 c-14 -8 -29 -14 -35 -14 -5 0 1 6 15 14 14 8 30 14 35
14 6 0 -1 -6 -15 -14z m556 -20 c18 -43 18 -65 0 -65 -8 0 -17 15 -20 36 -4
19 -10 42 -13 50 -12 31 19 12 33 -21z m1067 -100 l6 -40 -19 40 c-11 22 -20
49 -20 60 0 19 0 19 14 0 7 -11 16 -38 19 -60z m149 38 c16 -19 38 -77 38
-101 0 -8 -12 7 -26 34 -14 27 -33 57 -41 67 -14 15 -14 17 -1 17 8 0 22 -8
30 -17z m-137 -138 c7 -5 18 -31 25 -57 7 -27 16 -48 20 -48 11 0 43 -51 36
-58 -4 -3 -13 3 -21 14 -14 18 -14 18 -14 -6 1 -57 25 -158 42 -174 9 -10 17
-22 17 -27 0 -5 6 -9 14 -9 8 0 18 -5 21 -11 13 -21 -3 -19 -41 3 -62 37 -151
32 -237 -11 -36 -18 -74 -42 -83 -52 -17 -18 -18 -18 -36 12 -18 30 -22 31
-65 25 -25 -3 -56 -6 -69 -6 -15 0 -24 -6 -24 -15 0 -8 6 -15 14 -15 8 0 16
-6 19 -14 5 -11 -2 -11 -41 1 -78 25 -145 35 -188 29 -37 -5 -43 -2 -63 25
-12 16 -32 62 -45 102 -13 40 -33 102 -45 140 l-21 67 22 31 23 31 5 -55 c6
-65 26 -96 96 -149 27 -21 49 -42 49 -47 0 -5 4 -13 9 -18 5 -5 6 -3 2 5 -4 6
-2 12 3 12 6 0 11 -6 11 -14 0 -46 212 -27 278 25 14 10 34 19 46 19 26 1 52
16 103 60 67 59 78 89 77 213 l-1 108 25 -63 c14 -35 31 -67 37 -73z m-1517
80 c-9 -9 -30 14 -23 25 6 9 10 8 17 -4 6 -10 8 -19 6 -21z m875 -42 c68 -101
126 -218 116 -234 -21 -33 10 -79 44 -66 7 3 0 10 -15 16 -16 6 -28 12 -28 15
0 12 13 36 20 36 12 0 55 -88 47 -97 -17 -17 -129 51 -209 128 l-38 37 2 120
c2 66 6 118 9 116 4 -2 27 -34 52 -71z m-1061 37 c4 -8 7 -20 7 -25 1 -15 -72
-11 -77 3 -2 7 -10 12 -18 12 -8 0 -14 5 -14 10 0 6 6 10 14 10 8 0 18 -4 21
-10 7 -12 26 -14 24 -2 -3 15 2 20 19 18 9 0 20 -8 24 -16z m703 -148 c3 -18
9 -40 12 -48 4 -10 -3 -14 -25 -14 -29 0 -30 2 -51 89 -11 49 -21 92 -21 95 0
2 10 6 23 8 19 3 25 -5 39 -47 9 -27 19 -64 23 -83z m1528 131 c3 -5 1 -16 -2
-26 -6 -17 -8 -16 -19 7 -9 21 -9 26 3 26 7 0 16 -3 18 -7z m-1607 -93 c12
-53 16 -89 10 -87 -5 2 -16 32 -24 68 -8 35 -21 71 -29 80 -14 16 -8 24 17 28
4 1 15 -40 26 -89z m1659 30 c27 -53 26 -70 -3 -65 -9 2 -20 4 -25 4 -4 1 -5
13 -1 29 4 21 3 24 -5 12 -13 -18 -15 -1 -2 19 6 10 11 6 19 -15 6 -18 11 -22
11 -11 1 9 -8 26 -19 37 -21 21 -26 40 -10 40 5 0 21 -23 35 -50z m-1420 -150
c41 -175 31 -241 -48 -312 -49 -44 -85 -53 -44 -10 14 15 36 50 49 77 26 59
30 164 10 290 -24 155 -24 156 -7 105 9 -25 27 -92 40 -150z m-703 145 c3 -14
1 -25 -4 -25 -5 0 -6 -5 -3 -10 9 -15 35 8 29 24 -3 8 2 16 10 19 11 5 22 -16
45 -89 17 -53 31 -97 31 -100 0 -2 -9 -4 -20 -4 -13 0 -28 -12 -38 -30 -17
-30 -32 -34 -40 -11 -2 7 5 15 17 18 29 7 27 22 -13 95 -40 74 -55 138 -33
138 8 0 17 -11 19 -25z m-82 -24 c0 -17 -18 -21 -24 -6 -3 9 0 15 9 15 8 0 15
-4 15 -9z m-4 -86 c40 -81 41 -84 20 -87 -27 -4 -23 -34 10 -65 13 -12 24 -27
24 -33 0 -5 6 -10 14 -10 15 0 20 -12 31 -70 l6 -35 -56 60 c-89 95 -179 239
-173 277 3 22 39 48 68 48 9 0 32 -35 56 -85z m-177 10 c23 -14 41 -31 41 -38
0 -7 14 -35 31 -61 21 -35 25 -47 14 -42 -9 3 -21 6 -26 6 -5 0 -9 9 -9 19 0
14 -9 21 -31 26 -20 5 -29 11 -25 21 3 8 1 14 -5 14 -5 0 -12 -7 -16 -16 -5
-13 -7 -13 -14 -2 -7 11 -11 10 -19 -2 -6 -10 -10 -11 -10 -2 0 6 -8 12 -17
12 -17 1 -17 1 0 14 11 8 17 27 17 51 0 42 3 42 69 0z m426 -35 c3 -5 1 -10
-4 -10 -6 0 -11 5 -11 10 0 6 2 10 4 10 3 0 8 -4 11 -10z m2032 -14 c5 -4 21
-201 17 -208 -4 -6 -55 13 -72 27 -1 1 -7 37 -12 81 -6 43 -13 87 -16 97 -5
17 -2 18 37 12 24 -4 45 -8 46 -9z m-1627 -22 c0 -12 -7 -15 -30 -12 -17 3
-33 1 -36 -3 -5 -9 -44 11 -44 23 0 5 25 8 55 8 44 0 55 -3 55 -16z m15 -101
c8 -78 0 -96 -10 -21 -10 72 -28 100 -20 30 3 -29 8 -59 11 -67 4 -8 1 -15 -5
-15 -6 0 -11 10 -12 23 0 12 -7 40 -15 62 l-14 40 5 -40 c2 -22 7 -51 11 -65
5 -18 4 -22 -4 -15 -6 6 -15 33 -20 60 -5 30 -13 49 -20 48 -7 -2 -12 5 -12
14 0 9 3 14 6 11 3 -3 17 -3 32 1 50 14 59 5 67 -66z m1192 55 c-3 -8 -6 -5
-6 6 -1 11 2 17 5 13 3 -3 4 -12 1 -19z m-2050 -10 c7 -13 19 -39 29 -58 9
-19 19 -37 23 -40 11 -9 58 -75 61 -85 6 -27 86 -125 102 -125 20 0 -8 120
-43 183 -18 32 2 33 27 2 29 -35 114 -194 114 -213 0 -7 -7 -27 -17 -45 -9
-18 -30 -74 -48 -125 l-31 -92 -21 62 c-12 35 -27 86 -34 113 -21 88 -130 339
-164 380 -19 23 -17 18 13 -48 26 -58 26 -58 6 -50 -14 5 -14 3 -3 -16 8 -11
18 -21 24 -21 12 -1 108 -226 103 -242 -5 -13 -90 137 -158 277 -24 50 -46 92
-49 95 -4 3 -7 14 -9 25 -2 15 6 24 25 32 39 15 37 15 50 -9z m459 -8 c42 -30
56 -50 33 -50 -6 0 -30 14 -54 30 -24 17 -48 30 -54 30 -5 0 -13 5 -16 10 -14
22 49 8 91 -20z m1054 9 c0 -5 -4 -9 -10 -9 -5 0 -10 7 -10 16 0 8 5 12 10 9
6 -3 10 -10 10 -16z m613 -146 c15 -22 32 -56 38 -76 8 -29 19 -40 66 -63 57
-29 57 -29 24 -32 -17 -2 -35 -10 -38 -18 -6 -17 -42 17 -95 90 -33 46 -68
152 -68 205 l1 36 22 -51 c12 -28 35 -69 50 -91z m-1579 111 c3 -8 2 -12 -4
-9 -6 3 -10 10 -10 16 0 14 7 11 14 -7z m926 6 c0 -12 -70 -31 -84 -22 -6 3 7
12 29 18 51 16 55 16 55 4z m-1586 -17 c21 8 33 -10 102 -147 33 -67 97 -191
141 -277 l80 -157 -14 -78 c-8 -44 -17 -117 -22 -164 l-7 -85 -13 57 c-13 60
-66 141 -131 203 l-32 30 7 -28 c4 -15 5 -27 2 -27 -17 0 -37 14 -37 27 0 15
-38 52 -54 53 -5 0 -24 11 -42 25 -29 22 -42 25 -96 23 l-63 -3 2 69 c1 37 6
73 12 79 8 8 11 6 11 -6 0 -11 8 -17 25 -17 25 0 35 23 15 35 -5 3 -7 12 -3
20 3 9 0 22 -7 30 -7 9 -10 25 -6 41 4 15 3 30 -3 33 -10 7 42 177 76 248 12
26 18 31 29 22 8 -6 20 -9 28 -6z m241 7 c3 -5 1 -10 -4 -10 -6 0 -11 5 -11
10 0 6 2 10 4 10 3 0 8 -4 11 -10z m1794 -129 c28 -18 51 -37 51 -43 0 -5 14
-41 30 -79 17 -38 28 -74 25 -80 -4 -5 -2 -16 4 -23 7 -8 14 -36 18 -63 8 -74
-11 -74 -89 0 -35 34 -67 70 -71 80 -3 9 -10 17 -15 17 -13 0 -65 -77 -97
-142 l-27 -58 -49 0 c-27 0 -52 -1 -56 -2 -17 -7 -66 310 -51 329 15 19 109
79 143 91 53 20 127 9 184 -27z m-1544 -50 c-8 -17 -17 -31 -19 -31 -1 0 -13
12 -27 28 -13 15 -17 21 -9 15 23 -21 37 -15 51 20 9 22 15 27 17 15 2 -9 -4
-30 -13 -47z m816 -209 c6 -57 9 -105 6 -108 -2 -2 -10 37 -17 88 -6 51 -21
129 -31 173 -25 107 -23 117 7 25 13 -41 29 -121 35 -178z m194 193 c28 -9 54
-21 59 -26 5 -5 15 -55 21 -111 10 -84 9 -106 -1 -118 -16 -19 -7 -60 12 -60
22 0 16 -17 -8 -24 -30 -8 -140 -6 -198 2 l-45 7 -11 115 c-6 64 -19 141 -28
172 -9 31 -16 59 -16 63 0 13 164 -2 215 -20z m-1045 -45 c0 -19 -18 -19 -23
-1 -3 14 -1 18 9 14 8 -3 14 -9 14 -13z m772 -62 c-6 -6 -7 -37 -4 -70 l5 -61
-59 48 c-32 26 -63 51 -67 55 -5 4 12 18 38 30 25 12 56 36 68 52 l22 30 3
-37 c2 -21 -1 -42 -6 -47z m1566 -121 c2 -103 -1 -154 -12 -187 l-14 -45 -1
70 c-1 39 -5 85 -11 103 -5 19 -6 79 -3 133 6 92 7 99 22 84 13 -13 17 -44 19
-158z m-1127 133 c27 -15 27 -70 -1 -70 -24 0 -43 34 -35 60 7 23 10 24 36 10z
m289 -120 c-32 -49 -40 -58 -40 -42 0 14 62 103 68 98 2 -3 -10 -28 -28 -56z
m410 -7 c0 -7 5 -13 10 -13 6 0 25 -14 43 -31 l32 -31 3 -124 4 -124 -41 0
c-46 0 -45 -2 -42 95 3 82 -15 194 -32 208 -9 7 -18 28 -22 47 l-7 35 26 -24
c14 -14 26 -30 26 -38z m-1885 -28 c-14 -36 -25 -68 -25 -70 0 -3 -4 -5 -9 -5
-6 0 0 24 13 53 12 28 26 60 29 70 4 9 9 17 11 17 3 0 -6 -29 -19 -65z m1935
40 c13 -14 21 -25 18 -25 -2 0 -15 11 -28 25 -13 14 -21 25 -18 25 2 0 15 -11
28 -25z m-197 -119 c6 -59 5 -68 -7 -55 -8 7 -17 48 -20 89 -6 66 -6 73 7 55
8 -11 17 -51 20 -89z m41 67 c8 -16 25 -39 37 -52 15 -16 19 -26 11 -29 -7 -2
-12 -21 -12 -44 0 -35 2 -40 20 -35 17 4 20 0 20 -34 0 -21 -1 -39 -3 -39 -2
0 -20 15 -41 34 -35 31 -39 39 -47 107 -14 125 -11 142 15 92z m-90 -59 c9
-24 0 -29 -19 -11 -19 19 -19 27 -1 27 8 0 17 -7 20 -16z m524 -26 c5 -7 13
-23 16 -35 6 -19 4 -22 -11 -16 -10 4 -33 17 -51 29 l-33 23 28 4 c15 2 31 5
34 6 4 0 11 -5 17 -11z m-848 -33 c0 -19 4 -35 9 -35 4 0 24 -13 42 -30 l34
-30 -35 -2 c-73 -4 -86 -5 -120 -11 -19 -3 -76 -8 -126 -11 l-91 -6 -84 68
-84 67 33 3 c19 2 38 -3 48 -12 20 -21 74 -21 74 -1 0 21 9 19 33 -7 l20 -23
-6 23 c-9 39 9 24 22 -18 6 -21 16 -42 22 -46 6 -4 38 2 71 12 l59 18 -4 38
-4 38 43 0 c44 0 44 0 44 -35z m517 -32 c-3 -10 -5 -4 -5 12 0 17 2 24 5 18 2
-7 2 -21 0 -30z m-1952 -50 c-9 -15 -13 -19 -10 -8 4 11 10 29 13 40 3 11 7
14 9 8 3 -7 -3 -24 -12 -40z m565 17 c6 -11 8 -20 5 -20 -3 0 -14 9 -25 20
-15 15 -16 20 -5 20 8 0 19 -9 25 -20z m1114 -107 c10 -22 -12 -14 -49 18 -19
17 -35 38 -35 46 0 11 12 5 39 -18 21 -19 42 -40 45 -46z m441 45 c32 -18 35
-22 20 -31 -41 -23 42 -37 90 -15 25 11 34 28 15 28 -19 0 -10 17 15 28 38 18
45 15 45 -17 0 -45 -10 -61 -36 -61 -14 0 -40 -7 -60 -15 -32 -13 -36 -13 -71
10 -19 14 -42 25 -49 25 -19 0 -25 16 -18 45 3 14 8 25 10 25 1 0 19 -10 39
-22z m-565 -9 c0 -5 -11 -9 -25 -9 -28 0 -34 16 -7 23 20 4 32 -1 32 -14z
m-234 -25 c-9 -8 -14 -19 -11 -24 3 -4 -6 -15 -19 -23 -22 -15 -25 -14 -47 9
-24 25 -24 26 -5 40 11 8 37 14 59 14 35 0 37 -1 23 -16z m314 -70 c0 -9 -7
-14 -17 -12 -25 5 -28 28 -4 28 12 0 21 -6 21 -16z m478 -20 c21 -14 32 -64
14 -64 -4 0 -28 21 -52 46 l-45 47 30 -7 c17 -4 40 -14 53 -22z m-2077 -77
c-6 -8 -8 -17 -4 -20 3 -4 2 -7 -3 -7 -12 0 -34 21 -34 32 0 4 12 8 26 8 21 0
24 -3 15 -13z m-91 -57 c0 -22 -24 -27 -36 -8 -4 7 -3 8 5 4 6 -4 14 0 17 8 8
22 14 20 14 -4z"/>
<path d="M1945 3570 c-3 -6 1 -7 9 -4 18 7 21 14 7 14 -6 0 -13 -4 -16 -10z"/>
<path d="M3075 3380 c-13 -5 -14 -9 -5 -9 8 0 24 4 35 9 13 5 14 9 5 9 -8 0
-24 -4 -35 -9z"/>
<path d="M2876 3258 c-9 -37 -7 -73 6 -86 17 -17 33 -15 18 3 -7 8 -11 34 -8
60 3 47 -5 61 -16 23z"/>
<path d="M3026 3044 c-21 -20 -21 -74 -1 -74 27 0 48 71 26 85 -5 3 -17 -2
-25 -11z m10 -51 c-10 -26 -18 -8 -9 23 5 21 8 24 11 11 2 -10 1 -25 -2 -34z"/>
<path d="M2760 3010 c0 -10 9 -24 19 -30 23 -12 101 -14 101 -2 0 14 -67 52
-93 52 -20 0 -27 -5 -27 -20z m48 -8 c2 -7 -3 -12 -12 -12 -9 0 -16 7 -16 16
0 17 22 14 28 -4z"/>
<path d="M3285 2712 c-16 -11 -48 -39 -70 -63 -46 -49 -21 -35 42 25 46 43 54
45 173 33 48 -5 56 -4 30 2 -82 22 -144 23 -175 3z"/>
<path d="M3463 2571 c-12 -15 -41 -38 -65 -50 -24 -11 -36 -21 -27 -21 21 0
95 54 109 80 15 29 7 25 -17 -9z"/>
<path d="M3303 2493 c9 -2 25 -2 35 0 9 3 1 5 -18 5 -19 0 -27 -2 -17 -5z"/>
<path d="M2921 1744 c0 -11 3 -14 6 -6 3 7 2 16 -1 19 -3 4 -6 -2 -5 -13z"/>
<path d="M1841 1281 c-8 -5 -9 -11 -3 -15 5 -3 15 1 22 9 14 16 3 20 -19 6z"/>
<path d="M1800 1255 c0 -8 7 -15 15 -15 10 0 15 -10 15 -27 0 -21 3 -24 9 -14
10 16 4 39 -15 59 -17 16 -24 15 -24 -3z"/>
<path d="M1861 1154 c0 -11 3 -14 6 -6 3 7 2 16 -1 19 -3 4 -6 -2 -5 -13z"/>
<path d="M3267 1434 c17 -22 38 -62 46 -89 8 -28 18 -50 23 -50 5 -1 26 -9 47
-19 21 -10 39 -17 42 -15 5 6 -43 139 -60 165 -9 14 -29 25 -52 29 -21 4 -47
9 -57 12 -16 5 -14 -1 11 -33z m98 -59 c6 -29 6 -28 -19 10 -30 48 -34 67 -7
40 11 -11 23 -33 26 -50z m15 -61 c0 -8 -5 -12 -10 -9 -6 4 -8 11 -5 16 9 14
15 11 15 -7z"/>
<path d="M3335 1185 c7 -106 17 -176 25 -176 9 0 74 -16 99 -24 23 -7 23 -6
17 41 -4 27 -14 86 -24 132 -13 65 -20 82 -34 82 -21 0 -70 21 -81 35 -5 5 -6
-35 -2 -90z m61 40 c27 -13 32 -22 47 -105 10 -50 16 -94 13 -98 -3 -5 -20 -6
-38 -4 -28 3 -33 8 -34 30 -1 119 -5 162 -14 162 -6 0 -8 -12 -4 -27 4 -22 3
-25 -5 -13 -13 18 -15 70 -3 70 5 0 22 -7 38 -15z m-29 -97 c-3 -8 -6 -5 -6 6
-1 11 2 17 5 13 3 -3 4 -12 1 -19z"/>
<path d="M3391 1163 c0 -21 4 -58 8 -83 l8 -45 3 45 3 45 7 -40 7 -40 1 35 c1
53 -12 113 -26 118 -8 2 -12 -8 -11 -35z m16 -20 c-3 -10 -5 -2 -5 17 0 19 2
27 5 18 2 -10 2 -26 0 -35z"/>
<path d="M3640 863 c0 -5 7 -48 15 -98 8 -49 15 -105 15 -123 0 -28 7 -37 47
-62 26 -17 52 -30 59 -30 6 0 14 16 17 36 7 43 -10 203 -23 219 -11 14 -107
65 -121 65 -5 0 -9 -3 -9 -7z m48 -65 c-4 -75 3 -168 12 -168 7 0 8 33 4 95
-4 52 -4 95 -1 95 16 0 57 -24 57 -34 1 -6 5 -42 10 -81 5 -38 7 -84 4 -102
l-6 -31 -44 26 c-42 26 -43 29 -44 77 -1 28 -5 74 -9 103 -6 40 -4 52 5 52 9
0 13 -12 12 -32z"/>
<path d="M3712 760 c0 -19 3 -60 8 -90 l7 -55 0 60 c1 33 -3 74 -7 90 l-8 30
0 -35z"/>
<path d="M3744 695 c0 -49 1 -71 3 -48 2 23 2 64 0 90 -2 26 -3 8 -3 -42z"/>
<path d="M2368 1265 c-15 -79 -10 -100 33 -149 43 -48 76 -59 99 -31 11 13 8
14 -16 9 -24 -4 -35 1 -64 31 -32 33 -35 42 -40 108 -5 67 -6 69 -12 32z"/>
<path d="M1994 1305 c4 -11 12 -45 18 -75 5 -30 14 -62 20 -70 7 -11 8 -9 4
10 -3 14 -10 50 -17 80 -6 30 -16 60 -22 65 -7 7 -8 4 -3 -10z"/>
<path d="M3646 1044 c8 -65 22 -120 23 -91 1 9 5 17 10 17 9 0 2 98 -9 118 -4
8 -6 -12 -4 -45 l3 -58 -9 53 c-11 74 -22 79 -14 6z"/>
<path d="M3685 1080 c3 -14 10 -54 15 -90 l9 -65 -3 78 c-2 44 -8 83 -15 90
-10 9 -11 7 -6 -13z"/>
<path d="M1140 935 c0 -5 16 -41 35 -79 36 -73 43 -92 22 -66 -7 9 -34 31 -60
50 l-48 34 -25 -27 -26 -28 21 -35 c12 -19 21 -46 21 -60 0 -15 6 -24 15 -24
8 0 15 -7 15 -15 0 -8 6 -12 13 -9 8 3 19 -2 26 -10 10 -11 8 -22 -9 -52 -11
-21 -20 -44 -20 -51 0 -18 40 -37 73 -35 21 2 27 -2 27 -18 0 -11 4 -20 10
-20 14 0 50 -42 44 -52 -3 -5 0 -15 6 -23 7 -8 10 -21 7 -29 -4 -9 12 -31 38
-55 83 -77 102 -44 49 85 -20 49 -36 102 -36 119 1 18 -32 97 -82 200 -79 160
-115 223 -116 200z"/>
<path d="M2284 685 c-10 -8 -14 -15 -8 -15 5 0 19 7 30 15 10 8 14 15 8 15 -5
0 -19 -7 -30 -15z"/>
<path d="M946 224 c-5 -14 -4 -15 9 -4 17 14 19 20 6 20 -5 0 -12 -7 -15 -16z"/>
</g>
</svg>
