<?xml version="1.0" standalone="no"?>
<!DOCTYPE svg PUBLIC "-//W3C//DTD SVG 20010904//EN"
 "http://www.w3.org/TR/2001/REC-SVG-20010904/DTD/svg10.dtd">
<svg version="1.0" xmlns="http://www.w3.org/2000/svg"
 width="502.000000pt" height="497.000000pt" viewBox="0 0 502.000000 497.000000"
 preserveAspectRatio="xMidYMid meet">

<g transform="translate(0.000000,497.000000) scale(0.100000,-0.100000)"
fill="#000000" stroke="none">
<path d="M2856 3840 c-25 -30 -26 -30 -128 -32 -65 0 -112 4 -127 11 -27 15
-39 8 -22 -12 16 -20 -36 -27 -149 -20 -68 5 -109 2 -165 -12 -57 -13 -81 -15
-105 -7 -27 10 -30 9 -30 -8 0 -11 12 -30 26 -43 14 -14 22 -27 17 -30 -4 -3
-44 -10 -87 -16 -89 -13 -151 -37 -204 -81 -20 -16 -45 -30 -54 -30 -26 0 -22
-19 7 -32 24 -11 24 -11 7 -41 -9 -17 -28 -50 -42 -75 -20 -36 -34 -48 -70
-60 -55 -18 -118 -60 -155 -104 -66 -77 -106 -213 -91 -310 9 -58 20 -75 39
-60 8 7 38 14 66 16 l51 4 0 -133 c0 -123 -2 -135 -26 -181 -14 -27 -33 -57
-42 -67 -24 -27 -8 -31 47 -13 27 9 55 16 62 16 20 0 5 -140 -21 -190 -12 -23
-19 -44 -16 -47 3 -4 30 10 61 30 30 21 57 37 60 37 3 0 5 -33 5 -72 0 -51 -6
-86 -20 -117 -11 -24 -20 -45 -20 -47 0 -12 23 0 54 26 l35 31 -6 -78 c-3 -43
-14 -101 -25 -129 l-19 -52 -61 -4 c-71 -5 -104 -32 -94 -78 3 -14 7 -92 10
-173 l4 -148 -24 -9 c-47 -18 -161 -100 -259 -187 -90 -80 -170 -146 -255
-211 -16 -13 -30 -27 -30 -31 0 -5 -21 -39 -46 -77 -62 -92 -139 -255 -164
-348 -15 -52 -20 -99 -19 -145 2 -38 -1 -75 -7 -82 -18 -22 -34 -103 -34 -166
1 -59 16 -135 43 -208 l14 -40 882 -3 c779 -2 881 0 881 13 0 8 9 15 20 15 11
0 20 -7 20 -15 0 -8 5 -15 10 -15 6 0 10 7 10 15 0 19 14 19 65 0 33 -12 132
-14 553 -15 l512 0 13 28 c8 18 12 81 11 187 0 129 -4 174 -21 233 -16 59 -18
83 -10 121 10 55 3 97 -37 207 -14 39 -32 108 -39 155 -24 150 -100 257 -297
415 -93 76 -156 111 -290 164 -58 23 -106 43 -108 45 -2 2 35 29 82 60 87 57
146 116 146 145 0 24 -29 60 -49 60 -10 0 -44 -11 -75 -25 -79 -35 -125 -40
-183 -22 -26 9 -59 17 -73 19 -20 2 -26 9 -28 36 -2 21 1 32 10 32 9 0 12 13
10 45 -4 45 4 55 26 33 9 -9 12 -5 12 19 0 39 25 63 43 40 14 -19 36 -7 56 30
6 13 15 22 19 21 4 -1 14 1 22 4 8 3 42 11 75 18 80 16 135 42 227 106 108 76
156 135 233 284 50 96 75 135 96 145 28 15 45 47 34 65 -3 5 -25 10 -47 10
l-41 0 20 23 c11 12 23 29 27 37 4 8 -2 3 -14 -13 -18 -22 -120 -83 -120 -71
0 14 76 84 91 84 11 0 19 5 19 10 0 6 -10 10 -22 10 -14 0 -51 -31 -107 -88
-70 -71 -102 -96 -171 -130 -92 -46 -204 -81 -260 -83 -19 -1 -46 -5 -60 -10
-17 -6 4 -7 61 -4 58 2 106 12 152 29 79 30 196 88 235 116 16 12 51 22 90 26
34 4 70 13 80 20 14 11 9 12 -38 8 -70 -7 -47 11 27 20 71 9 85 -21 25 -55
-21 -12 -47 -52 -93 -143 -75 -150 -133 -219 -238 -288 -111 -72 -209 -100
-351 -100 -91 0 -130 4 -185 22 -225 71 -365 197 -409 366 -37 143 -4 302 86
417 28 35 32 37 91 37 58 1 106 8 169 25 23 6 29 3 39 -18 12 -27 55 -55 66
-43 4 3 -3 13 -15 22 -46 32 -17 85 54 100 24 4 37 0 61 -20 38 -32 41 -32 36
-2 -9 43 82 77 115 44 20 -20 14 -65 -10 -82 -12 -9 -19 -18 -16 -22 10 -10
58 43 58 64 0 17 8 19 119 16 99 -2 126 -6 161 -24 51 -26 131 -104 155 -150
l17 -32 -44 -45 c-107 -112 -137 -139 -200 -179 -65 -42 -92 -68 -45 -43 61
33 146 98 230 178 50 48 102 93 114 99 30 16 53 5 54 -27 0 -23 1 -24 8 -6 19
46 -26 70 -79 41 -23 -14 -25 -12 -51 32 -34 60 -80 104 -146 139 l-52 29 65
28 c49 22 72 39 94 71 30 44 60 141 60 197 0 51 -17 67 -79 75 l-54 6 37 19
c20 10 36 24 36 30 0 6 -9 3 -21 -8 -18 -16 -35 -19 -110 -17 -77 2 -103 -2
-181 -28 -96 -31 -127 -46 -169 -80 -25 -20 -28 -20 -75 -6 -27 8 -65 23 -84
33 -29 15 -61 19 -185 20 -82 1 -177 7 -210 12 -71 12 -142 1 -193 -28 -19
-12 -37 -19 -39 -16 -3 2 3 21 13 41 23 50 79 84 157 98 75 12 144 -1 274 -53
54 -22 102 -34 155 -37 90 -7 126 5 161 51 96 125 198 159 286 95 23 -16 41
-35 38 -42 -2 -7 -32 -15 -69 -19 -36 -3 -82 -15 -104 -26 -21 -11 -66 -34
-99 -52 -49 -25 -67 -30 -100 -25 -29 5 -36 3 -25 -4 35 -25 87 -9 224 66 16
8 70 21 120 28 50 8 115 19 144 26 42 10 58 10 73 1 10 -7 19 -8 19 -3 0 19
-44 23 -103 10 -52 -11 -62 -10 -66 2 -2 8 -17 26 -33 41 -15 14 -28 35 -28
46 0 11 -7 25 -16 33 -10 8 -14 22 -10 40 l5 26 -36 -18 c-33 -17 -39 -17 -57
-4 -93 68 -161 105 -258 138 -20 7 -23 38 -8 68 17 31 -14 24 -44 -11z m7 -72
c-24 -103 -5 -283 28 -263 5 4 9 24 9 46 0 55 13 49 28 -14 15 -66 15 -86 0
-120 -12 -24 -18 -27 -65 -27 -33 0 -81 11 -135 31 -153 57 -216 71 -299 66
-42 -3 -89 -12 -106 -20 -40 -21 -92 -76 -100 -105 -5 -20 -10 -22 -32 -17
-14 4 -28 8 -30 10 -5 6 57 82 85 104 13 10 24 23 24 29 0 6 15 14 33 17 17 4
37 12 44 17 6 5 48 9 92 9 51 0 81 4 81 11 0 7 4 7 13 0 13 -11 154 -62 171
-62 5 0 1 9 -9 20 -10 11 -23 20 -30 20 -19 0 -139 51 -157 67 -18 16 -43 9
-31 -10 3 -6 -10 -1 -30 12 -32 20 -38 21 -43 7 -3 -9 -14 -16 -24 -16 -10 0
-43 -11 -74 -25 -31 -14 -72 -25 -92 -25 -32 0 -34 1 -23 21 24 45 91 107 137
127 70 30 158 38 224 18 64 -18 109 -23 126 -12 7 4 12 2 12 -3 0 -6 -4 -11
-9 -11 -10 0 5 -73 23 -110 18 -39 41 -32 40 12 -1 32 1 35 14 22 22 -23 36
-12 45 37 12 66 59 199 71 199 2 0 -3 -28 -11 -62z m87 -51 c0 -2 -11 -14 -25
-27 l-25 -23 0 26 c0 22 5 27 25 27 14 0 25 -1 25 -3z m-200 -39 c-1 -31 -1
-32 -15 -14 -19 25 -19 46 0 46 10 0 15 -10 15 -32z m304 1 c67 -32 79 -55 22
-45 -30 6 -33 4 -59 -51 -15 -32 -27 -61 -27 -65 0 -19 39 -5 65 22 16 17 35
30 44 30 8 0 22 6 30 14 21 17 81 37 81 27 0 -5 11 -12 25 -15 14 -4 25 -12
25 -19 0 -8 -16 -11 -52 -9 -71 5 -147 -35 -204 -105 l-41 -50 4 41 c3 26 -1
56 -11 80 -20 48 -20 98 -1 135 8 16 11 31 8 35 -17 16 33 3 91 -25z m-871
-219 c-14 -14 -37 -39 -50 -57 -22 -28 -27 -31 -53 -21 -36 12 -30 28 21 57
22 13 47 33 55 46 13 20 19 22 34 13 18 -11 17 -13 -7 -38z m-145 -91 c19 -6
29 -16 26 -24 -4 -10 -18 -9 -67 7 -34 10 -72 16 -85 13 -15 -4 -21 -2 -17 5
8 13 103 13 143 -1z m432 -19 c-8 -5 -29 -10 -47 -10 -17 0 -59 -9 -92 -19
-67 -21 -83 -13 -23 12 57 24 63 25 122 26 39 1 51 -2 40 -9z m-544 -30 c40
-25 36 -40 -23 -89 l-37 -31 -28 34 c-31 37 -101 76 -138 76 -30 0 -22 8 27
26 52 20 154 11 199 -16z m88 5 c48 -20 47 -29 -1 -11 -21 8 -45 17 -53 19
-12 5 -12 6 1 6 9 1 33 -6 53 -14z m1366 -18 c0 -1 -32 -34 -72 -72 -39 -39
-66 -62 -59 -53 7 10 11 24 8 32 -3 8 8 32 25 55 25 34 35 41 64 41 19 0 34
-1 34 -3z m-1659 -18 c53 -18 94 -54 146 -126 l47 -66 -22 -38 c-28 -49 -28
-52 9 -47 28 4 30 3 24 -21 -4 -14 -9 -28 -11 -31 -20 -19 -89 88 -101 155 -7
46 -50 95 -83 95 -30 0 -80 -28 -80 -45 0 -12 6 -12 35 4 20 10 45 16 57 13
20 -5 57 -71 58 -102 0 -8 12 -37 26 -64 25 -47 25 -50 8 -63 -26 -19 -76 -26
-107 -14 -36 14 -37 52 -2 75 26 17 33 36 14 36 -17 0 -69 -57 -69 -75 0 -9
12 -27 26 -40 33 -31 82 -32 140 -6 72 33 79 2 18 -72 -13 -16 -24 -32 -24
-37 0 -17 34 -20 63 -5 38 19 40 19 28 -3 -11 -20 -91 -66 -134 -76 l-28 -7 6
62 c5 54 3 61 -14 66 -10 3 -21 13 -24 24 -3 12 -14 19 -27 19 -13 0 -29 8
-36 18 -11 15 -16 15 -35 4 -18 -11 -23 -11 -30 -1 -6 10 -13 10 -31 2 -62
-30 -68 -24 -68 63 0 63 16 138 38 174 42 70 67 101 96 120 36 23 42 24 87 9z
m979 -13 c0 -5 -104 -85 -130 -101 -8 -5 4 13 28 40 24 28 56 53 70 56 15 4
28 7 30 8 1 0 2 -1 2 -3z m-684 -14 c6 -4 18 -22 27 -41 16 -33 16 -36 -4 -78
-24 -50 -20 -80 9 -64 16 9 21 3 36 -40 16 -44 52 -86 64 -74 3 3 -3 25 -12
49 -10 25 -16 64 -14 88 3 36 6 42 22 40 27 -5 65 -34 66 -50 0 -7 11 -24 25
-38 14 -14 37 -47 50 -73 14 -26 45 -67 68 -91 l43 -44 -29 -76 c-27 -67 -30
-87 -30 -192 l-1 -116 42 -85 c33 -67 57 -99 111 -149 78 -72 207 -142 295
-160 31 -6 56 -15 56 -19 0 -5 -4 -9 -10 -9 -5 0 -13 -14 -18 -32 l-8 -32 -30
45 c-35 53 -80 68 -72 25 6 -29 3 -27 -50 22 -29 26 -52 29 -52 6 0 -10 -19
-1 -64 31 l-64 46 -17 -23 -16 -23 -19 25 c-11 14 -27 52 -37 84 -19 63 -36
77 -41 34 -4 -32 -29 -58 -36 -37 -2 8 -11 34 -20 59 -9 25 -16 56 -16 68 0
26 -18 29 -27 5 -4 -10 -14 -29 -24 -41 -18 -24 -18 -24 -13 25 4 34 0 65 -15
110 -12 34 -21 76 -21 94 0 39 -20 34 -34 -9 -6 -17 -17 -37 -24 -44 -11 -11
-11 -8 -2 17 20 53 15 253 -6 248 -5 -1 -13 -17 -18 -35 l-9 -33 -13 30 c-7
17 -13 45 -14 63 0 39 -12 41 -29 5 -35 -76 -57 -116 -72 -129 -12 -11 -11 1
7 54 13 37 24 81 24 97 0 17 9 50 20 74 11 24 20 47 20 52 0 16 -27 9 -46 -12
-10 -12 -31 -30 -47 -41 l-27 -20 34 59 c32 55 65 168 52 180 -3 4 -15 -2 -25
-11 -19 -18 -19 -17 -6 27 7 25 21 57 30 70 15 23 12 57 -5 57 -4 0 -13 -7
-20 -15 -7 -8 -16 -15 -20 -15 -8 0 52 69 60 69 3 1 10 -3 16 -7z m954 -92 c0
-13 9 -22 25 -26 19 -5 65 -60 65 -80 0 -2 -16 -4 -35 -4 -25 0 -43 -7 -58
-24 -20 -22 -28 -23 -80 -17 l-58 6 30 32 c16 18 40 55 53 82 24 52 58 70 58
31z m-1030 4 c0 -3 -5 -15 -11 -26 -11 -21 -12 -21 -25 -3 -20 27 -17 35 11
35 14 0 25 -3 25 -6z m840 -188 c0 -3 -4 -8 -10 -11 -5 -3 -10 -1 -10 4 0 6 5
11 10 11 6 0 10 -2 10 -4z m-365 -86 c16 0 19 -9 7 -27 -5 -9 -17 -3 -40 18
-38 36 -42 48 -7 25 13 -9 31 -16 40 -16z m-217 -765 c-6 -29 15 -35 30 -9 5
10 25 17 50 19 36 3 42 0 52 -24 6 -15 27 -45 48 -65 31 -33 37 -36 48 -22 6
9 16 16 22 16 6 0 12 10 14 21 3 19 7 17 48 -22 25 -24 50 -53 57 -64 8 -14
14 -16 20 -9 15 21 51 20 75 -3 13 -13 39 -26 57 -29 l33 -7 -17 27 c-25 38
-10 32 34 -14 21 -22 45 -40 54 -40 19 0 23 -15 6 -26 -10 -6 -7 -60 8 -124 6
-23 5 -24 -11 -11 -24 20 -30 7 -12 -28 9 -16 16 -43 16 -58 l-1 -28 -19 35
c-10 20 -30 42 -44 50 -29 15 -45 8 -28 -12 5 -7 18 -33 28 -58 30 -76 74
-127 74 -85 0 8 4 15 10 15 5 0 7 13 4 30 -9 41 1 38 32 -11 l26 -41 -24 -16
c-52 -36 -176 -165 -196 -205 -18 -37 -41 -136 -58 -250 l-5 -38 -30 26 c-30
25 -69 34 -69 16 0 -5 9 -30 19 -55 28 -64 43 -154 32 -191 l-9 -30 -1 30 c-2
57 -23 109 -59 145 -39 38 -34 21 -80 324 l-17 110 -53 37 c-42 28 -70 39
-130 49 -105 17 -104 16 -81 53 19 32 26 97 11 97 -4 0 -14 -16 -21 -36 l-13
-36 -27 33 -27 32 -41 -44 c-44 -47 -60 -49 -43 -5 5 15 9 60 8 100 -1 63 3
82 31 138 17 35 31 72 31 81 0 9 10 46 22 82 16 49 33 77 66 111 25 24 47 44
50 44 2 0 2 -11 0 -25z m706 -91 c13 -5 13 -10 -2 -40 -20 -40 -29 -42 -42 -8
-19 50 -4 66 44 48z m76 -24 c-6 -11 -13 -20 -15 -20 -2 0 -9 9 -15 20 -9 18
-8 20 15 20 23 0 24 -2 15 -20z m-283 -1158 c31 -41 60 -142 43 -152 -8 -5 -8
-15 0 -34 15 -41 12 -83 -11 -156 -15 -49 -20 -85 -17 -145 3 -77 2 -79 -22
-86 -14 -4 -42 -7 -62 -8 l-38 -1 0 92 c0 51 -7 149 -17 219 -15 120 -15 129
1 153 19 30 37 155 29 201 -5 28 -5 29 9 11 15 -19 16 -18 29 20 l13 39 9 -60
c5 -39 18 -72 34 -93z m-160 -34 c-3 -8 -6 -5 -6 6 -1 11 2 17 5 13 3 -3 4
-12 1 -19z m649 -91 c1 -48 -3 -67 -12 -67 -7 0 -15 6 -17 13 -4 7 -6 6 -6 -5
-1 -19 -27 -48 -44 -48 -6 0 -1 7 11 16 36 25 25 35 -12 11 -21 -14 -29 -25
-22 -29 6 -5 2 -8 -11 -8 -13 0 -23 4 -23 9 0 5 -20 15 -45 22 -43 13 -60 29
-31 29 7 0 27 7 42 15 16 8 36 15 44 14 8 0 0 -7 -19 -15 -18 -8 -31 -17 -28
-20 3 -3 22 2 42 11 21 8 40 13 43 10 5 -5 -42 -25 -59 -25 -5 0 -9 -5 -9 -11
0 -10 16 -7 69 13 19 7 21 11 11 23 -7 8 -30 18 -52 21 -42 7 -58 21 -34 30 9
3 14 10 11 14 -7 11 61 18 79 8 9 -5 19 1 31 18 26 41 40 25 41 -49z m-356
-167 c0 -5 -5 -10 -11 -10 -5 0 -7 5 -4 10 3 6 8 10 11 10 2 0 4 -4 4 -10z
m10 -40 c0 -5 -4 -10 -9 -10 -6 0 -13 5 -16 10 -3 6 1 10 9 10 9 0 16 -4 16
-10z m0 -40 c0 -5 -4 -10 -10 -10 -5 0 -10 5 -10 10 0 6 5 10 10 10 6 0 10 -4
10 -10z m-60 -97 c0 -49 -3 -64 -11 -56 -12 12 -15 69 -4 102 11 36 15 24 15
-46z m60 47 c0 -5 -2 -10 -4 -10 -3 0 -8 5 -11 10 -3 6 -1 10 4 10 6 0 11 -4
11 -10z m-103 -77 c-3 -10 -5 -4 -5 12 0 17 2 24 5 18 2 -7 2 -21 0 -30z m3
-93 c0 -5 7 -7 15 -4 13 5 15 -11 15 -109 0 -126 5 -117 -60 -103 -25 5 -25 6
-24 107 0 92 2 103 20 110 27 11 34 10 34 -1z m-70 -110 l0 -100 -29 0 c-28 0
-28 1 -34 68 -4 37 -7 82 -7 100 0 30 2 32 35 32 l35 0 0 -100z m155 0 c3 -5
1 -10 -4 -10 -6 0 -11 5 -11 10 0 6 2 10 4 10 3 0 8 -4 11 -10z"/>
<path d="M2202 1956 c-18 -20 -32 -44 -32 -52 0 -8 -10 -38 -21 -65 -25 -57
-18 -76 23 -60 17 6 29 6 36 -1 13 -13 92 27 92 48 0 14 -3 14 -15 4 -13 -10
-15 -9 -15 9 0 23 -19 28 -38 9 -9 -9 -12 -1 -12 36 0 26 5 56 11 67 20 38 3
41 -29 5z"/>
<path d="M2615 1628 c4 -24 19 -68 33 -98 37 -79 37 -80 -7 -30 -43 47 -59 49
-44 3 7 -19 6 -51 -1 -96 l-11 -68 -22 23 c-28 29 -49 80 -57 138 -7 50 -43
121 -65 128 -11 4 -12 -3 -6 -34 5 -22 9 -68 10 -104 1 -36 7 -78 13 -93 17
-41 62 -95 99 -118 31 -20 60 -18 47 2 -3 5 0 8 7 7 10 -2 13 12 10 58 l-3 61
34 -1 c18 0 35 4 37 9 2 6 12 16 22 23 18 12 17 15 -15 62 -33 47 -46 80 -60
143 -10 46 -29 32 -21 -15z"/>
<path d="M3140 762 c-14 -20 -25 -41 -25 -47 0 -17 51 -12 52 5 1 8 5 30 9 48
8 42 -5 40 -36 -6z"/>
<path d="M3045 740 c-13 -6 -15 -9 -5 -9 8 0 22 4 30 9 18 12 2 12 -25 0z"/>
<path d="M3006 2995 c-6 -17 17 -31 34 -20 5 3 10 13 10 21 0 19 -36 18 -44
-1z"/>
<path d="M2850 2945 c-16 -19 -6 -45 19 -45 23 0 35 28 20 46 -15 18 -24 18
-39 -1z"/>
</g>
</svg>
