<?xml version="1.0" standalone="no"?>
<!DOCTYPE svg PUBLIC "-//W3C//DTD SVG 20010904//EN"
 "http://www.w3.org/TR/2001/REC-SVG-20010904/DTD/svg10.dtd">
<svg version="1.0" xmlns="http://www.w3.org/2000/svg"
 width="501.000000pt" height="498.000000pt" viewBox="0 0 501.000000 498.000000"
 preserveAspectRatio="xMidYMid meet">

<g transform="translate(0.000000,498.000000) scale(0.100000,-0.100000)"
fill="#000000" stroke="none">
<path d="M3277 4925 c-53 -18 -143 -79 -163 -110 -13 -20 -24 -25 -59 -25 -43
0 -105 -17 -105 -28 0 -4 20 -19 45 -34 52 -32 72 -60 91 -130 18 -69 18 -136
-2 -255 -16 -100 -50 -252 -58 -260 -2 -3 -16 12 -29 34 -36 56 -123 137 -192
178 -62 37 -227 95 -270 95 -14 0 -29 8 -35 20 -11 20 -66 40 -110 40 -14 0
-31 9 -38 20 -7 11 -21 20 -32 20 -15 0 -20 7 -20 29 0 25 5 30 37 36 47 9 93
54 93 93 0 16 7 48 15 71 24 68 -5 111 -75 111 -46 0 -125 -46 -146 -85 -16
-30 -16 -35 -2 -57 15 -23 15 -25 -12 -35 -43 -16 -47 -55 -10 -112 16 -26 30
-54 30 -62 -1 -23 -42 -65 -78 -79 -18 -7 -46 -29 -62 -48 l-29 -36 -11 30
c-24 62 -41 142 -47 214 -5 69 -3 78 21 113 14 21 26 40 26 42 0 13 -69 3
-106 -15 l-42 -21 -38 20 c-52 28 -109 35 -183 21 -64 -11 -181 -57 -181 -70
0 -4 17 -11 37 -15 53 -10 117 -50 162 -102 39 -43 112 -181 157 -295 l22 -58
-43 -66 c-54 -82 -89 -168 -104 -259 -7 -38 -15 -76 -17 -84 -5 -15 -50 19
-182 137 -54 48 -88 72 -98 68 -22 -8 -47 -72 -89 -225 l-37 -134 45 -45 45
-45 -49 -118 c-27 -65 -49 -125 -49 -133 0 -19 67 -86 106 -106 16 -8 46 -25
67 -38 l38 -23 -32 -57 c-17 -31 -54 -89 -80 -128 -27 -39 -49 -73 -49 -77 0
-3 -10 -17 -23 -30 -12 -14 -43 -63 -70 -109 -63 -113 -64 -153 -6 -220 77
-90 320 -241 462 -288 40 -13 42 -20 21 -74 -9 -24 10 -19 45 10 l31 26 0 -61
c0 -44 -4 -61 -13 -61 -8 0 -22 -9 -32 -20 -16 -18 -17 -25 -7 -54 16 -43 15
-46 -8 -46 -19 0 -24 -13 -21 -51 1 -9 -5 -22 -14 -29 -8 -7 -15 -19 -15 -26
0 -15 36 -11 73 8 59 30 35 -90 -36 -176 l-24 -30 -31 22 c-62 45 -140 20
-208 -66 -39 -51 -48 -57 -111 -74 -40 -11 -120 -20 -193 -23 -140 -6 -222
-25 -254 -59 -11 -13 -34 -30 -51 -39 -50 -26 -77 -57 -72 -82 3 -19 -3 -27
-35 -41 -39 -17 -108 -87 -108 -108 0 -6 -14 -19 -30 -28 -40 -22 -59 -70 -54
-128 4 -36 -4 -72 -40 -174 -51 -143 -53 -163 -30 -243 16 -54 16 -56 -17
-171 -37 -131 -44 -255 -20 -350 l13 -52 1839 0 1838 0 -28 62 c-15 35 -44 88
-64 119 -20 32 -56 115 -81 185 -43 126 -181 452 -270 640 -24 51 -51 117 -60
146 -17 59 -124 231 -149 241 -9 3 -25 24 -36 45 -21 41 -83 102 -104 102 -7
0 -18 10 -26 22 -11 18 -11 22 3 30 27 15 20 48 -9 48 -14 0 -36 7 -49 15 -43
28 -171 66 -243 72 -65 5 -73 8 -95 37 -12 17 -28 40 -34 51 -7 13 -19 19 -37
18 -28 -2 -38 13 -12 19 10 2 12 8 6 17 -15 24 -44 5 -37 -24 4 -17 0 -31 -16
-49 -51 -55 -74 -84 -71 -92 5 -16 -65 -84 -86 -84 -11 0 -25 8 -31 17 -11 17
-11 17 -6 0 6 -20 6 -20 -83 -36 -57 -11 -65 -10 -84 6 -19 17 -20 17 -14 1 8
-21 -18 -24 -56 -7 -19 8 -23 16 -19 37 4 22 -6 36 -69 94 -58 53 -71 70 -61
80 9 9 12 8 12 -5 0 -9 3 -17 6 -17 13 0 44 22 44 32 0 7 -5 7 -14 -1 -11 -10
-16 -8 -21 9 l-7 22 -22 -21 c-12 -12 -26 -21 -30 -21 -13 0 -1 93 17 131 l17
34 -24 -27 c-13 -15 -27 -45 -31 -67 -4 -23 -9 -41 -12 -41 -3 0 -37 20 -77
44 -39 25 -114 67 -166 93 l-95 48 -3 54 c-2 30 1 58 6 63 6 6 25 5 51 -3 40
-12 41 -13 35 -46 -7 -38 1 -41 46 -18 28 14 77 91 67 102 -3 3 -11 -6 -17
-19 -15 -29 -51 -68 -62 -68 -16 0 -8 47 12 65 25 23 45 86 66 210 10 57 26
111 36 125 10 14 23 55 28 90 l9 65 -3 -76 c-2 -43 -10 -89 -19 -107 -17 -35
-9 -40 28 -16 23 15 25 15 31 -2 3 -11 12 -33 20 -51 18 -41 18 -48 -11 -117
-13 -33 -23 -62 -20 -64 8 -8 46 11 76 39 17 16 33 28 35 26 9 -8 23 -108 18
-122 -4 -8 -1 -15 6 -15 16 0 70 32 70 42 0 20 18 5 33 -28 20 -40 68 -104 80
-104 4 0 7 7 7 16 0 8 5 24 10 34 10 18 13 18 56 -12 25 -16 55 -45 67 -64 28
-43 37 -43 37 2 l0 36 40 -36 c22 -20 49 -36 60 -36 21 0 27 15 10 25 -13 8
-13 25 -1 25 5 0 12 -9 16 -19 8 -25 59 -81 75 -81 7 0 9 8 5 23 -5 17 -4 19
4 7 6 -8 11 -31 11 -50 l1 -35 13 35 c7 20 9 42 4 52 -14 28 -9 38 18 38 22 0
24 -3 19 -22 l-7 -23 17 23 c13 18 20 21 31 11 9 -7 14 -8 14 -1 0 6 8 10 18
10 39 -3 181 46 243 82 76 45 169 140 204 210 55 109 77 242 55 338 -8 35 -7
46 5 58 21 21 19 35 -5 41 -11 3 -20 10 -20 17 0 40 -110 178 -153 192 -17 5
-12 12 31 50 53 47 135 145 169 204 34 61 35 84 8 186 -26 95 -26 95 -9 162
16 63 16 74 1 183 -20 137 -49 228 -83 260 -30 28 -42 19 -55 -42 -13 -55 -85
-228 -109 -260 -10 -13 -21 -21 -25 -18 -3 4 -16 45 -29 93 -13 49 -31 92 -40
99 -17 12 -16 18 8 98 27 89 89 387 131 634 29 169 48 211 120 272 25 20 45
40 45 44 0 12 -61 29 -104 29 -23 -1 -58 -7 -79 -15z m137 -5 l25 -9 -57 -58
c-64 -64 -77 -99 -107 -278 -37 -228 -87 -488 -111 -575 -31 -112 -88 -236
-115 -251 -11 -5 -58 -8 -107 -7 l-87 3 -22 46 -22 47 45 45 c25 25 51 44 57
41 19 -7 75 33 97 68 l20 33 0 -27 c0 -17 8 -31 20 -38 24 -13 27 -2 4 14 -15
11 -14 17 1 67 9 30 18 88 20 129 3 42 11 108 20 148 8 41 15 119 15 175 0 86
-4 110 -24 152 -21 46 -66 95 -98 108 -24 10 15 27 63 27 37 0 50 5 75 31 85
89 213 138 288 109z m-992 -112 c8 -7 18 -24 21 -38 l6 -25 -16 23 c-18 26
-38 29 -47 6 -4 -11 1 -18 14 -21 26 -7 25 -18 -2 -37 -29 -21 -52 -20 -69 1
-8 10 -9 14 -2 10 17 -11 27 11 13 28 -18 22 -39 18 -49 -7 -6 -17 -2 -27 19
-45 34 -28 60 -29 94 -2 l26 20 -6 -48 c-4 -32 -15 -57 -32 -75 -34 -37 -48
-35 -46 5 1 17 -1 22 -3 10 -7 -37 -28 -47 -57 -28 -27 18 -36 6 -12 -14 8 -7
14 -26 14 -43 -1 -31 22 -58 49 -58 7 0 13 -7 13 -15 0 -11 -12 -15 -49 -15
-27 0 -58 -3 -68 -6 -17 -5 -17 -5 0 6 26 17 21 58 -13 100 -48 61 -36 100 30
100 20 0 41 -5 48 -12 9 -9 12 -9 12 0 0 14 -38 50 -62 58 -43 13 -6 79 67
117 36 20 86 21 107 5z m-559 -124 l37 -25 44 26 c23 14 53 25 65 25 l21 0
-22 -42 c-48 -93 -12 -262 97 -464 70 -129 153 -236 216 -279 33 -23 46 -26
113 -24 65 2 80 -1 99 -18 48 -45 91 -63 148 -63 l56 0 6 -37 c4 -20 4 -39 2
-43 -2 -4 -44 -10 -92 -13 -48 -4 -128 -14 -178 -23 -163 -29 -250 -1 -352
111 -57 63 -170 250 -165 273 2 8 -1 11 -7 7 -6 -3 -9 0 -5 8 3 8 -6 38 -20
68 -13 30 -38 88 -54 129 -48 122 -110 232 -155 278 -70 73 -86 70 -19 -3 63
-67 99 -131 173 -309 49 -118 25 -83 -31 45 -97 219 -154 285 -290 336 -23 9
-21 11 35 32 120 46 212 47 278 5z m892 -439 c51 -11 105 -56 132 -109 21 -41
24 -60 21 -108 -5 -66 -19 -89 -46 -72 -9 6 -19 20 -21 30 -7 40 -22 46 -91
40 -36 -4 -74 -7 -85 -8 -11 -1 -36 1 -55 5 -28 6 -32 5 -22 -5 13 -13 63 -15
176 -8 51 3 57 0 70 -43 3 -9 15 -21 26 -25 20 -8 20 -9 -9 -39 -16 -18 -39
-36 -50 -42 -16 -9 -18 -8 -14 7 3 12 -5 22 -24 32 -15 8 -37 24 -48 36 -11
12 -41 29 -66 38 -53 19 -76 41 -89 82 -7 24 -8 25 -9 7 -2 -52 47 -99 121
-117 15 -3 32 -15 38 -26 6 -11 17 -20 24 -20 25 0 39 -26 26 -51 -11 -19 -17
-21 -63 -15 -117 16 -194 89 -201 192 -2 27 -1 33 2 14 5 -33 5 -32 18 25 13
63 11 84 -5 44 -5 -13 -10 -19 -10 -12 -2 39 58 115 108 135 40 16 84 26 101
23 8 -2 29 -6 45 -10z m-825 -109 c0 -6 -7 -1 -15 10 -8 10 -15 23 -15 28 0 6
7 1 15 -10 8 -10 15 -23 15 -28z m1137 2 c-3 -8 -6 -5 -6 6 -1 11 2 17 5 13 3
-3 4 -12 1 -19z m-1470 -385 c74 -35 96 -126 44 -182 -63 -67 -172 -24 -188
75 -7 43 11 81 52 106 37 22 48 22 92 1z m1805 -98 c26 -77 20 -185 -12 -185
-34 0 -67 136 -49 203 14 53 39 46 61 -18z m-1582 -64 c36 -25 63 -84 55 -120
-14 -67 -77 -97 -135 -64 -92 53 -106 157 -26 197 35 18 69 14 106 -13z m1300
-58 c-14 -9 -56 -45 -94 -80 -107 -98 -154 -103 -305 -32 -47 22 -97 43 -113
46 -49 10 -18 26 39 20 32 -3 51 -2 48 4 -4 5 19 10 52 11 100 3 137 7 160 13
34 11 43 -44 18 -110 -8 -19 -7 -19 11 -2 14 13 19 32 20 70 0 46 3 52 23 55
15 2 21 0 17 -7 -11 -16 20 -13 34 3 10 13 35 20 95 24 17 2 16 0 -5 -15z
m160 2 c30 -16 80 -74 80 -93 0 -8 -23 -13 -62 -13 l-63 -2 70 -6 c78 -8 95
-14 95 -38 0 -13 -11 -14 -77 -8 -115 12 -130 9 -230 -41 -102 -51 -129 -53
-126 -10 2 23 0 26 -13 16 -7 -7 -14 -19 -14 -28 0 -29 -31 -52 -71 -52 -32 0
-40 5 -58 35 -11 19 -28 35 -38 35 -15 0 -14 -3 6 -19 16 -12 22 -24 18 -35
-6 -14 -19 -16 -99 -10 -116 8 -248 -8 -353 -42 -44 -14 -84 -29 -90 -34 -5
-4 -22 -10 -38 -14 -20 -5 -29 -2 -33 9 -22 56 160 125 385 145 l86 7 -65 2
c-36 0 -90 -3 -120 -9 -109 -18 -205 -41 -217 -52 -23 -19 -15 35 15 92 33 66
61 87 131 100 93 17 203 -7 357 -81 108 -51 188 -36 280 53 63 61 88 78 133
94 48 17 76 17 111 -1z m-1059 -41 c16 -15 15 -18 -23 -52 -38 -35 -41 -35
-54 -17 -8 10 -14 24 -14 30 0 18 39 49 69 54 3 1 12 -6 22 -15z m70 -48 c-31
-33 -71 -121 -71 -155 0 -19 -7 -34 -19 -40 -17 -10 -19 -5 -25 60 -7 67 -6
71 21 103 37 43 71 65 95 58 19 -4 19 -5 -1 -26z m-269 -5 c29 -26 33 -35 33
-80 0 -38 -5 -54 -20 -65 -59 -45 -155 17 -155 101 0 75 80 100 142 44z m-450
-56 c74 -48 78 -52 78 -86 0 -48 -47 -89 -103 -89 -78 0 -132 69 -113 144 5
21 58 65 78 66 3 0 30 -16 60 -35z m1772 -37 c22 -7 41 -19 44 -27 4 -13 -9
-11 -55 6 -7 3 -13 0 -13 -6 0 -6 7 -11 16 -11 20 0 12 -29 -24 -89 -35 -57
-103 -95 -173 -95 -31 0 -55 6 -66 16 -10 9 -31 29 -47 44 l-29 26 24 20 24
19 -38 -6 c-26 -4 -37 -3 -33 4 6 9 177 96 226 115 21 8 98 0 144 -16z m82
-54 c8 -44 -11 -114 -32 -114 -16 0 -34 39 -34 75 0 13 10 29 26 40 15 10 23
22 20 31 -3 8 -1 12 4 9 5 -3 12 -22 16 -41z m-1621 -40 c75 -42 90 -69 58
-112 -46 -63 -122 -65 -180 -7 -45 45 -46 92 -2 129 17 14 37 26 44 26 8 0 44
-16 80 -36z m1155 2 c-7 -10 -3 -20 15 -40 28 -30 32 -46 11 -46 -19 0 -74
-64 -82 -95 l-6 -24 -37 29 c-20 16 -51 33 -69 36 -28 6 -33 10 -28 28 3 12 6
26 6 33 0 6 9 15 21 18 16 6 20 13 17 35 -4 25 -2 27 13 19 28 -14 71 -11 104
10 32 19 53 18 35 -3z m-177 -11 c32 -13 20 -35 -20 -36 -21 0 -32 -3 -25 -6
23 -9 12 -83 -13 -83 -24 0 -64 -40 -67 -68 -7 -57 -146 -81 -249 -43 -62 23
-153 103 -125 109 9 2 16 8 16 14 0 6 -13 7 -32 3 -50 -11 -50 -11 -55 2 -8
22 188 95 312 116 39 7 235 0 258 -8z m566 -108 c-10 -39 -26 -54 -39 -41 -5
5 1 31 12 57 25 56 44 44 27 -16z m-62 -20 c-14 -23 -42 -61 -64 -84 -36 -39
-40 -42 -76 -35 -38 7 -39 7 -41 59 -3 51 -3 52 23 47 33 -7 132 29 157 57 28
31 29 4 1 -44z m-1279 7 c56 -49 68 -87 36 -118 -36 -37 -123 1 -156 69 -20
41 -20 45 -4 69 26 40 62 34 124 -20z m185 16 c-3 -12 1 -22 11 -26 10 -4 16
-18 16 -35 0 -76 84 -226 157 -281 15 -12 32 -25 36 -28 5 -4 -1 -25 -12 -46
-11 -21 -23 -56 -27 -77 -3 -21 -13 -41 -20 -44 -18 -7 -18 -52 0 -59 9 -3 19
-33 26 -77 19 -114 69 -209 159 -297 42 -41 95 -83 118 -94 24 -11 44 -27 47
-39 9 -35 -1 -32 -49 12 -24 22 -47 41 -51 41 -4 0 -4 -16 -1 -36 l6 -35 -20
25 c-21 27 -103 86 -120 86 -5 0 -15 -11 -21 -25 -9 -20 -14 -23 -25 -13 -20
16 -63 103 -63 127 0 11 -4 23 -10 26 -5 3 -10 -2 -10 -12 0 -18 -44 -73 -59
-73 -8 0 -24 108 -24 165 0 27 -1 28 -11 11 -17 -29 -77 -96 -87 -96 -4 0 -1
16 7 35 19 45 18 108 -2 147 -10 19 -14 48 -12 74 4 49 -6 59 -17 17 -7 -29
-23 -53 -34 -53 -4 0 -1 33 7 72 14 69 13 79 -8 175 -17 77 -20 106 -12 116 7
7 15 46 18 86 5 48 11 71 19 68 7 -3 11 8 12 30 1 47 35 153 50 153 6 0 9 -8
6 -20z m860 -4 c24 -18 39 -73 32 -117 l-6 -36 58 -2 c114 -3 239 -87 288
-193 23 -50 23 -53 7 -73 -17 -20 -17 -20 4 -2 23 19 44 22 44 7 0 -11 -36
-35 -66 -44 -18 -5 -23 0 -33 34 -15 50 -74 118 -118 137 -42 17 -125 17 -167
-1 -38 -16 -75 -61 -103 -126 -26 -59 -129 -162 -196 -195 -71 -34 -161 -42
-257 -22 -149 31 -228 69 -172 84 14 3 22 16 26 46 15 91 108 223 191 271 67
39 88 40 124 6 17 -17 38 -30 46 -30 10 0 1 14 -23 38 -24 22 -45 54 -53 80
-11 39 -11 45 8 70 18 24 27 27 77 27 52 0 58 -3 100 -44 l45 -44 7 42 c13 79
86 126 137 87z m-764 -69 c22 -23 61 -53 87 -67 62 -30 171 -38 234 -16 24 8
45 14 46 13 1 -1 4 -12 8 -23 6 -19 2 -22 -31 -28 -45 -7 -144 -78 -180 -130
l-26 -35 -27 19 c-80 57 -149 172 -158 262 -2 26 -2 48 2 48 3 0 23 -19 45
-43z m-754 -58 c16 -25 -49 -112 -69 -92 -13 14 -5 41 14 46 14 4 18 10 14 22
-10 25 28 47 41 24z m109 -103 c-2 -64 -84 -123 -84 -61 0 49 46 111 75 101 6
-2 9 -20 9 -40z m166 -47 c0 -16 -10 -49 -22 -73 -33 -69 -68 -74 -68 -10 0
38 32 110 52 117 24 8 38 -5 38 -34z m166 -35 c14 -57 -19 -153 -54 -154 -22
0 -33 47 -21 98 17 75 62 109 75 56z m1288 -40 c8 -31 10 -28 -33 -43 -38 -12
-45 -8 -55 30 -7 33 -1 39 45 39 31 0 38 -4 43 -26z m56 7 c14 -28 13 -31 -14
-31 -22 0 -36 16 -36 41 0 17 39 9 50 -10z m-157 -23 c6 -40 7 -38 -37 -48
-41 -9 -46 -6 -46 31 0 30 21 48 56 49 17 0 23 -7 27 -32z m-93 -32 c0 -23
-16 -36 -46 -36 -12 0 -11 6 6 30 26 36 40 38 40 6z m-1770 -63 c0 -14 -19
-38 -25 -32 -8 8 5 39 16 39 5 0 9 -3 9 -7z m2154 -25 c10 -37 7 -153 -5 -210
-18 -86 -76 -186 -147 -255 -296 -287 -790 -146 -893 255 -10 41 -17 77 -16
79 2 2 21 -4 42 -13 20 -8 92 -21 159 -29 66 -7 103 -14 81 -15 -39 -2 -39 -3
13 -10 30 -5 76 -20 104 -34 28 -15 53 -25 55 -22 6 5 -61 46 -78 47 -10 0
-11 2 -2 6 24 9 118 -56 190 -132 104 -109 157 -127 239 -79 118 69 203 224
204 371 0 51 3 55 41 62 4 0 9 -9 13 -21z m-2004 -84 c0 -9 -24 -54 -29 -54
-3 0 -12 4 -20 9 -23 15 1 61 28 54 12 -3 21 -7 21 -9z m203 -81 c19 -6 19
-21 -3 -78 -9 -25 -10 -25 -45 -8 -40 19 -40 18 -19 68 11 28 19 35 32 30 9
-4 25 -10 35 -12z m1453 -63 c31 -16 71 -32 90 -36 l34 -6 -24 -19 c-13 -10
-29 -19 -35 -19 -6 0 -11 -7 -11 -15 0 -23 -28 -18 -35 6 -7 20 -12 21 -80 14
l-73 -6 -41 39 c-27 26 -38 43 -31 47 18 11 79 8 95 -5 19 -16 40 -3 24 16
-21 25 27 17 87 -16z m-1238 -25 c20 -6 22 -11 17 -43 -11 -64 -11 -64 -50
-45 -33 16 -36 21 -31 46 3 16 6 36 6 44 0 9 7 12 18 9 9 -2 27 -7 40 -11z
m1422 -47 c0 -16 -51 -68 -67 -68 -8 0 -13 13 -13 34 0 32 3 35 33 39 17 2 35
5 40 5 4 1 7 -3 7 -10z m-180 -52 c0 -51 -19 -65 -56 -41 -16 10 -24 25 -24
45 0 29 3 31 68 39 8 1 12 -14 12 -43z m-100 18 c0 -8 -4 -12 -10 -9 -5 3 -10
10 -10 16 0 5 5 9 10 9 6 0 10 -7 10 -16z m-1220 -153 c0 -11 -29 -35 -35 -29
-10 9 7 38 21 38 8 0 14 -4 14 -9z m1004 -137 c10 -4 16 -18 16 -38 l-1 -31
-24 30 c-35 42 -32 55 9 39z m-979 -114 c3 -6 -1 -7 -9 -4 -18 7 -21 14 -7 14
6 0 13 -4 16 -10z m93 -61 c23 -17 42 -38 42 -46 0 -14 -18 0 -94 68 -25 23
14 6 52 -22z m-140 -11 c-3 -7 -15 -15 -28 -16 -21 -3 -22 -2 -11 12 16 19 44
21 39 4z m336 -122 c62 -41 125 -78 140 -82 32 -8 40 -18 23 -32 -10 -8 -27
-1 -68 28 -29 22 -83 56 -119 76 -81 47 -111 69 -103 78 9 9 6 11 127 -68z
m-160 -101 c-4 -16 -15 -44 -25 -61 -17 -29 -18 -32 -3 -38 10 -4 14 -14 11
-25 -2 -10 0 -26 5 -35 13 -23 1 -56 -18 -49 -9 3 -14 -1 -14 -15 0 -24 -37
-72 -55 -72 -20 0 -28 17 -28 61 0 22 -2 39 -5 39 -4 0 -20 -14 -38 -31 -27
-26 -35 -29 -53 -20 -25 14 -25 13 -7 72 19 61 38 98 71 133 36 39 25 44 -18
7 -61 -54 -66 -6 -7 71 22 29 45 71 51 92 l11 40 64 -70 c56 -61 63 -73 58
-99z m911 95 c3 -5 1 -10 -4 -10 -6 0 -11 5 -11 10 0 6 2 10 4 10 3 0 8 -4 11
-10z m-34 -63 c-16 -16 -26 0 -10 19 9 11 15 12 17 4 2 -6 -1 -17 -7 -23z
m-860 -80 c-6 -15 -15 -27 -20 -27 -5 0 -3 12 5 28 7 15 14 34 15 42 1 12 2
12 6 -1 2 -8 -1 -28 -6 -42z m-338 23 c7 -11 12 -33 9 -50 -4 -29 -7 -31 -36
-24 -45 9 -79 43 -64 62 28 33 72 39 91 12z m174 -246 c-9 -9 -28 6 -21 18 4
6 10 6 17 -1 6 -6 8 -13 4 -17z m297 4 c15 -25 -17 -57 -42 -42 -22 14 -28 44
-10 55 18 12 39 7 52 -13z m862 -9 c10 -17 -13 -36 -27 -22 -12 12 -4 33 11
33 5 0 12 -5 16 -11z m-516 -29 c0 -5 -7 -10 -15 -10 -8 0 -15 5 -15 10 0 6 7
10 15 10 8 0 15 -4 15 -10z m-617 -40 c32 -6 57 -15 55 -19 -2 -5 -19 -45 -38
-90 -44 -102 -62 -104 -72 -8 -5 37 -15 84 -23 104 -19 45 -19 46 3 34 9 -5
43 -14 75 -21z m897 9 c0 -5 -7 -9 -15 -9 -15 0 -20 12 -9 23 8 8 24 -1 24
-14z m268 -21 c17 -17 15 -58 -4 -65 -36 -13 -68 33 -44 62 15 18 32 19 48 3z
m-553 -63 c0 -25 -4 -30 -24 -30 -32 0 -49 28 -31 50 7 9 23 15 34 13 16 -2
21 -10 21 -33z m-420 -11 c0 -12 -8 -20 -22 -22 -25 -4 -31 16 -11 36 17 17
33 10 33 -14z m740 -13 c9 -31 -5 -52 -33 -49 -33 4 -50 31 -33 52 18 22 58
20 66 -3z m300 -61 c0 -22 -39 -19 -43 3 -3 15 1 18 20 15 12 -2 23 -10 23
-18z m-647 -58 c3 -16 -2 -22 -17 -22 -24 0 -35 15 -27 36 9 23 40 13 44 -14z
m-575 -35 c61 -60 76 -98 53 -141 -20 -39 -9 -62 26 -57 3 0 9 -28 13 -62 4
-34 12 -70 17 -81 9 -16 7 -18 -15 -13 -22 6 -24 4 -19 -18 7 -39 -4 -30 -48
36 -64 96 -70 112 -74 201 -2 46 -9 96 -15 111 -14 35 -14 77 -1 77 5 0 33
-24 63 -53z m945 5 c3 -16 -2 -22 -17 -22 -24 0 -35 15 -27 36 9 23 40 13 44
-14z m-784 -91 c3 -5 -1 -14 -9 -21 -13 -10 -15 -9 -15 9 0 21 14 28 24 12z
m313 -121 c38 -10 97 -23 133 -29 35 -6 66 -14 69 -18 3 -5 16 -13 28 -20 17
-10 24 -9 33 2 9 11 36 15 100 15 106 0 233 23 319 57 73 29 81 25 81 -45 0
-39 -6 -49 -60 -106 -60 -62 -176 -137 -234 -150 -26 -7 -28 -5 -22 16 19 63
18 105 -3 144 -19 34 -21 36 -14 9 11 -44 7 -129 -9 -161 -18 -38 -63 -47
-213 -41 -87 3 -139 11 -190 27 -76 24 -196 78 -206 93 -4 5 -14 45 -24 88
-16 78 -16 78 6 108 31 42 46 39 54 -9 7 -44 25 -45 25 -1 0 33 18 53 41 46 9
-3 48 -14 86 -25z m917 -60 c7 0 20 -18 29 -40 17 -45 9 -50 -34 -19 -23 16
-29 28 -29 57 1 30 3 34 11 20 5 -10 16 -18 23 -18z m-1266 -166 l3 -49 -21
33 c-13 20 -18 42 -15 53 11 35 30 14 33 -37z"/>
<path d="M3298 4808 c-17 -27 -29 -58 -23 -58 3 0 14 18 25 40 22 43 21 54 -2
18z"/>
<path d="M3256 4725 c-9 -26 -7 -32 5 -12 6 10 9 21 6 23 -2 3 -7 -2 -11 -11z"/>
<path d="M3087 3950 c6 -8 13 -28 16 -45 l4 -30 2 31 c0 20 -6 37 -16 45 -16
12 -16 12 -6 -1z"/>
<path d="M2227 4577 c-4 -10 -3 -26 2 -34 11 -21 19 -4 11 27 -5 22 -7 23 -13
7z"/>
<path d="M1877 4349 c12 -19 29 -50 39 -69 39 -73 64 -100 93 -100 19 0 39
-12 64 -37 20 -21 41 -42 47 -48 5 -5 33 -35 61 -65 40 -43 44 -45 15 -10 -95
117 -150 170 -177 170 -30 0 -54 28 -108 122 -18 32 -37 61 -44 65 -6 3 -1 -9
10 -28z"/>
<path d="M2510 3997 c-1 -19 29 -74 51 -92 l24 -20 -18 21 c-9 11 -26 38 -37
60 -10 21 -19 35 -20 31z"/>
<path d="M1542 3667 c-15 -17 12 -58 33 -52 8 3 22 7 30 10 12 3 13 9 3 30
-12 27 -48 34 -66 12z"/>
<path d="M3367 3596 c-6 -15 1 -26 15 -26 4 0 8 9 8 20 0 23 -15 27 -23 6z"/>
<path d="M1758 3543 c-21 -5 -23 -32 -5 -55 9 -12 18 -14 35 -7 24 9 27 21 12
50 -11 19 -13 20 -42 12z"/>
<path d="M2668 3323 c7 -3 16 -2 19 1 4 3 -2 6 -13 5 -11 0 -14 -3 -6 -6z"/>
<path d="M1940 3406 c0 -32 13 -46 41 -46 31 0 35 10 19 41 -12 22 -60 26 -60
5z"/>
<path d="M1521 3332 c-14 -11 -18 -21 -12 -31 12 -19 51 -4 51 19 0 28 -15 32
-39 12z"/>
<path d="M3386 3281 c-4 -7 -5 -15 -2 -18 9 -9 19 4 14 18 -4 11 -6 11 -12 0z"/>
<path d="M1747 3225 c-13 -9 -17 -20 -12 -34 7 -24 23 -27 49 -8 15 11 17 17
7 35 -14 25 -19 26 -44 7z"/>
<path d="M1960 3108 c0 -24 16 -39 34 -32 9 4 16 14 14 23 -4 20 -48 28 -48 9z"/>
<path d="M2982 3104 c-16 -11 -22 -26 -22 -53 0 -64 49 -82 79 -30 29 52 -13
114 -57 83z"/>
<path d="M2738 3059 c-27 -15 -23 -65 7 -94 32 -33 89 -35 105 -4 16 29 -5 76
-41 94 -33 17 -47 18 -71 4z"/>
<path d="M1580 2885 c0 -8 5 -15 10 -15 6 0 10 7 10 15 0 8 -4 15 -10 15 -5 0
-10 -7 -10 -15z"/>
<path d="M1735 2821 c-6 -11 9 -23 19 -14 9 9 7 23 -3 23 -6 0 -12 -4 -16 -9z"/>
<path d="M1917 2766 c-6 -15 1 -26 15 -26 11 0 10 27 -1 34 -5 3 -11 0 -14 -8z"/>
<path d="M2876 1952 c-3 -6 -1 -14 5 -17 14 -9 20 -2 10 14 -6 8 -11 9 -15 3z"/>
</g>
</svg>
