<?xml version="1.0" standalone="no"?>
<!DOCTYPE svg PUBLIC "-//W3C//DTD SVG 20010904//EN"
 "http://www.w3.org/TR/2001/REC-SVG-20010904/DTD/svg10.dtd">
<svg version="1.0" xmlns="http://www.w3.org/2000/svg"
 width="502.000000pt" height="497.000000pt" viewBox="0 0 502.000000 497.000000"
 preserveAspectRatio="xMidYMid meet">

<g transform="translate(0.000000,497.000000) scale(0.100000,-0.100000)"
fill="#000000" stroke="none">
<path d="M2750 3923 c-47 -6 -271 -50 -345 -69 -33 -9 -91 -29 -129 -46 -55
-24 -77 -29 -109 -24 -38 6 -39 6 -35 -17 4 -21 -4 -30 -58 -61 -35 -20 -68
-36 -74 -36 -18 0 -93 -41 -130 -71 -19 -16 -40 -29 -47 -29 -18 0 -16 -17 3
-24 12 -5 -1 -25 -58 -88 -103 -116 -168 -178 -185 -178 -10 0 -52 67 -88 139
-37 75 -121 156 -197 191 -101 46 -108 46 -108 12 0 -17 -9 -49 -20 -73 -21
-47 -25 -94 -11 -131 6 -16 22 -27 52 -35 32 -8 63 -30 115 -80 64 -61 94 -80
177 -107 23 -7 16 -35 -23 -91 -42 -61 -64 -109 -110 -240 -23 -66 -57 -153
-76 -194 -19 -41 -34 -79 -34 -86 0 -6 15 -16 33 -22 17 -6 57 -20 87 -31 37
-14 59 -17 67 -10 6 5 24 42 39 81 36 99 61 150 111 231 l43 70 0 -125 c0
-120 -1 -128 -31 -187 -17 -34 -35 -62 -40 -62 -5 0 -9 -5 -9 -11 0 -11 33 -9
104 7 l29 7 -6 -70 c-5 -59 -17 -102 -45 -155 -8 -17 27 -6 71 22 26 17 50 30
52 30 3 0 5 -30 5 -67 0 -46 -7 -82 -20 -112 -33 -71 -23 -80 34 -30 l35 30
-4 -33 c-2 -18 -6 -58 -9 -88 -5 -66 -36 -140 -83 -197 l-34 -43 31 0 c17 0
45 7 61 16 l30 15 -3 -33 c-3 -30 -6 -33 -43 -38 -55 -8 -61 -13 -111 -90 -24
-38 -62 -82 -83 -99 -45 -36 -58 -65 -41 -87 10 -11 5 -21 -31 -51 -77 -66
-315 -307 -347 -352 -20 -28 -32 -56 -32 -76 0 -30 -17 -59 -61 -108 -61 -66
-112 -229 -123 -389 -5 -66 -12 -98 -33 -137 -20 -41 -28 -73 -34 -150 -8 -99
-22 -191 -34 -223 -7 -17 34 -18 774 -18 l782 0 -14 27 c-8 16 -12 33 -10 40
2 6 -3 26 -12 43 -9 17 -13 35 -10 41 4 5 0 21 -9 34 -9 13 -16 35 -16 48 0
14 -7 30 -16 38 -8 7 -13 21 -11 30 3 10 -1 26 -9 36 -7 10 -14 26 -14 37 0
10 -13 46 -29 80 -16 33 -31 73 -35 89 -3 15 -11 27 -16 27 -6 0 -10 11 -10
25 0 14 -9 33 -20 42 -11 10 -20 28 -20 40 0 13 -9 31 -20 40 -11 10 -20 27
-20 39 0 12 -7 27 -15 34 -8 7 -15 20 -15 30 0 10 -7 23 -15 30 -8 7 -15 18
-15 25 0 7 -7 18 -15 25 -8 7 -15 21 -15 31 0 10 -9 23 -20 29 -11 6 -20 19
-20 29 0 10 -7 24 -15 31 -8 7 -15 19 -15 26 0 8 -10 24 -22 36 -12 12 -23 29
-25 36 -1 8 -10 24 -21 36 -10 11 -22 30 -26 41 -6 18 -5 17 18 -4 13 -12 27
-34 30 -47 4 -13 11 -24 16 -24 5 0 16 -16 24 -35 8 -19 20 -35 25 -35 6 0 11
-9 11 -20 0 -10 9 -24 20 -30 11 -6 20 -19 20 -29 0 -10 9 -26 20 -36 11 -10
17 -21 15 -26 -3 -4 2 -14 10 -22 8 -9 15 -22 15 -31 0 -8 5 -18 10 -21 6 -4
17 -21 25 -38 8 -18 18 -39 23 -47 24 -42 42 -83 42 -95 0 -7 12 -28 26 -45
15 -17 24 -34 21 -37 -4 -3 0 -18 7 -32 8 -14 20 -41 26 -58 7 -18 16 -33 21
-33 5 0 9 -13 9 -29 0 -16 7 -34 15 -41 8 -7 15 -25 15 -41 0 -15 5 -31 10
-34 6 -3 10 -14 10 -23 0 -9 7 -30 15 -46 8 -15 15 -37 15 -47 0 -11 4 -27 9
-37 11 -22 31 -106 31 -132 0 -17 7 -20 44 -20 39 0 45 3 56 30 15 37 20 37
45 0 16 -24 27 -30 58 -30 32 0 37 3 37 24 0 13 -7 29 -15 36 -9 7 -13 21 -9
35 3 13 -1 28 -10 38 -9 8 -16 31 -16 50 0 21 -6 37 -14 40 -9 4 -14 19 -14
37 1 17 -4 36 -10 42 -7 7 -12 26 -12 44 0 20 -6 34 -15 38 -12 4 -14 14 -10
39 5 24 2 37 -9 47 -10 7 -14 21 -11 31 4 11 -2 26 -15 39 -13 13 -19 28 -15
40 4 12 -2 27 -15 40 -12 12 -19 28 -16 35 3 8 -4 25 -15 39 -11 14 -18 30
-14 36 3 5 -3 17 -15 27 -11 10 -20 30 -20 45 0 15 -7 31 -17 36 -10 6 -14 16
-10 26 4 10 -1 21 -13 28 -11 7 -20 23 -20 36 0 12 -7 25 -15 28 -8 4 -15 14
-15 24 0 9 -9 25 -19 34 -11 10 -22 28 -25 42 -4 13 -11 24 -16 24 -6 0 -10 9
-10 20 0 11 -7 23 -15 26 -8 4 -15 14 -15 25 0 10 -9 23 -20 29 -11 6 -20 20
-20 30 0 11 -4 20 -10 20 -5 0 -10 9 -10 20 0 10 -9 24 -20 30 -11 6 -20 19
-20 29 0 11 -7 21 -15 25 -8 3 -15 12 -15 20 0 9 -9 20 -20 26 -11 6 -20 17
-20 25 0 8 -7 15 -15 15 -8 0 -15 9 -15 20 0 11 -4 20 -8 20 -12 0 -92 79 -92
91 0 5 -11 14 -24 20 -13 6 -30 22 -37 35 -7 13 -16 24 -21 24 -11 0 -98 84
-98 95 0 5 5 4 12 -3 7 -7 21 -12 32 -12 10 0 16 -3 13 -7 -9 -8 22 -43 38
-43 7 0 15 -9 18 -21 3 -11 15 -23 27 -26 12 -3 26 -17 31 -30 5 -14 18 -27
28 -30 11 -3 21 -14 24 -25 3 -11 15 -22 26 -25 12 -3 21 -11 21 -19 0 -7 9
-18 20 -24 11 -6 20 -17 20 -26 0 -8 7 -17 15 -20 8 -4 15 -12 15 -20 0 -7 9
-18 20 -24 11 -6 20 -17 20 -26 0 -8 6 -17 14 -20 8 -3 17 -16 20 -30 4 -13
11 -24 16 -24 6 0 15 -11 20 -25 5 -14 14 -25 20 -25 5 0 10 -9 10 -20 0 -10
9 -24 21 -30 12 -7 18 -18 15 -26 -3 -7 3 -18 14 -24 11 -6 20 -21 20 -34 0
-13 7 -26 15 -30 8 -3 15 -15 15 -26 0 -11 7 -23 15 -26 8 -4 15 -17 15 -30 0
-14 7 -27 15 -30 8 -4 15 -14 15 -24 0 -10 8 -26 17 -35 9 -10 18 -28 19 -42
2 -14 11 -31 20 -37 9 -7 14 -18 11 -23 -4 -6 2 -22 13 -36 11 -14 20 -34 20
-45 0 -11 7 -25 15 -32 8 -7 15 -22 15 -34 0 -12 7 -31 15 -42 8 -10 15 -24
15 -31 0 -6 5 -24 12 -40 6 -15 13 -39 14 -52 2 -13 10 -31 18 -40 8 -9 13
-26 10 -37 -3 -12 1 -28 10 -37 9 -8 16 -29 16 -45 0 -16 7 -35 16 -43 9 -7
13 -21 10 -34 -4 -14 2 -31 14 -45 12 -14 18 -31 14 -42 -3 -11 2 -30 11 -44
9 -13 14 -28 11 -32 -2 -4 2 -22 9 -40 13 -30 17 -32 61 -32 26 0 44 3 41 7
-4 3 0 14 9 24 9 10 17 32 18 48 1 16 5 33 9 37 4 4 7 20 7 35 0 14 7 39 15
55 8 16 12 38 9 50 -3 12 -1 25 5 28 6 4 11 22 11 40 0 19 7 46 15 62 9 18 11
32 5 39 -6 7 -4 19 6 34 10 14 14 31 9 48 -4 17 0 31 11 44 11 12 14 27 10 45
-4 14 -3 31 2 37 11 13 23 86 22 135 0 17 5 32 11 32 7 0 8 11 4 30 -4 17 -2
36 3 43 6 7 10 23 10 37 -2 87 15 271 32 363 11 60 19 111 18 115 -1 4 2 14 5
22 3 8 13 51 22 94 14 75 25 107 25 75 0 -8 -11 -72 -25 -143 -14 -71 -22
-133 -19 -138 3 -5 0 -15 -6 -23 -7 -8 -10 -21 -7 -30 4 -8 2 -17 -3 -20 -5
-3 -9 -18 -9 -33 0 -15 -2 -48 -5 -74 -2 -26 0 -50 5 -54 5 -3 6 -11 2 -17 -4
-7 -9 -39 -11 -72 -3 -67 -8 -128 -17 -195 -4 -25 -6 -57 -6 -72 0 -16 -4 -28
-8 -28 -5 0 -11 -19 -13 -42 -8 -71 -29 -192 -38 -213 -8 -20 -20 -85 -24
-138 -2 -15 -8 -33 -14 -39 -7 -7 -12 -29 -12 -49 0 -21 -5 -41 -10 -44 -6 -3
-10 -21 -10 -40 0 -19 -4 -36 -9 -39 -5 -3 -11 -22 -13 -41 l-4 -35 498 0 498
0 0 49 c0 27 -9 77 -19 112 -11 35 -25 109 -31 164 -29 259 -63 385 -140 515
-43 75 -76 139 -150 295 -11 22 -41 63 -67 90 -257 271 -293 313 -293 338 0
19 -17 40 -65 84 -37 31 -81 81 -100 109 -22 33 -46 56 -65 62 -22 8 -30 17
-30 36 0 20 4 23 21 19 19 -5 20 -4 10 15 -6 11 -11 35 -11 52 l0 30 26 -17
c26 -17 26 -17 20 4 -7 21 11 73 25 73 4 0 11 -9 14 -20 5 -16 10 -18 26 -9
11 5 25 21 31 34 6 14 16 21 24 18 8 -3 14 1 14 9 0 24 42 55 100 73 30 10 95
38 144 64 117 61 189 138 271 293 57 107 62 113 105 129 32 12 46 23 48 39 4
26 -22 58 -61 73 -22 10 -33 25 -48 71 -45 131 -144 222 -283 257 l-46 11 20
32 c12 17 31 52 42 79 19 44 23 47 58 47 31 0 39 4 43 22 4 13 0 33 -8 45 -19
29 -19 63 -1 63 23 0 70 45 62 58 -4 7 -22 12 -41 12 -38 0 -65 22 -65 52 0
12 -19 60 -41 107 -34 71 -57 101 -128 171 -147 145 -262 186 -461 163z m229
-30 c134 -38 286 -174 347 -311 13 -29 24 -56 24 -61 0 -5 -26 -2 -57 5 -179
42 -450 -1 -893 -141 -99 -31 -202 -57 -280 -70 l-35 -6 35 20 c42 24 20 27
-40 6 -49 -17 -90 -20 -90 -5 0 6 10 10 23 10 12 0 36 9 52 20 34 23 23 27
-15 5 -33 -19 -104 -19 -141 1 -22 11 -52 15 -109 12 l-78 -3 48 55 c93 107
199 195 310 257 117 65 147 80 221 111 105 43 310 90 514 116 40 5 99 -3 164
-21z m-1588 -370 c22 -20 58 -68 81 -107 22 -39 53 -89 68 -111 27 -39 28 -42
12 -68 -13 -21 -22 -25 -42 -21 -56 13 -132 60 -185 115 -42 45 -66 61 -100
70 -39 10 -45 15 -51 43 -3 20 2 55 15 94 12 34 21 68 21 77 0 21 127 -43 181
-92z m1898 -16 c61 -13 82 -37 32 -37 -16 0 -33 -5 -36 -11 -5 -6 -26 -8 -61
-3 -49 6 -56 4 -91 -24 -21 -17 -54 -37 -73 -46 l-35 -16 35 5 c19 3 54 19 77
36 38 27 47 29 91 23 31 -4 57 -2 71 6 18 9 30 8 62 -4 22 -9 55 -16 74 -16
38 0 44 -10 20 -30 -10 -9 -30 -10 -63 -5 -26 4 -60 6 -77 6 -149 -5 -149 -5
-194 -39 -47 -34 -132 -65 -156 -56 -7 3 -24 -1 -37 -9 -18 -11 -70 -15 -255
-15 -218 0 -234 -1 -258 -20 -19 -15 -35 -19 -59 -15 -22 3 -49 -2 -81 -16
-54 -24 -76 -26 -93 -9 -31 31 7 59 100 72 29 5 60 18 85 37 37 30 40 31 110
24 49 -4 83 -3 107 6 29 10 46 10 110 -5 44 -11 83 -15 93 -10 13 5 4 9 -32
14 -27 4 -63 12 -78 18 -39 17 -84 15 -116 -4 -24 -14 -32 -14 -75 -2 l-48 14
113 31 113 31 71 -28 c39 -15 86 -29 105 -30 94 -5 99 -3 173 70 l72 70 75 -1
c41 0 99 -6 129 -12z m81 -168 c0 -22 -4 -27 -17 -22 -11 4 -14 3 -9 -6 5 -7
18 -10 31 -7 15 4 28 -1 40 -14 16 -17 16 -20 2 -20 -9 0 -18 4 -21 9 -8 13
-84 4 -107 -13 -15 -10 -29 -12 -51 -6 -35 11 -78 -3 -78 -25 0 -12 -5 -13
-27 -3 -32 13 -58 33 -30 22 9 -3 23 -1 30 5 8 6 46 14 85 17 45 4 77 12 84
22 11 13 10 14 -9 4 -30 -16 -30 -16 -29 24 1 45 34 67 78 52 22 -8 28 -16 28
-39z m-1473 9 c15 -6 36 -18 45 -26 16 -14 16 -16 -3 -44 -12 -16 -32 -36 -45
-45 -24 -15 -26 -14 -61 22 -40 41 -88 65 -129 65 -15 0 -24 3 -20 8 29 29
162 42 213 20z m438 -28 c-3 -5 -21 -10 -38 -9 -27 0 -29 2 -12 9 28 12 57 12
50 0z m-555 -44 c37 -24 130 -147 130 -172 0 -6 -9 -23 -20 -37 -11 -14 -20
-30 -20 -36 0 -15 43 -14 58 1 8 8 8 2 0 -25 -6 -21 -14 -37 -18 -37 -25 0
-100 131 -100 174 0 8 -12 28 -26 45 -31 37 -79 42 -115 12 -31 -25 -18 -39
15 -17 54 35 89 11 111 -74 8 -29 25 -70 39 -91 l26 -39 -30 -15 c-35 -18
-101 -20 -118 -3 -19 19 -14 45 13 66 28 22 32 32 12 32 -16 0 -54 -39 -58
-60 -13 -70 96 -102 172 -49 15 11 30 14 39 9 17 -11 -1 -58 -36 -91 -13 -12
-24 -28 -24 -36 0 -21 54 -15 86 9 30 24 25 8 -10 -30 -23 -25 -98 -62 -127
-62 -17 0 -19 6 -13 56 6 51 5 56 -15 61 -12 3 -21 13 -21 24 0 14 -7 19 -30
19 -20 0 -30 5 -30 15 0 17 -27 20 -50 5 -9 -6 -17 -5 -22 3 -6 9 -12 9 -28
-1 -11 -7 -25 -10 -30 -7 -5 3 -12 0 -16 -7 -11 -18 -22 24 -23 87 -2 101 50
220 122 281 26 22 38 25 74 21 24 -2 61 -16 83 -31z m1292 12 c8 -20 -2 -38
-20 -38 -15 0 -15 2 -2 11 11 8 7 9 -17 4 -40 -8 -44 9 -5 23 37 14 39 14 44
0z m-98 -14 c20 -8 21 -31 1 -50 -24 -25 -17 -41 19 -48 19 -4 55 -18 81 -33
38 -21 56 -25 99 -21 29 2 71 14 94 25 l41 20 -11 -21 c-23 -45 -53 -71 -76
-68 -12 2 -52 -1 -88 -7 -59 -9 -67 -8 -85 10 -35 35 -92 19 -114 -34 l-13
-31 -20 40 c-11 21 -29 48 -39 59 -10 11 -17 27 -15 36 3 19 -51 63 -63 51 -7
-6 3 49 10 56 7 7 95 -11 95 -19 0 -5 5 -9 11 -9 6 0 9 6 6 13 -2 6 8 17 22
24 14 6 27 12 28 12 1 1 8 -2 17 -5z m398 -9 c3 3 11 -2 19 -12 12 -15 12 -16
-4 -10 -10 4 -33 7 -50 7 -29 0 -30 1 -11 14 12 9 23 11 30 5 6 -5 13 -7 16
-4z m-620 -16 c22 -12 12 -48 -18 -60 -13 -4 -24 -11 -24 -14 0 -2 10 -1 23 4
19 8 33 8 83 2 7 0 15 -8 18 -17 5 -14 4 -15 -8 -5 -30 25 -174 -10 -191 -47
-12 -27 -25 -29 -18 -3 10 38 -124 39 -164 1 -18 -17 -23 -19 -23 -6 0 10 -6
13 -15 9 -10 -3 -15 0 -13 8 3 15 -18 17 -117 7 -40 -4 -54 -3 -42 3 9 6 61
12 114 15 54 3 114 7 133 10 42 4 40 4 116 -2 51 -5 62 -3 74 13 12 15 12 16
0 6 -8 -7 -29 -13 -48 -13 -29 0 -33 3 -26 18 4 9 8 31 8 47 1 21 7 32 21 36
24 7 93 0 117 -12z m278 -9 c0 -5 -8 -10 -17 -10 -15 0 -16 2 -3 10 19 12 20
12 20 0z m203 -5 c-2 -7 3 -18 11 -24 13 -11 17 -9 26 14 9 23 14 26 38 20 40
-10 40 -14 0 -50 -58 -54 -156 -71 -224 -39 -28 13 -33 21 -28 38 5 17 4 19
-7 9 -15 -15 -58 -18 -43 -4 24 24 68 40 81 29 7 -6 13 -7 13 -3 0 4 11 0 25
-9 27 -18 45 -14 45 9 0 14 21 22 51 21 9 0 15 -5 12 -11z m-855 -44 c1 -26
-3 -29 -36 -33 -48 -6 -72 1 -72 20 0 23 31 41 71 42 33 0 36 -2 37 -29z
m-438 -7 c0 -3 -5 -14 -11 -25 -10 -20 -11 -20 -24 -2 -20 26 -18 33 10 33 14
0 25 -3 25 -6z m314 -19 c3 -9 0 -15 -9 -15 -8 0 -15 7 -15 15 0 8 4 15 9 15
5 0 11 -7 15 -15z m552 -24 c-3 -5 -25 -12 -48 -16 -31 -6 -37 -9 -21 -12 22
-4 22 -5 -10 -45 -69 -86 -207 -113 -317 -62 -30 14 -66 35 -78 47 l-24 22 29
7 c17 5 6 6 -29 3 -32 -2 -60 1 -63 6 -4 5 5 9 18 9 13 0 27 3 30 7 4 3 17 7
30 9 12 1 32 5 45 9 19 6 23 4 20 -10 -2 -12 6 -21 25 -28 24 -7 32 -6 48 12
10 11 25 18 32 15 8 -3 26 0 41 6 24 9 31 7 47 -11 11 -12 19 -26 19 -31 0
-17 31 -7 38 13 5 11 26 29 48 38 40 18 129 27 120 12z m41 -43 c11 -13 30
-42 42 -65 11 -23 25 -44 30 -48 6 -3 19 14 29 39 22 48 49 64 82 46 21 -11
20 -40 -1 -82 -5 -9 -9 -24 -9 -33 0 -28 19 -6 30 35 13 48 47 62 158 62 179
0 336 -112 382 -273 l8 -27 -37 11 c-54 16 -235 12 -316 -8 -338 -82 -578
-217 -672 -380 -30 -52 -63 -72 -63 -38 0 10 7 29 16 41 9 13 14 26 11 28 -8
8 -57 -49 -57 -65 0 -21 30 -51 51 -51 17 0 69 67 69 88 0 20 111 123 179 167
126 82 327 158 499 191 97 18 261 15 322 -7 46 -16 90 -47 90 -64 0 -7 -12
-16 -27 -20 -51 -12 -70 -33 -117 -126 -111 -219 -239 -321 -471 -379 -78 -19
-107 -22 -215 -17 -229 10 -392 82 -442 194 -18 41 -18 53 -8 156 13 129 23
181 51 256 37 100 103 176 200 230 61 34 62 34 93 -26 9 -18 21 -33 26 -33 6
0 -3 27 -20 60 -16 33 -30 66 -30 74 0 13 76 86 90 86 4 0 16 -10 27 -22z
m-526 -54 c62 -67 163 -95 267 -76 28 5 52 9 52 8 0 -1 -27 -22 -59 -46 -33
-25 -74 -66 -92 -92 -18 -27 -34 -48 -36 -48 -3 0 -30 17 -60 37 -78 51 -140
143 -142 210 -1 19 7 25 40 32 3 0 16 -11 30 -25z m-841 -50 c0 -57 -2 -65
-16 -60 -14 5 -15 4 -5 -8 7 -8 10 -19 7 -24 -3 -6 8 -15 24 -22 17 -7 30 -17
30 -22 0 -5 5 -6 10 -3 8 5 8 11 1 19 -8 9 -1 16 24 28 53 24 52 -1 -4 -101
-27 -47 -64 -128 -82 -178 -18 -51 -37 -93 -41 -93 -5 0 -25 9 -45 20 -21 11
-43 20 -50 20 -8 0 -22 5 -32 11 -16 10 -16 15 -6 38 41 85 69 157 110 276 25
75 65 165 72 165 2 0 3 -30 3 -66z m1195 -4 c-3 -5 -12 -10 -18 -10 -7 0 -6 4
3 10 19 12 23 12 15 0z m239 -1249 c3 -5 -1 -14 -9 -21 -13 -10 -15 -9 -15 9
0 21 14 28 24 12z m-22 -73 c-7 -7 -12 -22 -12 -34 0 -26 -16 -40 -23 -21 -3
7 1 21 9 31 7 11 11 23 8 27 -9 16 7 32 19 20 8 -8 8 -14 -1 -23z m68 -24 c0
-19 -28 -30 -42 -16 -8 8 -8 15 1 26 14 17 41 10 41 -10z m43 -9 c7 -18 -9
-29 -30 -21 -12 5 -13 9 -3 21 16 19 26 19 33 0z m-1309 -15 c20 -7 26 -17 26
-39 0 -25 -3 -28 -22 -24 -33 8 -45 20 -51 48 -5 28 6 31 47 15z m1270 -36
c12 -31 5 -67 -18 -94 l-24 -29 -17 40 -18 39 28 30 c33 34 40 36 49 14z m-98
-32 c-10 -10 -29 15 -21 28 6 9 10 8 17 -4 6 -10 7 -20 4 -24z m-1078 6 c-3
-25 -17 -32 -37 -19 -19 12 -6 41 19 41 16 0 21 -5 18 -22z m-157 -72 c56 -60
89 -98 89 -102 0 -2 -7 -4 -15 -4 -8 0 -15 6 -15 14 0 8 -11 23 -25 34 -14 11
-25 23 -25 27 0 4 -18 25 -40 47 -22 22 -37 45 -34 50 4 6 11 3 17 -7 5 -10
27 -36 48 -59z m109 24 c0 -21 -33 -29 -45 -10 -9 15 4 30 26 30 12 0 19 -7
19 -20z m1111 -3 c-1 -12 -15 -9 -19 4 -3 6 1 10 8 8 6 -3 11 -8 11 -12z
m-1007 -56 c5 -17 6 -34 2 -38 -12 -13 -76 26 -76 46 0 11 -3 26 -6 35 -5 14
-2 14 32 2 30 -10 41 -20 48 -45z m996 -3 c0 -21 -3 -29 -10 -22 -5 5 -7 19
-4 32 9 31 14 27 14 -10z m68 -15 c-5 -26 -38 -29 -38 -4 0 15 6 21 21 21 14
0 19 -5 17 -17z m68 6 c3 -6 0 -17 -8 -25 -12 -12 -17 -12 -32 -1 -11 8 -16
19 -12 25 9 15 43 15 52 1z m-1058 -27 c3 -16 -2 -22 -17 -22 -26 0 -36 17
-20 36 16 19 33 13 37 -14z m916 -45 c-3 -18 -10 -52 -15 -77 -5 -25 -12 -68
-14 -95 -3 -28 -7 -66 -11 -85 -3 -19 -7 -48 -8 -65 -1 -16 -8 -40 -14 -53 -7
-12 -10 -27 -7 -33 4 -5 2 -15 -3 -22 -11 -14 -23 -67 -25 -116 -2 -35 -19
-51 -32 -31 -4 7 -2 17 4 23 6 6 11 28 11 48 0 21 5 41 11 44 5 4 9 17 7 28
-1 12 2 28 7 36 10 16 16 59 17 111 1 19 5 37 9 40 5 3 10 30 13 59 2 28 6 55
10 58 3 3 3 17 0 29 -4 16 -2 24 6 24 8 0 10 9 6 24 -3 14 -1 28 5 31 6 4 8
17 5 30 -6 23 1 38 15 29 5 -2 6 -19 3 -37z m104 0 c16 -45 15 -58 -8 -85 -22
-26 -34 -23 -54 16 -12 24 -11 31 10 65 14 20 28 37 32 37 4 0 13 -15 20 -33z
m-1070 -4 c5 -17 -26 -29 -40 -15 -6 6 -7 15 -3 22 9 14 37 9 43 -7z m-108
-19 c0 -20 -18 -17 -29 5 -9 16 -8 18 9 14 11 -3 20 -12 20 -19z m228 -64 c2
-22 0 -40 -5 -40 -18 0 -73 41 -73 54 0 7 -3 28 -7 46 l-6 33 44 -26 c39 -23
44 -31 47 -67z m-185 -1 c4 -15 2 -16 -13 -6 -10 6 -21 19 -23 28 -4 15 -2 16
13 6 10 -6 21 -19 23 -28z m245 -26 c-4 -36 -38 -45 -38 -10 0 27 7 37 27 37
10 0 13 -9 11 -27z m847 -12 c0 -8 -8 -19 -17 -25 -22 -13 -44 5 -34 29 7 20
51 16 51 -4z m63 -9 c3 -16 -2 -22 -17 -22 -24 0 -33 13 -25 35 9 23 38 14 42
-13z m-1118 3 c0 -8 -7 -15 -15 -15 -8 0 -15 7 -15 15 0 8 7 15 15 15 8 0 15
-7 15 -15z m140 -33 c0 -24 -19 -42 -36 -35 -17 6 -18 25 -2 41 18 18 38 15
38 -6z m87 -20 c19 -14 22 -23 17 -54 l-6 -37 -39 20 c-42 21 -42 21 -33 67 7
33 22 34 61 4z m858 -24 c6 -36 4 -44 -15 -60 -12 -10 -25 -18 -30 -18 -7 0
-30 45 -30 60 0 15 51 70 60 65 5 -3 11 -24 15 -47z m-766 -22 c18 -22 -4 -58
-32 -54 -25 3 -34 32 -17 53 16 19 34 19 49 1z m700 -65 c8 -14 6 -22 -8 -35
-25 -23 -51 -10 -51 25 0 24 4 29 25 29 14 0 29 -8 34 -19z m-784 -16 c0 -13
-8 -21 -22 -23 -19 -3 -23 1 -23 23 0 22 4 26 23 23 14 -2 22 -10 22 -23z
m865 3 c0 -23 -18 -41 -34 -35 -9 4 -16 16 -16 27 0 15 7 20 25 20 14 0 25 -6
25 -12z m-779 -8 c13 -8 19 -22 20 -48 1 -20 3 -29 6 -20 10 38 73 29 73 -11
0 -36 -50 -56 -67 -28 -4 8 -30 19 -56 27 -47 12 -48 14 -41 44 3 17 8 34 11
39 6 10 31 9 54 -3z m209 -22 c0 -17 64 -147 73 -148 11 0 27 46 27 77 0 22 2
24 15 13 26 -21 56 -102 62 -162 6 -59 12 -68 31 -45 16 18 35 152 29 195 -3
21 -3 29 0 19 8 -28 27 -14 40 29 l11 39 1 -47 c1 -26 5 -58 11 -73 8 -21 1
-63 -34 -203 -25 -97 -47 -195 -51 -216 l-7 -40 -24 60 c-14 32 -40 98 -59
145 -19 47 -62 143 -95 214 -34 70 -59 133 -56 141 7 17 26 19 26 2z m530 -64
c0 -13 -38 -64 -49 -64 -4 0 -15 17 -25 37 l-18 38 34 28 33 28 12 -28 c7 -15
12 -33 13 -39z m-732 -42 c3 -22 -30 -48 -48 -37 -16 10 -11 43 8 54 23 14 36
9 40 -17z m66 -23 c37 -21 41 -33 30 -87 l-6 -31 -40 20 c-21 11 -41 26 -44
34 -5 13 13 85 21 85 2 0 20 -9 39 -21z m596 6 c10 -12 9 -20 -4 -40 -9 -14
-22 -25 -29 -25 -18 0 -37 21 -37 40 0 36 47 53 70 25z m94 -18 c9 -15 7 -22
-13 -38 -27 -22 -39 -21 -55 4 -8 12 -5 21 9 37 22 24 43 23 59 -3z m-67 -78
c10 -37 8 -43 -14 -70 -14 -16 -28 -29 -32 -29 -4 0 -14 18 -21 40 -13 39 -12
41 15 70 16 17 31 30 35 30 3 0 11 -18 17 -41z m-521 -4 c10 -39 -2 -57 -33
-53 -35 4 -45 45 -17 65 27 20 43 16 50 -12z m-95 -25 c40 -22 11 -95 -35 -88
-28 4 -34 52 -10 79 20 22 20 22 45 9z m459 -81 c-7 -21 -10 -48 -7 -60 4 -15
0 -27 -10 -34 -10 -7 -16 -25 -15 -45 0 -18 -6 -40 -15 -48 -9 -10 -13 -25 -9
-43 3 -16 1 -31 -4 -34 -6 -3 -10 -23 -10 -43 0 -28 -3 -33 -12 -24 -9 9 -6
34 11 109 12 54 25 112 28 128 3 17 10 35 15 42 5 6 9 30 10 52 0 23 4 41 9
41 5 0 10 8 10 18 1 14 2 14 6 -2 3 -11 0 -36 -7 -57z m-373 4 c31 -22 32 -25
26 -76 -3 -28 -7 -54 -9 -56 -1 -1 -21 12 -43 30 -42 33 -50 60 -35 116 7 24
11 23 61 -14z m461 -7 c5 -25 -37 -59 -55 -44 -16 13 -17 40 -1 56 18 18 52
10 56 -12z m86 18 c22 -9 21 -61 -2 -73 -22 -12 -52 3 -52 26 0 9 7 25 17 35
18 21 16 20 37 12z m-54 -94 c11 -34 11 -42 -3 -63 -36 -55 -67 -72 -67 -38 0
11 -4 23 -10 26 -18 11 -10 40 21 78 17 20 34 37 38 37 4 0 14 -18 21 -40z
m-392 -17 c14 -26 -3 -63 -28 -63 -28 0 -48 43 -30 65 17 20 47 19 58 -2z
m-98 -48 c17 -21 -2 -65 -28 -65 -22 0 -42 19 -42 40 0 37 47 53 70 25z m71
-64 c24 -25 29 -38 29 -78 0 -73 -10 -78 -54 -33 -37 38 -38 41 -31 90 4 27
11 50 17 50 5 0 23 -13 39 -29z m344 -15 c0 -32 -23 -53 -49 -43 -19 7 -21 48
-4 65 7 7 22 11 33 10 15 -2 20 -11 20 -32z m95 -6 c0 -42 -62 -54 -68 -13 -4
27 35 58 55 41 7 -6 13 -18 13 -28z m-73 -133 c-17 -31 -39 -57 -47 -57 -5 0
-15 19 -24 41 -17 41 -16 42 6 68 48 55 52 56 65 11 10 -33 10 -46 0 -63z
m-267 48 c21 -26 0 -79 -32 -83 -22 -3 -29 2 -34 22 -4 17 0 35 10 51 19 29
38 32 56 10z m-86 -68 c8 -23 6 -31 -12 -50 -27 -27 -55 -14 -60 27 -7 57 54
77 72 23z m271 -28 c9 -13 -3 -59 -14 -59 -11 0 -32 56 -24 64 10 10 31 7 38
-5z m-208 -31 c26 -25 33 -40 33 -70 0 -36 1 -37 21 -26 18 11 23 10 40 -11
34 -42 16 -86 -33 -79 -17 2 -24 11 -29 38 -4 19 -7 26 -8 15 -1 -16 -8 -12
-44 23 l-44 43 10 50 c5 27 12 49 15 49 3 0 21 -14 39 -32z m311 23 c18 -11
11 -51 -10 -65 -13 -8 -23 -8 -35 0 -25 16 -26 31 -4 53 23 23 30 25 49 12z
m-64 -101 c5 -32 2 -51 -8 -65 -16 -22 -17 -21 -34 47 -8 28 -7 41 5 58 19 27
29 17 37 -40z m-232 -85 c9 -21 8 -28 -7 -45 -27 -29 -59 -22 -63 13 -6 55 48
79 70 32z"/>
<path d="M2740 3848 c-60 -31 -93 -81 -87 -131 13 -94 116 -161 247 -161 80 0
121 15 161 57 51 53 48 116 -7 177 -70 77 -221 105 -314 58z m164 -13 c42 -39
33 -73 -27 -103 -58 -28 -74 -60 -52 -102 8 -16 25 -36 37 -44 22 -16 22 -16
2 -16 -42 0 -117 34 -155 70 -34 33 -39 42 -39 83 0 57 34 100 95 122 63 22
108 19 139 -10z m35 -164 c14 -9 9 -41 -6 -41 -19 1 -35 19 -30 34 7 18 16 20
36 7z"/>
<path d="M2816 3801 c-3 -5 1 -12 10 -15 25 -10 34 -7 34 9 0 16 -35 21 -44 6z"/>
<path d="M1361 3498 c0 -9 -6 -20 -13 -24 -6 -4 -8 -3 -5 2 3 5 -3 10 -13 10
-10 0 -23 -8 -29 -18 -7 -11 -7 -18 -1 -18 5 0 10 4 10 9 0 4 11 6 25 3 14 -2
22 -8 19 -13 -3 -5 -9 -7 -14 -4 -4 3 -13 -2 -19 -9 -9 -10 -9 -16 -1 -21 6
-4 9 -3 8 2 -2 4 1 9 7 10 5 2 10 -4 10 -12 0 -8 3 -15 8 -15 4 0 11 0 17 0 5
0 7 14 5 30 -3 27 -1 30 16 25 14 -5 17 -2 13 9 -3 8 -12 12 -19 10 -8 -4 -15
3 -18 18 -2 13 -5 16 -6 6z"/>
<path d="M1421 3388 c-1 -11 -7 -15 -23 -11 -18 4 -17 2 6 -11 34 -19 35 -19
25 14 -4 14 -7 18 -8 8z"/>
<path d="M1464 3336 c-3 -9 -10 -14 -14 -11 -4 3 -11 -2 -14 -10 -4 -10 -1
-15 9 -13 7 2 13 -1 12 -7 -1 -5 -6 -9 -12 -7 -5 1 -1 -4 9 -13 10 -8 23 -12
29 -8 5 3 3 9 -4 14 -8 5 -10 9 -5 9 5 0 4 6 -3 13 -8 10 -7 17 1 25 6 6 9 15
5 18 -4 4 -9 -1 -13 -10z"/>
<path d="M1485 3331 c-3 -6 -2 -18 3 -27 7 -13 10 -13 20 -1 10 11 9 17 -2 26
-10 8 -16 9 -21 2z"/>
<path d="M2893 3222 c-12 -2 -27 -10 -33 -18 -15 -17 -15 -17 34 0 39 14 39
25 -1 18z"/>
<path d="M2761 3041 c-9 -15 -3 -28 30 -70 38 -48 61 -62 73 -43 6 10 -73 132
-85 132 -5 0 -13 -9 -18 -19z"/>
<path d="M2994 3015 c-17 -42 -17 -45 0 -45 12 0 36 47 36 71 0 22 -22 6 -36
-26z"/>
<path d="M3155 2490 c15 -56 17 -120 5 -155 -12 -38 -6 -61 10 -35 27 43 23
161 -6 197 -15 17 -15 16 -9 -7z"/>
<path d="M3080 2475 c15 -39 12 -102 -6 -137 -10 -20 -12 -34 -6 -40 25 -25
52 98 35 161 -5 19 -14 36 -21 39 -9 3 -10 -3 -2 -23z"/>
<path d="M1430 2899 c0 -5 5 -7 10 -4 6 3 10 8 10 11 0 2 -4 4 -10 4 -5 0 -10
-5 -10 -11z"/>
<path d="M1435 2859 c-4 -6 -4 -13 -1 -16 3 -4 6 -1 6 5 0 7 5 12 11 12 6 0 8
-9 4 -22 -5 -20 -4 -21 5 -5 14 22 34 22 26 1 -5 -14 -4 -15 9 -4 14 11 13 14
-2 26 -22 16 -49 18 -58 3z"/>
<path d="M1378 2773 c-18 -46 -19 -53 -13 -53 2 -1 20 -7 40 -16 35 -14 35
-14 55 18 28 46 26 60 -7 53 -16 -3 -22 -2 -15 1 10 5 9 9 -5 20 -28 21 -39
17 -55 -23z m42 7 c-9 -5 -6 -10 9 -15 11 -3 25 -3 31 0 16 10 12 -7 -10 -40
-17 -26 -20 -27 -21 -10 -1 11 -1 27 0 35 1 9 -5 6 -17 -9 -16 -20 -20 -21
-25 -7 -4 9 -2 16 4 16 6 0 8 4 5 9 -10 16 5 40 21 34 11 -4 12 -8 3 -13z"/>
</g>
</svg>
